<svg xmlns="http://www.w3.org/2000/svg" viewBox="0 0 1080 1920"><defs><style>.cls-1,.cls-2,.cls-4,.cls-5{fill:#fff;}.cls-1{opacity:0.03;}.cls-2{opacity:0.02;}.cls-3,.cls-5{opacity:0.8;}.cls-6{fill:none;stroke:#fff;stroke-miterlimit:10;stroke-width:50px;opacity:0.7;}</style></defs><title>Eszköz 1</title><g id="Réteg_2" data-name="Réteg 2"><g id="Réteg_1" data-name="Réteg 1"><rect width="1080" height="1920"/><rect class="cls-1" x="55" width="971" height="971" rx="150" ry="150"/><rect class="cls-2" x="116" y="61" width="849" height="849" rx="150" ry="150"/><rect class="cls-2" x="170" y="115" width="741" height="741" rx="150" ry="150"/><g class="cls-3"><path class="cls-4" d="M294.69,398.69a48.14,48.14,0,0,1,8.75-14.86l-.32-8.58,4.41,16.84c9.36,29.75,23.29,66.3,28.77,91.42-2.5-7.06-5.89-15.3-9.15-23.13L324,452.74c-2.05-4.91-3.89-9.39-5.24-13l1.25,2-9.22-14.85-6.45-16,6.45,16-16.07-28.19"/><path class="cls-4" d="M513.24,501.85l-.4-1.1,3.34,4.64q2.12,4,4.24,8.05l4.18,8.27c1.4,2.77,2.84,5.53,4.22,8.35s2.75,5.63,4.13,8.43c3.77,7.2,7.46,14.3,11.12,21.11a402.9,402.9,0,0,1,22.33,54.31c1.25,3.88,2.51,7.8,3.69,11.79l-5.33-11.35-5.49-11.26c-.26-.77-.53-1.53-.79-2.29a411.8,411.8,0,0,0-19.07-45.08c-1.67-3.5-3.41-6.94-5.1-10.39l-2.57-5.16-.68-1.36-.94-2-1.86-4c-5-10.21-9.92-20.49-15-31"/><path class="cls-4" d="M578,620.7c1.46,3.63,2.88,7.33,4.36,11.23l-76.29.52c1.61-7.3,3.32-14.76,5.11-22.32s3.65-15.24,5.58-22.92l1.72.52c-1.47,5.31-2.75,10.81-4.14,16.41s-2.83,11.29-4.47,16.93c-.91,3.1-1.89,6.2-3,9.26l1-2.1-1.23,4.41,75-.51L578,620.7"/><path class="cls-4" d="M516.62,604.22c1.3-5.69,2.52-11.37,3.88-17.08l1.06-2.12c-1.71,6.42-3.31,12.81-4.94,19.2"/><polyline class="cls-4" points="488.59 533.18 487.61 529.6 489.05 533.69 488.59 533.18"/><polyline class="cls-4" points="584.57 610.15 581.32 617.51 584.57 610.15"/><polyline class="cls-4" points="581.32 617.51 581 618.6 581.32 617.51"/><polyline class="cls-4" points="563.32 492.52 560.35 497.7 563.32 492.52"/><polyline class="cls-4" points="590.47 576.31 589.4 578.36 590.47 576.31"/><path class="cls-4" d="M389.14,560.91a10.34,10.34,0,0,1-1.15-3,10.34,10.34,0,0,0,1.15,3"/><path class="cls-4" d="M487.61,529.6q-.89-3.89-2-8.05,1.08,4.17,2,8.05"/><path class="cls-4" d="M553.9,505.4c-1.14,2.52-2.29,5-3.36,7.57.88-2.18,1.81-4.36,2.76-6.53l.6-1"/><path class="cls-4" d="M568.26,483c-1.64,3.15-3.35,6.3-4.94,9.48,1-2.15,2.07-4.27,3.1-6.4l1.84-3.08"/><polyline class="cls-4" points="536.39 551.66 539.5 539.07 540.43 536.9 539.5 539.07 540.43 536.9 540.62 536.97 536.39 551.66"/><path class="cls-4" d="M561.07,491.67,553.9,505.4c-1.14,2.52-2.29,5-3.36,7.57.88-2.18,1.81-4.36,2.76-6.53-1.77,3.45-3.43,7-5.14,10.61s-3.41,7.33-5.12,11.11q-5,11.36-9.86,23.7l.25,2.54c2.55-7.39,5.27-14.77,7.91-22.15l-1.84,6.82.93-2.17,1.66-4.4L540.62,537c3-7.24,6.34-14.44,9.52-21.64l-4.42,8.45,5.2-10.67-.78,2.22,2.5-4.74,2.57-4.71,5.86-14.21m-10.15,21.44.77-2.23-.77,2.23"/><path class="cls-4" d="M553.3,506.44c-.95,2.17-1.88,4.35-2.76,6.53.88-2.18,1.81-4.36,2.76-6.53"/><polyline class="cls-4" points="540.43 536.9 539.5 539.07 540.43 536.9"/><path class="cls-4" d="M575.15,466.72c-.87,1.77-1.78,3.53-2.6,5.32L569,479.52l-5.81,11.05-5.58,11.14-2.39,4.17,5.86-14.21c2.27-4.19,4.66-8.35,7-12.52s4.61-8.32,7.09-12.43"/><polyline class="cls-4" points="542.09 532.5 540.62 536.97 540.43 536.9 542.09 532.5"/><polyline class="cls-4" points="542.09 532.5 540.62 536.97 542.09 532.5"/><path class="cls-4" d="M576.24,464.61l-1.9,4.23c-.62,1.07-1.22,2.13-1.79,3.2.82-1.79,1.73-3.55,2.6-5.32l1.09-2.11"/><polyline class="cls-4" points="574.88 467.88 574.34 468.84 574.88 467.88"/><polyline class="cls-4" points="573.49 470.73 568.26 483.04 570.83 476.44 573.49 470.73"/><polyline class="cls-4" points="540.43 536.9 539.5 539.07 540.43 536.9"/><polyline class="cls-4" points="574.88 467.88 573.49 470.73 574.88 467.88"/><path class="cls-4" d="M574.34,468.84l-.85,1.89-2.66,5.71L569,479.52l3.56-7.48L569,479.52l3.56-7.48c.57-1.07,1.17-2.13,1.79-3.2"/><polyline class="cls-4" points="574.88 467.88 573.49 470.73 574.34 468.84 574.88 467.88"/><polyline class="cls-4" points="573.49 470.73 570.83 476.44 573.49 470.73"/><polyline class="cls-4" points="572.55 472.04 568.99 479.52 572.55 472.04"/><polyline class="cls-4" points="570.83 476.44 568.26 483.04 566.42 486.12 570.83 476.44"/><polyline class="cls-4" points="568.26 483.04 566.42 486.12 568.26 483.04"/><polyline class="cls-4" points="570.83 476.44 568.26 483.04 570.83 476.44"/><polyline class="cls-4" points="570.83 476.44 566.42 486.12 563.16 491.2 568.56 480.62 568.99 479.52 570.83 476.44"/><polyline class="cls-4" points="570.83 476.44 566.42 486.12 570.83 476.44"/><polyline class="cls-4" points="551.69 510.88 550.92 513.11 551.69 510.88"/><polyline class="cls-4" points="550.92 513.11 550.14 515.33 545.72 523.78 550.92 513.11"/><polyline class="cls-4" points="550.92 513.11 550.14 515.33 550.92 513.11"/><polyline class="cls-4" points="550.14 515.33 545.72 523.78 550.14 515.33"/><polyline class="cls-4" points="557.6 501.71 554.59 508.16 555.21 505.88 557.6 501.71"/><polyline class="cls-4" points="568.99 479.52 568.56 480.62 562.98 491.13 557.6 501.71 563.18 490.57 568.99 479.52"/><polyline class="cls-4" points="568.99 479.52 568.56 480.62 568.99 479.52 568.56 480.62 568.99 479.52"/><polyline class="cls-4" points="568.99 479.52 568.56 480.62 568.99 479.52"/><path class="cls-4" d="M575.17,582.22c-2.38,5.24-4.64,10.54-7,15.81,2.48-6,4.91-12.07,7.47-18.06l-.5,2.25"/><polyline class="cls-4" points="573.55 590.09 565.8 604.49 574.51 585.61 573.55 590.09"/><path class="cls-4" d="M575.8,603.93C571,619.17,566.58,633.4,561.32,645l6.91-20.67-.33,1.09c2.64-7.17,5.22-14.37,7.9-21.5"/><path class="cls-4" d="M575.8,603.93c-2.68,7.13-5.26,14.33-7.9,21.5l.33-1.09c2.53-6.81,5-13.64,7.57-20.41"/><path class="cls-4" d="M575.8,603.93c-2.68,7.13-5.26,14.33-7.9,21.5,2.64-7.17,5.22-14.37,7.9-21.5"/><polyline class="cls-4" points="572.41 594.53 569.77 599.71 573.55 590.09 572.41 594.53"/><polyline class="cls-4" points="585.91 549.69 583.38 556.06 585.91 549.69"/><path class="cls-4" d="M679.72,338l2.75-5,3.25-7.5c-4.07,4.82-8.15,9.66-12.32,14.8-1,1.3-2.12,2.57-3.11,3.94l-3,4.16c-2,2.83-4.1,5.77-6.2,8.86l3.16-3.44c-2.2,3.36-4.38,6.4-6.42,9.31s-3.94,5.71-5.86,8.41l-5.73,8c-1.89,2.68-3.62,5.51-5.44,8.45,1.44-2,2.91-4.08,4.4-6.22l4.72-6.48c3.21-4.38,6.41-8.95,9.72-13.39,6.85-8.74,13.47-17.4,20.12-23.9"/><polyline class="cls-4" points="630.95 410.13 628.68 414.13 630.95 410.13"/><path class="cls-4" d="M661.05,357.22c-1.28,1.9-2.62,3.78-3.86,5.72,1.24-1.94,2.58-3.82,3.86-5.72"/><polyline class="cls-4" points="634.63 404.27 630.95 410.13 634.63 404.27"/><polyline class="cls-4" points="580.08 550.14 577.54 556.54 574.24 562.69 579.7 550.01 580.08 550.14"/><polyline class="cls-4" points="580.46 550.27 577.54 556.54 580.08 550.14 580.46 550.27"/><path class="cls-4" d="M583.64,548.92l-2.56,5.18c-2.11,4.11-4.29,8.21-6.37,12.36,2.18-5.32,4.47-10.59,6.69-15.88l2.24-1.66"/><polyline class="cls-4" points="583.83 548.99 581.08 554.1 583.64 548.92 583.83 548.99"/><polyline class="cls-4" points="584.75 548.09 577.64 562.6 581.08 554.1 583.83 548.99 584.75 548.09"/><path class="cls-4" d="M579.7,550l-5.46,12.68,3.3-6.15c-2.3,5.87-4.56,12.37-6.87,18.86-1.17,3.24-2.35,6.47-3.5,9.65s-2.31,6.27-3.47,9.22q1.23-4.93,2.61-9.82c.93-3.25,1.93-6.47,3-9.69,3.45-11.09,7.48-22,11.26-32.93L579.7,550"/><polyline class="cls-4" points="579.7 550.01 574.24 562.69 579.7 550.01"/><path class="cls-4" d="M582,536.29l-2.55,6L577,548.51c-1.65,4.14-3.3,8.28-5,12.27a196.25,196.25,0,0,1-9.57,21.09c.38-1.22.74-2.4,1.1-3.57,1.8-5.66,3.67-10.83,5.57-15.76s4-9.58,6-14.26,4-9.35,6.09-14.24c1-2.46,2-5,3-7.6l3.07-8.14.65-1.81c-2.87,5.06-6,11.86-9.24,18.66s-6.29,13.65-9,18.83q2.73-6.37,5.48-12.53l5.66-12.09c3.71-8,7.71-15.7,11.59-23.43l-5.35,15.14c-1.74,5.06-3.4,10.15-5.1,15.22"/><path class="cls-4" d="M567.77,560.6l-10.93,21.91c1.26-3.22,2.59-6.43,3.88-9.65l7-12.26"/><polyline class="cls-4" points="544.99 612.66 543.82 615.91 543.3 616.95 544.99 612.66"/><path class="cls-4" d="M552.89,593.36l-2.26,5.34-5.64,14-1.17,3.25c3-7.52,6-15,9.07-22.55m-2.26,5.34-5.64,14,5.64-14"/><path class="cls-4" d="M560.72,572.86c-1.29,3.22-2.62,6.43-3.88,9.65l-6.21,16.19-5.64,14L543.3,617l.52-1L534.38,636l7.74-24.15c3-5.75,6-12.36,9.17-19.09s6.26-13.61,9.43-19.86"/><path class="cls-4" d="M560.72,572.86c-1.29,3.22-2.62,6.43-3.88,9.65,1.26-3.22,2.59-6.43,3.88-9.65"/><polyline class="cls-4" points="544.99 612.66 543.3 616.95 544.99 612.66"/><polyline class="cls-4" points="550.63 598.7 544.99 612.66 550.63 598.7"/><polyline class="cls-4" points="550.63 598.7 544.99 612.66 550.63 598.7"/><path class="cls-4" d="M538.8,618c-2.72,7.85-5.36,15.21-8,21.63l26.83-.18c-.76-3.76-1.37-7.25-1.8-10.5l3.36,10-30,.2,4.48-16.65.18,3.65,4.9-8.17"/><path class="cls-4" d="M457.06,548.59c-1.21.94-2.46,2-3.79,3.18l.59-1.77a29.62,29.62,0,0,1,3.2-1.41"/><path class="cls-4" d="M292.89,485.4c-2.94-23.69-3.92-43.21-3-59.78l12.71,32.08c13,34.9,22.94,71.1,16.47,73.24-.93.31-2.19-.09-3.82-1.27-7.19-15.7-15.3-31-22.34-44.27"/><path class="cls-4" d="M358,635l-2.28-7.56c5.05,10,6.54,8.41,14.16,26.18-1.85.77-6.72-8.84-11.88-18.62"/><path class="cls-4" d="M330.44,575q-.6-2.79-1.34-5.66l-1.49-5.57q-.9-3.93-2.21-8.12c-1.73-5.56-3.95-11.41-6.41-17.32-1.21-2.88-2.47-5.79-3.76-8.68,1.63,1.18,2.89,1.58,3.82,1.27,6.47-2.14-3.44-38.34-16.47-73.24q16,39.66,32.21,79.21L346,564c12,28.89,24.25,57.74,36.19,85.33l-1.22-7.6c-2.71-7-5.43-13.72-8.15-20.37l-7.93-19.16q-1.23-3-2.46-5.9c-4.89-11.75-9.71-23.36-14.06-34.5-2.22-5.68-4.05-10.57-5.85-15.62s-3.41-9.89-4.85-14.66c6.74,13.9,13.26,28.51,19.34,43.1,4.05,9.72,8,19.61,11.88,29.89,3.18,8.35,6.34,17,9.53,25.9l4.81,13.64,2.42,7c.41,1.19.82,2.37,1.22,3.55,0,.06.05.2.08.18l.07-.1.14-.2.29-.38.58-.75c5.33-10.44,10.88-20.59,16.84-30.73,4.6-8,11.47-23.33,18.9-38.46-1.7,3.63-3.45,7.19-5.1,10.85L413.76,606l-.21,5.19c2.55-4.29,5.25-8.72,8-13.43l8.79-14.38c-1.46,2.72-2.8,5.55-4.2,8.28l-3.72,7.61-3.58,7.68c-2.39,5.06-4.69,10.16-7,15.19-4.13,9.18-8.12,18.21-12,27-2.42,5.38-4.7,10.94-7,16.81h0c-1.6,4.07-3.19,8.26-4.81,12.63l-1,.47-.27.12s0,0-.06-.09l-.07-.15-.14-.31-.55-1.23-2.24-4.94-4.58-9.95-9.74-21,9.85,26.24c1.59,5.39,2.37,8.82,2.47,10.62.22,3.89-2.82-.2-7.32-8.41S364,649.57,359.2,638.85L358,635c5.16,9.78,10,19.39,11.88,18.62-7.62-17.77-9.11-16.14-14.16-26.18q-.72-4.86-1.34-9.46l-7.55-23.33c1.63,1.84,1.87,1,1.42-1.18s-1.6-5.68-2.83-9.35c-2.47-7.35-5.21-15.24-3.44-14.62l-2.92-8.32c-.53-1.49-.85-2.47-1.22-3.58l-1.1-3.28-4.38-13.12-8.52-12.65c2.5,10.17,5.07,20.62,6.36,28.65.32,2,.56,3.87.7,5.53,0,.17.09.53.13.79l.13.84.25,1.61c.14,1,.25,2,.33,2.89.29,3.56,0,5.87-1.33,6.15"/><path class="cls-4" d="M319.05,530.94c6.47-2.14-3.44-38.34-16.47-73.24,13,34.9,22.94,71.1,16.47,73.24"/><path class="cls-4" d="M355.75,627.45c5.05,10,6.54,8.41,14.16,26.18-7.62-17.77-9.11-16.14-14.16-26.18"/><path class="cls-4" d="M441.89,565.4,440.7,567l-1.61,2.43c-1,1.57-2,3.16-3,4.73l-5.76,9.18c-1.46,2.72-2.8,5.55-4.2,8.28l-3.72,7.61-3.58,7.68c-2.39,5.06-4.69,10.16-7,15.19l-.43,2.09q6-12.71,12.62-26c-2.28,5.12-4.47,10.36-6.7,15.52l-6.53,15.69c1.38-2.44,2.82-5.26,4.32-8.33q1.11-2.36,2.28-4.8c.78-1.66,1.57-3.35,2.38-5,1.6-3.51,3.24-7.11,4.91-10.75s3.46-7.3,5.19-11l1.45-3.19,1.53-3.1L436,577c1-2.07,2-4.16,3.06-6.22.53-1,1.06-2,1.64-3.11l1.24-2.3m-15.75,26.23-3.72,7.61-3.58,7.68c-2.39,5.06-4.69,10.16-7,15.19,2.27-5,4.57-10.13,7-15.19l3.58-7.68,3.72-7.61"/><path class="cls-4" d="M426.14,591.63l-3.72,7.61-3.58,7.68c-2.39,5.06-4.69,10.16-7,15.19,2.27-5,4.57-10.13,7-15.19l3.58-7.68,3.72-7.61"/><polyline class="cls-4" points="355.81 630.72 355.75 627.45 358.03 635.01 355.81 630.72"/><polyline class="cls-4" points="337.52 494.23 338.37 492.62 337.52 494.23"/><path class="cls-5" d="M355.66,682.35c-5.22-16.16-7.67-26.05-8.54-32.34s-.14-9,1.11-10.5,3.06-1.78,4.56-2.72,2.72-2.51,3-6.07L358,635l1.17,3.84c4.82,10.72,10.72,22.92,15.19,31.07s7.54,12.3,7.32,8.41c-.1-1.8-.88-5.23-2.47-10.62l-9.85-26.24,9.74,21,4.58,9.95,2.24,4.94.55,1.23.14.31.07.15c0,.06,0,.12.06.09L387,679l1-.47c1.62-4.37,3.21-8.56,4.81-12.63,2.32-5.87,4.6-11.43,7-16.81,3.85-8.79,7.84-17.82,12-27l-.43,2.09c-3.7,8.39-7.33,16.66-10.83,24.76,3.1-5.1,6.9-13.07,10.92-22.11l12.53-28.62c-2.28,5.12-4.47,10.36-6.7,15.52l-6.53,15.69c1.38-2.44,2.82-5.26,4.32-8.33q1.11-2.36,2.28-4.8c.78-1.66,1.57-3.35,2.38-5,1.6-3.51,3.24-7.11,4.91-10.75s3.46-7.3,5.19-11L428.59,595c1.83-2.43,3.64-5,5.62-7.63s4-5.25,6.06-8L435.36,588c-.83,1.4-1.6,2.86-2.36,4.32l-2.29,4.32-4.52,8.49-4.3,8.51-2.16,7.78-2.21,8.1a184.83,184.83,0,0,0,13.07-17.6c2.69-3.89,5.65-8.45,8.91-13.85.8-1.38,1.68-2.72,2.58-4.12l2.74-4.37q2.81-4.55,5.86-9.76c-5.24,9.23-10.27,17.34-14.72,25.58-4.6,8-8.81,16.05-13.11,24.07S414.36,646,410,655.11c-2.21,4.59-4.43,9.37-6.71,14.46s-4.65,10.49-7.1,16.3l-1.13,7.81L390.87,701c2.42-1.53,6.43-8.29,10.58-15.43S410,670.89,412.91,668l-7.42,14.45L398.44,696c.54,1.63,2.55-.88,4.89-4.36s4.92-7.73,6.4-9c-5.35,10.44-8.84,14.24-11.93,17.29a54.62,54.62,0,0,0-4.56,4.88,46.44,46.44,0,0,0-5.11,8.32c-.34-.59-.7-1.16-1.07-1.72l-.56-.83-.61-1.62c-.83-2.19-1.71-4.41-2.66-6.7l-.55-1.31-.85-2c-5.37-12.89-9.47-21.51-12.62-27s-5.31-7.82-6.59-7.55-1.63,3.18-1.09,8.32a167.14,167.14,0,0,0,4.29,21.66l-4.67-13.81c-4.73-9.81-5.38-8.78-5.16-5.45s1.32,9-.33,7.33"/><path class="cls-4" d="M381.71,678.33c-.1-1.8-.88-5.23-2.47-10.62l-9.85-26.24,9.85,26.24c1.59,5.39,2.37,8.82,2.47,10.62"/><path class="cls-4" d="M369.39,641.47l9.74,21,4.58,9.95,2.24,4.94.55,1.23.14.31.07.15c0,.06,0,.12.06.09L387,679l1-.47c1.62-4.37,3.21-8.56,4.81-12.63-1.6,4.07-3.19,8.26-4.81,12.63l-1,.47-.27.12s0,0-.06-.09l-.07-.15-.14-.31-.55-1.23-2.24-4.94-4.58-9.95-9.74-21"/><path class="cls-4" d="M424.07,598.23c-2.28,5.12-4.47,10.36-6.7,15.52l-6.53,15.69,6.53-15.69c2.23-5.16,4.42-10.4,6.7-15.52"/><polyline class="cls-4" points="411.45 624.2 411.88 622.11 411.45 624.2"/><path class="cls-5" d="M443.4,547.62c.44-1.08,1-2.14,1.45-3.23l1.39-4.67-3.13,4.46,3.13-4.46c-.23-.65-.45-1.32-.66-2l-4.33,5.07c-1.51,1.75-2.86,3.52-4.56,5.76l2.39-3.63c.72-1.13,1.53-2.2,2.28-3.28l-2,2.26-2,2.43-4.3,5.42,4.73-7c1.47-2.16,3-4.19,4.5-6.22l-.75-.7-3.35,4c-.93,1.32-1.73,2.67-2.67,4.15l-2.75,4.48-1.38,2.26-1.31,2.3-2.62,4.58c-1.86,3.19-3.56,6.41-5.27,9.46-.86,1.52-1.7,3-2.54,4.44s-1.61,2.85-2.4,4.18l1.8-4.24,1.92-4.13c1.3-2.73,2.58-5.46,4-8.14,1.5-2.84,3-5.57,4.48-8.37s3.18-5.5,4.78-8.27,3.27-5.38,5-8.08l2.51-4c.85-1.36,1.76-2.67,2.63-4l2.19-4.15c-2.45,3.28-5.08,6.74-7.52,10.41l-3.76,5.49c-1.26,1.84-2.44,3.73-3.64,5.53L428,551c-1.12,1.75-2.24,3.44-3.34,5.06-.54.8-1.12,1.65-1.63,2.34s-1,1.4-1.52,2.08c-1,1.34-1.9,2.57-2.81,3.66l1.49-3.06c.59-1.22,1.25-2.39,1.87-3.52l2.06-3.7,2.08-3.58c.71-1.16,1.44-2.29,2.15-3.41,1.45-2.25,2.86-4.38,4.38-6.68s3.1-4.36,4.62-6.49c3-4.28,6.19-8.23,9.27-12.48,1.54-2.12,3.23-4.19,4.86-6.43s3.29-4.58,5.14-7l1.15-1.55c-.93.88-1.93,1.86-3,2.93s-2.1,2.29-3.23,3.54c-2.22,2.54-4.73,5.24-7.06,8.23l-3.61,4.44c-1.22,1.49-2.43,3-3.54,4.47-2.28,3-4.5,5.84-6.54,8.35l4.43-6.14,2.16-3,1.07-1.46,1.11-1.39L444,520.8c.71-.88,1.41-1.76,2.12-2.63s1.45-1.67,2.16-2.5l4.24-4.81c.69-.78,1.36-1.58,2.07-2.33l2.11-2.22c1.38-1.44,2.75-2.88,4.13-4.31.68-.7,1.32-1.43,2-2.08l2.08-1.92,1.43-1.78c1.17-1.35,2.34-2.68,3.49-4s2.37-2.5,3.5-3.69l3.33-3.46,1.58-1.62.1-.1.06.15.13.29.26.58.51,1.14c6.6,14.53,12,27.3,17,39.58-2.84-8.32-6-17.11-9.44-26.33,3.48,9.22,6.6,18,9.44,26.33,2.92,7.46,5.65,14.61,8.13,21.53q1,2.67,1.93,5.34c.69,1.88,1.34,3.78,2,5.66,1.33,3.78,2.63,7.54,3.88,11.31,5.06,15.07,9.64,30.14,13.79,45.59-1.54-8.31-3.14-16.64-4.9-24.94,7.49,14.32,12.9,31.89,18.12,45.87-6-23.37-10.67-43.71-18.33-65.47,7.66,21.76,12.38,42.1,18.33,65.47l1.55,4.31c-2.67-19.59-9.86-43.95-14.73-63.12,4.4,13.18,6.67,24.62,11.64,40L537,612l-2.09-6.61L537,612c3.53,11.32,5.92,21.47,8,31.37h-1.44l3-7.47c.69-7,1.53-14.53,2.81-22.26.63-3.87,1.35-7.78,2.19-11.7s1.86-7.83,3-11.7l2.36-7.72-6.21,16.19,2.26-5.34c-3.09,7.5-6.06,15-9.07,22.55L534.38,636l7.74-24.15L538.8,618c-2.72,7.85-5.36,15.21-8,21.63l26.83-.18c-.76-3.76-1.37-7.25-1.8-10.5l3.36,10-30,.2,4.48-16.65,2.11-16.25-3.92,1.25c-4,6.48-8.36,16.44-12.56,28.78L569,636c-1.16-4.34-2.44-8.93-4-13.66-.36-1.11-.73-2.23-1.1-3.36l-2.49,2,.08-6.22-5.46-9.35L553,595.3c-3.68-4.94-6.74-11.95-9.64-19.63-1.46-3.84-2.89-7.85-4.28-11.88s-2.83-8-4.3-11.88c.6,2.29,1.13,4.61,1.7,6.91A43.37,43.37,0,0,1,530,547.43c-.68-1.65-1.3-3.34-1.93-5-.8-2.19-1.59-4.39-2.38-6.55-1.76-4.86-3.54-9.61-5.26-13.92-2.22-6.62-4.68-13.24-7.18-20.07l-.81-1.66.41.56-.28-.76q-6.13-13.5-12.5-27.05l-6.49-15.82-3.66-9.6,3.66,9.6L498,467.44l-3.46-9.67L502,475l-7.29-17.68L487,439l-2.05-4.59-1.14.48-.56.25-.29.13c-.1.07-.21.21-.32.31l-2.57,2.67,2.38-3-10.56,9.71-11.19,11.35c-3.78,3.82-7.51,7.69-11.33,11.62-5.06,6.08-9.93,12.87-14.81,19.38l6.15-8.5,3.1-4.28c1-1.4,2.1-2.71,3.16-4.08l7-8.84-6,6.78c-2,2.29-4,4.46-5.95,6.95l-5.91,7.28-3,3.65c-1,1.22-2,2.4-2.93,3.76.2-.86.4-1.75.62-2.6-2.38,3.09-4.89,6.46-7.53,10l-4,5.42-1,1.4-1,1.49-2,3-8.12,12.59c-.69,1.06-1.38,2.19-2,3.25l-1.67,2.88q-1.17,2-2.35,4l-.6,1.07c-1.64,3.13-3.08,6.3-4.61,9.45l-.57,1.19-.06.12v.11c0,.08-.09.3-.12.45l-.28,1,.28-1.88,3.8-8.47-2.18.23c-.66,1.34-1.34,2.68-2,4l-1,2-.5,1-.12.26c0,.08,0,0,0,0v0c.05,0,0,.14,0,.25l-.06.34-.11.71a12.54,12.54,0,0,1-.84,3,3.16,3.16,0,0,1-.71,1.07,2.6,2.6,0,0,0,.36.13l-1.09,3c-.35,2.79-.86,6.17-1.54,10.21a4.9,4.9,0,0,0,.95,1.17,4.9,4.9,0,0,1-.95-1.17c-.42,2.37-.83,4.7-1.22,6.88l-.26,1.39c0,.16,0,.14-.07.14l-.07,0-.14,0a4.1,4.1,0,0,1-.61.11,6.58,6.58,0,0,1-1.34,0,13.36,13.36,0,0,1-3.27-.77,51.43,51.43,0,0,1-8.78-4.55c4.11,6.74,7.75,12.36,10.49,14.27.76.91,1.47,1.8,2.15,2.71.33.46.67.91,1,1.38l.48.7,0,0s0,0,0-.08l.06-.19.11-.39.22-.77a151.34,151.34,0,0,1,5.53-16.22c.34-.83.69-1.65,1.06-2.46q-1.14,6.62-2.89,15l.2-.48-.79,5,.59-4.49c-1.3,3.27-2.5,6.78-3.69,10.59l-.43,1.38,0,.17s0-.06-.06-.08l-.11-.2-.23-.38-.91-1.49c-.61-1-1.23-2-1.87-2.92-1.27-1.94-2.6-3.93-4-6.16a120.15,120.15,0,0,1-8.8-16.76c.64.68,1.27,1.32,1.88,1.91q-3.63-6.36-7.73-13.87l-.52-1-.25-.47a3.47,3.47,0,0,1-.17-.34l-.21-.41-1.61-3.3-3.24-6.59-6.47-13.19L340,506.9,346.69,524l-4.91-9.17c-.9-1.26-3.68-6.52-4.37-6.87-.87-.44,1.7,7.21,16.13,41.84l6.86,15.43-6.28-11.8c-2.36-4.53-4.73-9-7.05-13.24-4.65-8.5-9.19-16.26-13.67-23.12l4.28,14.42c6.73,13.89,13.26,28.51,19.34,43.1,4.05,9.72,8,19.62,11.88,29.89,3.18,8.35,6.34,17,9.53,25.9l4.81,13.64,2.42,7c.41,1.19.82,2.37,1.22,3.55,0,.06.05.2.08.18l.07-.1.14-.2.29-.38.58-.75c5.33-10.44,10.88-20.59,16.84-30.73,4.6-8,11.47-23.33,18.9-38.46l1.18-2.61-4.19,6.81,2.89-5.38c1-1.81,1.94-3.63,3-5.42L416.45,592.1c1.87-3.17,3.92-6.33,5.93-9.67s4.2-6.69,6.41-10.17l1.5-4-5.31,8.6c-1.75,2.79-3.34,5.64-5,8.35,3.51-6.38,7.38-12.82,11.36-19.53l.93-2.66c.18-.48.27-.8.39-1.18l.35-1.09c1.75-2.27,3.41-4.59,5.23-6.81l2.67-3.34,1.34-1.66,1.13-1.32m74.06,13.8c5.14,16.58,8.21,31.39,14.57,52.25-6.36-20.86-9.43-35.67-14.57-52.25l-2.07-6.62-1.57-4.35,1.57,4.35,2.07,6.62-1-.84-3.23-8.64-3.39-8.81,3.39,8.81,3.23,8.64,1,.84m-43-77.82q1.55-1.73,3-3.22l.7-.73.35-.35.17-.18c.06,0,.09.14.13.19l.92,1.95c1.28,3.06,2.46,6.05,3.58,9s2.1,5.83,3.12,8.64c2,5.62,3.91,10.94,6.32,16.25-2.41-5.31-4.29-10.63-6.32-16.25-1-2.81-2-5.72-3.12-8.64s-2.3-5.92-3.58-9l-.92-1.95c0-.05-.07-.21-.13-.19l-.17.18-.35.35-.7.73q-1.43,1.5-3,3.22m-9.1,10.88-.74.92c-2.54,2.84-4.9,5.85-7.32,8.85,2.42-3,4.78-6,7.32-8.85l.74-.92c1.33-1.46,2.61-2.83,3.83-4.13s2.51-2.46,3.7-3.61l3.54-3.29,1.72-1.54c.33-.58.46.35.67.73l.57,1.44c2.08,5.22,4.15,10.32,6.41,15.58-2.26-5.26-4.33-10.36-6.41-15.58l-.57-1.44c-.21-.38-.34-1.31-.67-.73l-1.72,1.54-3.54,3.29c-1.19,1.15-2.49,2.29-3.7,3.61s-2.5,2.67-3.83,4.13m46.3,55.6-3.27-6.18,3.27,6.18M371,585.54q-5-9.48-10.61-20.27Q366,576.06,371,585.54m0,0q-5-9.48-10.61-20.27Q366,576.06,371,585.54m0,0,1.48,3.05,1.56,2.69,1.44,3,1.42,2.41.14.26,1.34,2.72,1.44,2.41,1.36,2.75,1.38,2.26,1.34,2.2,1,1.82,1.29,2.06.63,1,.32.49.07.13,0,.06s0,.06,0,0l.15-.5.56-1.89.6-2.07.85-3.16,1.1-3.81.78-3.45c-1.15,3.25-2.25,6.59-3.34,10l-.55,1.75-.14.43-.14-.24-.29-.51-1.16-2c-.78-1.3-1.56-2.58-2.36-3.85l-4.92-7.76-.51-.85-.4-.58-1.78-2.87-.43-.73-1.51-2.59-.89-1.37L371,585.54M346.69,524l2.3,5.64,1.67,3.91,1.78,4.25,1.95,4.16,2.4,5.24,1.27,2.45.83,1.66.65,1.22,1.33,2.41,0,.06,1.63,2.86L360.9,555l1.63,2.86L360.9,555v0c.55,1,1.07,1.94,1.64,2.88-.68-1.12-1.38-2.42-2.07-3.75l-1-2.14-2.27-4.92-.76-1.65-2.18-4.91L353,537.61l-1.39-3c-1.65-3.7-3.29-7.31-4.91-10.6m214.76,97-.57.18.88,4.67-.31-4.85"/><path class="cls-4" d="M371,585.54c1.95,3.68,3.93,7.39,5.9,11.1l-1.42-2.41-1.44-3-1.56-2.69L371,585.54"/><path class="cls-4" d="M372.9,588.77l.89,1.37,1.51,2.59.43.73c-.92-1.48-1.86-3.05-2.83-4.69"/><path class="cls-4" d="M377.05,596.9c2,3.78,4,7.34,5.83,10.54.92,1.6,1.81,3.11,2.67,4.51l1.26,2,.31.47a1.39,1.39,0,0,0,.15.22l.15-.5.57-2q1.81-6.39,3.33-12.26l-.78,3.45-1.1,3.81-.85,3.16-.6,2.07-.56,1.89-.15.5c0,.07,0,0,0,0l0-.06-.07-.13-.32-.49-.63-1-1.29-2.06-1-1.82-1.34-2.2-1.38-2.26L379.83,602l-1.44-2.41-1.34-2.72"/><polyline class="cls-4" points="377.51 596.33 377.91 596.91 378.42 597.76 377.51 596.33"/><path class="cls-4" d="M512.43,500.19l.41.56.4,1.1-.81-1.66"/><path class="cls-4" d="M390.09,562.08a4.9,4.9,0,0,1-.95-1.17,4.9,4.9,0,0,0,.95,1.17"/><polyline class="cls-4" points="552.89 593.36 550.63 598.7 552.89 593.36"/><polyline class="cls-4" points="542.12 611.8 534.38 635.96 542.12 611.8"/><polyline class="cls-4" points="555.83 628.98 559.19 639 529.24 639.21 533.72 622.55 529.24 639.21 559.19 639 555.83 628.98"/><polyline class="cls-4" points="371.01 585.54 372.49 588.59 374.05 591.28 375.49 594.23 376.91 596.64 375.49 594.23 374.05 591.28 372.49 588.59 371.01 585.54"/><polyline class="cls-4" points="372.9 588.77 373.79 590.14 375.3 592.74 375.73 593.47 375.3 592.74 373.79 590.14 372.9 588.77"/><path class="cls-4" d="M377.05,596.9l1.34,2.72,1.44,2.41,1.36,2.75,1.38,2.26,1.34,2.2,1,1.82,1.29,2.06.63,1,.32.49.07.13,0,.06s0,.06,0,0l.15-.5.56-1.89.6-2.07.85-3.16,1.1-3.81.78-3.45-.78,3.45-1.1,3.81-.85,3.16-.6,2.07-.56,1.89-.15.5c0,.07,0,0,0,0l0-.06-.07-.13-.32-.49-.63-1-1.29-2.06-1-1.82-1.34-2.2-1.38-2.26L379.83,602l-1.44-2.41-1.34-2.72"/><polyline class="cls-4" points="377.51 596.33 377.91 596.91 378.42 597.76 377.91 596.91 377.51 596.33"/><path class="cls-4" d="M360.4,565.27Q366,576.06,371,585.54q-5-9.48-10.61-20.27"/><path class="cls-4" d="M360.4,565.27Q366,576.06,371,585.54q-5-9.48-10.61-20.27"/><path class="cls-4" d="M423.78,584.19c-7.43,15.13-14.3,30.43-18.9,38.46-6,10.14-11.51,20.29-16.84,30.73l-.58.75-.29.38-.14.2-.07.1s0-.12-.08-.18c-.4-1.18-.81-2.36-1.22-3.55l-2.42-7-4.81-13.64c-3.19-8.94-6.35-17.55-9.53-25.9,3.18,8.35,6.34,17,9.53,25.9l4.81,13.64,2.42,7c.41,1.19.82,2.37,1.22,3.55,0,.06.05.2.08.18l.07-.1.14-.2.29-.38.58-.75c5.33-10.44,10.88-20.59,16.84-30.73,4.6-8,11.47-23.33,18.9-38.46"/><path class="cls-4" d="M337.68,531.53c6.73,13.89,13.26,28.51,19.34,43.1-6.08-14.59-12.6-29.2-19.34-43.1"/><path class="cls-4" d="M352.44,537.84l-1.78-4.25c2.29,5.31,4.75,10.7,7.4,16.1l-1.27-2.45-2.4-5.24-1.95-4.16"/><path class="cls-4" d="M351.6,534.64l1.39,3,1.22,2.92-2.61-5.89"/><path class="cls-4" d="M356.39,545.44l.76,1.65,2.27,4.92,1,2.14-.86-1.71c-.3-.62-.52-1.05-.94-2-.74-1.65-1.5-3.32-2.27-5"/><path class="cls-4" d="M360.87,555l0,0v0l0-.06"/><polyline class="cls-4" points="338.66 497.49 339.73 499.53 338.66 497.49"/><path class="cls-4" d="M340,506.9c-10.32-26.85-18.72-53.25-29.22-80L320,441.73l-1.25-2c1.35,3.59,3.19,8.09,5.24,13l3.18,7.63c3.26,7.83,6.65,16.07,9.15,23.13l2.06,9.11-.18.08-.66,1.53-3.77-5.92,4.91,9.17,1.07,2,13.45,25.54L340,506.9"/><path class="cls-4" d="M324,452.75c-2.05-4.9-3.89-9.4-5.24-13,1.35,3.59,3.19,8.07,5.24,13l3.18,7.64L324,452.75"/><polyline class="cls-4" points="318.73 439.76 319.98 441.73 318.73 439.76"/><polyline class="cls-4" points="337.52 494.23 338.18 492.7 338.37 492.62 337.52 494.23"/><polyline class="cls-4" points="339.98 506.9 353.18 525.07 339.98 506.9"/><path class="cls-4" d="M326.18,507.34c-6.62-15.89-13.74-36.51-19.68-53.77,9.44,12.27,22.38,35.53,33.48,53.33L346.69,524l-4.91-9.17c-.9-1.26-3.68-6.52-4.37-6.87-.87-.44,1.7,7.21,16.13,41.84l6.86,15.43-6.28-11.8c-2.36-4.53-4.73-9-7.05-13.24-4.65-8.5-9.19-16.26-13.67-23.12l4.28,14.42-4.1-8.26c-1.74-3.2-3.59-7.08-5.49-11.44l-1.91-4.49"/><path class="cls-4" d="M333.4,517.11c4.48,6.86,9,14.62,13.67,23.12,2.32,4.24,4.69,8.71,7.05,13.24l6.28,11.8-6.28-11.8c-2.36-4.53-4.73-9-7.05-13.24-4.65-8.5-9.19-16.26-13.67-23.12"/><path class="cls-4" d="M337.41,508c.69.35,3.47,5.61,4.37,6.87l4.91,9.17-4.91-9.17c-.9-1.26-3.68-6.52-4.37-6.87"/><path class="cls-4" d="M346,564l-11.22-27.1q-16.29-39.54-32.21-79.21-4.35-12.21-9.33-24.15c-1.11-2.66-2.23-5.3-3.38-7.93.89-10.34,2.22-19.63,4.82-26.93l16.07,28.19c10.5,26.77,18.9,53.17,29.22,80-11.1-17.8-24-41.06-33.48-53.33,5.94,17.26,13.06,37.88,19.68,53.77h0l1.91,4.48c1.9,4.36,3.75,8.24,5.49,11.44l4.1,8.26c1.44,4.77,3.08,9.66,4.85,14.66s3.63,9.94,5.85,15.62c4.35,11.14,9.17,22.75,14.06,34.5l2.46,5.9,7.93,19.16c2.72,6.65,5.44,13.4,8.15,20.37l1.22,7.6C370.26,621.76,358.05,592.9,346,564"/><path class="cls-4" d="M346,564c12,28.89,24.25,57.75,36.19,85.33C370.26,621.75,358.05,592.9,346,564"/><path class="cls-4" d="M334.79,536.91q-16.29-39.54-32.21-79.21,16,39.66,32.21,79.21"/><path class="cls-4" d="M372.83,621.37l-7.93-19.16-2.46-5.9c-4.89-11.75-9.71-23.36-14.06-34.5,4.35,11.14,9.17,22.75,14.06,34.5q1.23,2.93,2.46,5.9l7.93,19.16"/><path class="cls-4" d="M326.18,507.35h0l1.91,4.49-1.91-4.48"/><path class="cls-4" d="M306.5,453.57c9.44,12.27,22.38,35.53,33.48,53.33-11.1-17.8-24-41.06-33.48-53.33"/><path class="cls-4" d="M302.58,457.7l-12.71-32.08c1.15,2.63,2.27,5.27,3.38,7.93q5,11.93,9.33,24.15"/><polyline class="cls-4" points="302.58 457.7 289.87 425.62 302.58 457.7"/></g><g class="cls-3"><path class="cls-4" d="M801.69,400a47.93,47.93,0,0,1,16.63.11l6.55-4.27-10.71,11.42c-18,21.43-38.77,49.72-55.35,65.87,4.11-5.32,8.65-11.89,12.94-18.18l4.18-6.13c2.69-3.94,5.16-7.52,7.21-10.28l-.83,1.93,6.4-14.36,8.89-12.67-8.89,12.67,13-26.11"/><path class="cls-4" d="M607.27,516.42l.37-.93-.57,5.91c-5.06,22.15-10.72,45.09-16.15,68.08-3.47,13.65-7.36,27.46-11.49,41.37s-8.54,27.9-13.13,41.75c-1.83,5.53-3.71,11.08-5.59,16.55q5.35-21.21,10.15-40.84l1-3.14c3.75-11.38,7.21-22.74,10.43-33.87s6.21-22,9-32.76,5.41-21.18,8-31.48,5.17-20.41,7.93-30.64"/><path class="cls-4" d="M563.44,709.44q-2.43,8.38-4.93,17c-.84,2.88-1.7,5.78-2.56,8.7l-2.47,8-11.55-28.95c-4-10.28-8.12-20.65-12.19-31l.39-4.22c3.37,8.94,6.86,17.73,10.37,26.69q2.6,6.74,5.24,13.56c1.74,4.58,3.48,9.26,5.23,14.14.81,2.3,1.63,4.6,2.44,6.91l2.84-7.31a19.88,19.88,0,0,1-1.21,2.18l.51-1.42.25-.71.26-.82,1.06-3.26,2.12-6.51,4.2-13"/><polyline class="cls-4" points="540.36 698.56 529.83 672.79 528.53 668.02 540.36 698.56"/><path class="cls-4" d="M575.48,498.58c.45-.9.85-1.55,1.45-3l-.44,1.21-.34.87-.67,1.66v-.75"/><polyline class="cls-4" points="545.31 519.1 545.95 523.65 545.31 519.1"/><polyline class="cls-4" points="545.95 523.65 546.07 523.97 545.95 523.65"/><polyline class="cls-4" points="479.72 508.79 480.7 513.9 479.72 508.79"/><polyline class="cls-4" points="539.96 517.12 540.09 518.58 539.96 517.12"/><path class="cls-4" d="M652.77,675.53q1.49,3.44,3,7.23,2,4.74,4,9.92l.05-.09-.05.09q-2-5.17-4-9.92-1.51-3.79-3-7.23"/><polyline class="cls-4" points="576.93 495.59 580.64 488.1 576.93 495.59"/><polyline class="cls-4" points="482.43 527.37 486.59 539.69 482.91 529.16 482.43 527.37"/><polyline class="cls-4" points="477.37 499.82 479.72 508.79 477.98 502.88 477.37 499.82"/><path class="cls-4" d="M509.19,602.16c-2.57-6.21-5.21-12.24-7.89-18.41l-1.22-3.83,1.22,3.83-1.22-3.83.12-.24c3,7.53,6.06,14.85,9,22.48"/><path class="cls-4" d="M477.5,509.69l1.55,6.53.1.43.22.71.44,1.41.88,2.85,1.74,5.74,4.16,12.33-3.68-10.53q2.67,8.7,5.62,18l6.14,19.2q3.15,10,6.59,20.51l7.08,21.67,1.85,2.19c-4.37-12.83-8.81-25.05-13.19-37.3l4.3,10.33-1.22-3.83-2.55-7.38,2.67,7.14-6-18.79-6-18,4.32,14.95-5.65-18.37,1.33,3.42-4.6-16.19L479.7,516l-2.2-6.27m9.42,29.73L485.58,536l1.34,3.42"/><polyline class="cls-4" points="482.91 529.16 486.59 539.69 482.91 529.16"/><polyline class="cls-4" points="500.08 579.92 501.31 583.75 500.08 579.92"/><path class="cls-4" d="M471.92,485.48l1.57,4.88,2.16,6.84,2.75,10.47,1.36,5.23.68,2.62.08.33,0,.16.09.27.35,1.11.71,2.24,1.94,7L479.7,516l-2.2-6.27c-1.8-8.08-3.72-16.13-5.58-24.21"/><polyline class="cls-4" points="497.53 572.54 500.2 579.68 500.08 579.92 497.53 572.54"/><polyline class="cls-4" points="497.53 572.54 500.2 579.68 497.53 572.54"/><polyline class="cls-4" points="471.32 483.51 472.73 487.27 473.49 490.36 471.92 485.48 471.32 483.51"/><polyline class="cls-4" points="472.49 486.34 472.73 487.27 472.49 486.34"/><polyline class="cls-4" points="473.35 488.95 477.37 499.82 475.05 494.14 473.35 488.95"/><polyline class="cls-4" points="500.08 579.92 501.31 583.75 500.08 579.92"/><polyline class="cls-4" points="472.49 486.34 473.35 488.95 472.49 486.34"/><polyline class="cls-4" points="472.73 487.27 473.35 488.95 475.05 494.14 475.65 497.2 473.49 490.36 475.65 497.2 473.49 490.36 472.73 487.27"/><polyline class="cls-4" points="472.49 486.34 473.35 488.95 472.73 487.27 472.49 486.34"/><polyline class="cls-4" points="473.35 488.95 475.05 494.14 473.35 488.95"/><polyline class="cls-4" points="473.49 490.36 475.65 497.2 473.49 490.36"/><polyline class="cls-4" points="475.05 494.14 477.37 499.82 477.98 502.88 475.05 494.14"/><polyline class="cls-4" points="477.37 499.82 477.98 502.88 477.37 499.82"/><polyline class="cls-4" points="475.05 494.14 477.37 499.82 475.05 494.14"/><polyline class="cls-4" points="475.05 494.14 477.98 502.88 478.78 508.07 476.04 498.15 475.65 497.2 475.05 494.14"/><polyline class="cls-4" points="475.05 494.14 477.98 502.88 475.05 494.14"/><polyline class="cls-4" points="485.58 536 486.92 539.42 485.58 536"/><polyline class="cls-4" points="486.92 539.42 488.25 542.84 492.57 557.79 486.92 539.42"/><polyline class="cls-4" points="486.92 539.42 488.25 542.84 486.92 539.42"/><polyline class="cls-4" points="488.25 542.84 492.57 557.79 488.25 542.84"/><polyline class="cls-4" points="481.71 519.63 485.12 529.87 483.65 526.65 481.71 519.63"/><path class="cls-4" d="M475.65,497.2l.39.95,2.56,10,1.26,5,.62,2.5.08.31.15.48.33,1.06.67,2.14-.71-2.24-.35-1.11-.09-.27,0-.16-.08-.33-.68-2.62-1.36-5.23-2.75-10.47"/><polyline class="cls-4" points="475.65 497.2 476.04 498.15 475.65 497.2 476.04 498.15 475.65 497.2"/><polyline class="cls-4" points="475.65 497.2 476.04 498.15 475.65 497.2"/><path class="cls-4" d="M536.59,543.81q1.57,7,3.39,14.69l-4-15.72.6,1"/><path class="cls-4" d="M538.65,547.09c.84,5.24,1.83,10.82,2.9,16.75-1.47-6.62-2.84-12.84-4-18.69l1.14,1.94"/><path class="cls-4" d="M542.77,540.78c1.19,3.51,2.35,6.94,3.48,10.64s2.17,7.71,3.26,12.54l.85,3.94-.83-2.75-3.13-10.51.21.57-3.84-14.43"/><polyline class="cls-4" points="542.76 540.78 546.61 555.21 546.4 554.64 542.76 540.78"/><polyline class="cls-4" points="542.76 540.78 546.61 555.21 542.76 540.78"/><polyline class="cls-4" points="539.71 549.38 540.73 554.9 538.65 547.09 539.71 549.38"/><polyline class="cls-4" points="528.77 522.87 530.14 527.49 528.77 522.87"/><path class="cls-4" d="M443.21,340.86l-2.75-4.42-4.53-5.86c1.88,5.4,3.76,10.79,5.84,16.37s4.29,11.38,6.93,17.54l-1-4.08c3,6.59,5.06,12.44,7,18.06s3.75,11,6,16.82c-4.95-17-13.35-38.12-17.5-54.43"/><polyline class="cls-4" points="471.13 414.35 472.62 418.21 471.13 414.35"/><polyline class="cls-4" points="448.7 364.49 451.11 370.2 448.7 364.49"/><polyline class="cls-4" points="469.19 408.44 471.13 414.35 469.19 408.44"/><polyline class="cls-4" points="525.99 530.55 527.64 535.91 528.92 542.55 525.74 531.01 525.99 530.55"/><polyline class="cls-4" points="526.24 530.08 527.64 535.91 525.99 530.55 526.24 530.08"/><polyline class="cls-4" points="527.26 525.57 528.22 530.25 530.66 542.67 526.85 528.91 527.26 525.57"/><polyline class="cls-4" points="527.38 525.34 528.22 530.25 527.26 525.57 527.38 525.34"/><path class="cls-4" d="M527.48,524c.84,4.17,1.78,8.57,2.78,13.22l-2-6.92-.84-4.91.1-1.39"/><path class="cls-4" d="M525.74,531l3.18,11.54-1.27-6.64c1.57,4.89,3.35,10.17,5.16,15.6s3.57,11.07,5.22,16.86c-2-4.31-3.94-9.27-5.91-14.38-1.68-4.4-3.3-9-4.92-13.47l-4.89-13.4c1.18,1.39,2.33,2.69,3.43,3.89"/><polyline class="cls-4" points="525.74 531.01 528.92 542.55 525.74 531.01"/><path class="cls-4" d="M520.35,523.2c2.11,7,4.58,14.63,6.86,22.3s4.41,15.45,5.95,23.26c-.4-1.06-.8-2.08-1.19-3.1-3.83-10.08-6.64-19.92-9.3-29.06a280.37,280.37,0,0,0-8.76-27l-.6-1.48c1,4.87,2.66,11.35,4.52,18.2s3.76,14.1,5.2,20.32c-2.66-9.1-5-17.62-7.09-25.51q-1.59-5.92-3-11.43t-2.82-11l5.23,12.5,5,12"/><path class="cls-4" d="M525.44,552.39c2,8.9,4.27,18.42,6.67,28.67l-3.35-11.32q-1.82-9.12-3.32-17.35"/><polyline class="cls-4" points="543.2 618.91 544.46 622.96 544.87 624.69 543.2 618.91"/><path class="cls-4" d="M536,593.41l1.93,7,5.23,18.49,1.26,4.05L536,593.41m1.93,7,5.23,18.49L538,600.42"/><path class="cls-4" d="M528.76,569.74l3.35,11.32L538,600.42l5.23,18.49,1.67,5.78-.41-1.73,7,28c.41.78.82,1.52,1.23,2.24l-1.2-.87L542.91,627c-4.71-20.12-10.21-40.41-14.15-57.25"/><polyline class="cls-4" points="528.76 569.74 532.12 581.05 528.76 569.74"/><polyline class="cls-4" points="543.2 618.91 544.87 624.69 543.2 618.91"/><polyline class="cls-4" points="537.97 600.42 543.2 618.91 537.97 600.42"/><polyline class="cls-4" points="537.97 600.42 543.2 618.91 537.97 600.42"/><path class="cls-4" d="M545.54,638.39q3.12,9.83,6.05,19.52l.94.83.46.41.24.2.11.11s0,0,.06,0l.05-.12q.91-2,1.8-3.87c1.17-2.44,2.32-4.6,3.4-6.41L555.22,660l-.86,2.75-.43,1.38-.22.69-.11.34,0,.08h-.08l-1.74.51-3.94-10.4a13.63,13.63,0,0,0,1.43.43l-3.71-17.43"/><path class="cls-4" d="M641,506.84c.46,3,.9,6.05,1.4,9.07L641,513.19l0-6.35"/><path class="cls-4" d="M732.66,439c16.92-13.44,31.67-23.35,45.17-30.36L759.9,433.9c-20,26.79-42.74,51.68-48.09,47.47-.77-.61-1.18-1.8-1.17-3.67,8.22-13.12,15.62-26.8,22-38.66"/><path class="cls-4" d="M673.15,531.33l1.5-.9c-1.47,3.84-.92,6.55-4.47,13,0-3.82,1.61-8.08,3-12.07"/><path class="cls-4" d="M685.73,508.16c6.93-5.31,13.76-13.9,20.23-23.38,1.58-2.32,3.14-4.69,4.68-7.08,0,1.87.4,3.06,1.17,3.67,5.35,4.21,28.11-20.68,48.09-47.47q-22,31.38-43.84,62.93L701.6,517.92l-5.21,7.67-4.9,7.3q-4.43,6.68-8.72,13.49t-8.32,14c-2.67,4.76-5.27,9.61-7.74,14.62a10.47,10.47,0,0,0,1.51.63c2.55-4.54,5.27-9.23,8.1-13.9s5.59-9.11,8.44-13.59l2.69-4.18c2.71-4.14,5.41-8.21,8.16-12.2q4.41-6.45,8.82-12.56c5.86-8.11,11.67-15.73,17.49-22.51-7.06,11.93-14.81,24-22.86,35.83l-15.92,23.38c-8.6,12.65-16.2,24.38-21.62,33.65-1.06,1.89-2.12,3.65-3,5.34l-.69,1.23-.34.59s0,.09,0,0l-.05-.14-.09-.29-.19-.56-1.45-4.46c-1.9-5.89-3.56-11.53-5-16.86-2.34-8.45-5.82-18.26-9.07-27.62q2.36,6.54,4.92,13.17c.5-.41,1-.84,1.47-1.31q-2.4-11.37-3.73-20.63l1.2,4.16c1.58,5,3.27,10.26,5.14,15.65,1.68,4.85,3.51,9.82,5.43,14.93.6,1.61,1.22,3.17,1.84,4.66l.48,1.12.11.27.06.14,0,0v0l0-.06.21-.5.85-2.07h0c.66-1.71,1.45-3.45,2.18-5.29,3.21-7.62,6.78-15.89,10.65-23.56-2.1,2.92-4.07,5.77-5.86,8.56-1,.65-1.4.33-1.52-.58-.25-2,.89-6.74,2.36-11.33a89.31,89.31,0,0,1,5-12.37l.72-.4c-1.36,4-3,8.25-3,12.07,3.55-6.42,3-9.13,4.47-13a16.16,16.16,0,0,0,2.58.41q2.79-2.48,6-5.49c0,1.4.5,1.69,1.29,1.26a7.35,7.35,0,0,0,1.39-1.09c.11-.09.33-.35.51-.55l.58-.67,1.22-1.42c3.3-3.88,6.91-8.29,7.48-6.65l15.61-19.33,5.08-12.76c-13.11,13.53-27,27.8-30.68,24"/><path class="cls-4" d="M711.81,481.37c5.35,4.21,28.11-20.68,48.09-47.47-20,26.79-42.74,51.68-48.09,47.47"/><path class="cls-4" d="M674.65,530.43c-1.47,3.84-.92,6.55-4.47,13,3.55-6.42,3-9.13,4.47-13"/><path class="cls-4" d="M642.92,527.61c.33,3.22.79,6.68,1.36,10.39l1.2,4.16c1.58,5,3.27,10.26,5.14,15.65l.44,0q-2.26-7.38-4.1-14.14c1.66,4.32,3.41,8.64,5.2,13-.76-3.63-1.69-6.86-2.67-10l-3-9.22q-1.83-4.92-3.53-9.8m2.56,14.55c1.58,5,3.27,10.26,5.14,15.65-1.87-5.39-3.56-10.61-5.14-15.65"/><path class="cls-4" d="M645.48,542.16c1.58,5,3.27,10.26,5.14,15.65-1.87-5.39-3.56-10.61-5.14-15.65"/><path class="cls-4" d="M673.73,529.67c.3.26.61.52.92.76l-1.5.9.58-1.66"/><polyline class="cls-4" points="751.09 479.09 752.83 479.02 751.09 479.09"/><path class="cls-5" d="M662.87,509.78a15.89,15.89,0,0,0,2.55,4.42,38.61,38.61,0,0,1,3.07,4.54,45,45,0,0,1,2.59,5.63,21.67,21.67,0,0,0,2.65,5.3l-.58,1.66-.72.4a89.31,89.31,0,0,0-5,12.37c-1.47,4.59-2.61,9.31-2.36,11.33.12.91.57,1.23,1.52.58,1.79-2.79,3.76-5.64,5.86-8.56-3.87,7.67-7.44,15.94-10.65,23.56-.73,1.84-1.52,3.58-2.18,5.29l-.85,2.07-.21.5,0,.06v0l0,0-.06-.14-.11-.27-.48-1.12c-.62-1.49-1.24-3-1.84-4.66-1.92-5.11-3.75-10.08-5.43-14.93l.44,0q2.28,6.39,4.84,13.05a138.54,138.54,0,0,0-4.23-14.48c-1.54-4.45-3.19-8.64-4.71-12.71,1.66,4.32,3.41,8.64,5.2,13-.76-3.63-1.69-6.86-2.67-10l-3-9.22c.45.2.88.37,1.3.52a101,101,0,0,1,.41-10.13c.63,4.33,1.52,9.13,2.64,14.39a13,13,0,0,0,2.62.88c0-4.58.16-9.26.47-13.52s.71-8.06,1.06-11.11a84.47,84.47,0,0,0,.12,15.29,87.59,87.59,0,0,0,1.69,10.37c.41,1.85.92,3.74,1.47,5.66.28,1,.59,1.92.91,2.89.17.48.33,1,.5,1.45.09.24.17.48.26.73l.13.36s.08-.13.12-.2l.57-4.92a3.09,3.09,0,0,0,.94.1,11.47,11.47,0,0,0-.88-2.3l-.23-.43,0-.05,0-.23-.07-.45-.12-.9c-.16-1.15-.31-2.31-.47-3.47a64.2,64.2,0,0,1-.62-12.38q.4,5.16,1.45,11.56c.1-2.65-.07-5.5-.18-8.09a63.78,63.78,0,0,1,0-7c.17,3.33.23,8.05.46,13l.05.93,0,.54.1,1c.07.61.15,1.16.25,1.62.2.91.52,1.44.93,1.33s.89-.71,1.51-2l.15-.31.23-.46a40.72,40.72,0,0,0,3.26-8.51,17.51,17.51,0,0,0,.38-6.71c-.59-3.85-2.49-6.82-3.6-10.18a3.37,3.37,0,0,0,.7.71,7.46,7.46,0,0,0-.74-3.82c-.49-1.22-.94-2.64-1.3-3.76"/><path class="cls-4" d="M665.11,555.43c.12.91.57,1.23,1.52.58,1.79-2.79,3.76-5.64,5.86-8.56-2.1,2.92-4.07,5.77-5.86,8.56-1,.65-1.4.33-1.52-.58"/><path class="cls-4" d="M672.49,547.45c-3.87,7.67-7.44,15.94-10.65,23.56-.73,1.84-1.52,3.58-2.18,5.29.66-1.71,1.45-3.45,2.18-5.29,3.21-7.62,6.78-15.89,10.65-23.56"/><path class="cls-4" d="M647,543.64c1.66,4.32,3.41,8.64,5.2,13-1.79-4.34-3.54-8.66-5.2-13"/><polyline class="cls-4" points="651.06 557.78 650.62 557.81 651.06 557.78"/><path class="cls-5" d="M633.18,521.8l-.7-1.4-.86-1.84-2.78-4.45q.78,3,1.6,5.93-.83-3-1.6-5.93l-1.84-.46,1.27,7.14,1.1,6.47L627.46,520c.37,2.16.56,3.84.85,5.77l.91,5.82c-1.24-4.8-2.22-9-3.51-14.24l-1,.32.92,5.11c1.5,5.57,3.39,11.41,5.28,17.21s3.81,11.59,5.46,17.43c-2.07-4.51-4-9.31-5.87-14.22-3.92-10.45-7.25-21.09-10.87-32.51L618,506.89c.9,3.77,1.92,7.65,3,11.52s2.12,7.82,3.14,11.6c2.1,7.72,4.06,15.32,5.36,22.2l-1.32-3.33c-2-5.4-3.76-10.57-5.18-15.51-.73-2.47-1.39-4.89-2-7.26-.29-1.15-.58-2.29-.86-3.43l-.81-3.34c-2.14-8.9-4.12-17.86-7.27-28.22l-.51-1.64c.63,5.19,1.84,11.85,3.17,18.49.67,3.33,1.33,6.65,2,9.78.3,1.58.6,3.1.88,4.56s.54,2.93.78,4.26c-.25-1.06-.51-2.11-.77-3.15s-.47-2-.7-3q-.68-3-1.33-6c-.84-4-1.65-7.89-2.38-11.8-1.5-7.8-2.74-15.51-4-23.21-.19-.67-.4-1.33-.62-2A25.79,25.79,0,0,0,605,469.5a12.46,12.46,0,0,0-3-3,11.72,11.72,0,0,0-3.79-1.67l-.95-.24-.33,1.06c-2.18,7.07-4.29,13.78-6.39,20.3s-4.1,12.58-6.12,18.79l2.11-5.14,2.2-5.54L593,482.92,588.67,494l-2.2,5.54-2.11,5.14c-4.48,13.05-8.74,24.83-12.88,35.56s-8.16,20.38-12.06,28.83a110.72,110.72,0,0,0,7.36-10.34,217.41,217.41,0,0,1-5.5,22.83c-2.09,7.22-4.23,13.95-6.13,21.08,3.32-7.7,6.59-14.59,10-22.24s6.73-16,10.12-25.81c-3.39,9.78-6.79,18.11-10.12,25.81s-6.63,14.54-10,22.24L554,607a39.63,39.63,0,0,0,4.66-7.13c1.64-3.1,3.37-6.79,5.11-10.64,3.51-7.74,7.1-16.24,10.59-23.53-2.17,6-4.31,10.86-6.44,15.82s-4.27,10-6.6,17l1.56-2.3,2.08-5.83-2.08,5.83c-2.23,6.29-4.34,11.52-6.35,16-1,2.26-2,4.35-2.94,6.31l-.71,1.46-.35.71-.18.35-.09.18,0,.08s0,.11,0,0q-.75-2.64-1.48-5.28l0-.18a37.51,37.51,0,0,1-7.09-9,116,116,0,0,1-8.55-18l-2.86-7.7L538,600.42l-1.93-7L544.46,623l7,28c.41.78.82,1.52,1.23,2.24l-1.2-.87L542.91,627l2.63,11.4q3.12,9.83,6.05,19.52l.94.83.46.41.24.2.11.11s0,0,.06,0l.05-.12q.91-2,1.8-3.87c1.17-2.44,2.32-4.6,3.4-6.41L555.22,660l-.86,2.75-.43,1.38-.22.69-.11.34,0,.08h-.08l-1.74.51-3.94-10.4-3.5-5.87-3.69-6.39.67,11.92c2.6,11.77,6.38,25.87,11.14,41.21.35-.28.71-.6,1.08-.94l.56-.53.28-.28.14-.15a1.9,1.9,0,0,0,.14-.33c.78-2,1.57-4.18,2.39-6.43,1.64-4.51,3.34-9.42,5.07-14.64l1.52-4.63-1.15-6.07c1-.76,1.93-1.58,2.92-2.47l3.78-18.45,4.45-12.28a197.69,197.69,0,0,1,7.65-30.92c1.6-5,3.34-9.93,5.09-14.92s3.51-10,5.16-15.07c-1.12,2.55-2.26,5-3.37,7.42a93.49,93.49,0,0,1,3.75-17.86c2.59-8.52,6.07-16.91,8.68-24.6,2.22-5.37,4.43-11,6.69-16.69.15-.58.29-1.1.44-1.65l-.07.72.25-.64L614,495l3.59-8.74,2.32-4.79-2.32,4.79-2.19,5.88,2.5-4.72-3.68,9.8q4-9.71,7.91-19.47l1.8-5.11-27.83,3.42a2.37,2.37,0,0,1,.08-.42l0-.12v0l0,.12a2.37,2.37,0,0,0-.08.42l28.16-3.34,0,.19.08-.17-28.21,3.32c.17-1,.37-.82-.34.14a20.49,20.49,0,0,1-5.15,4.49,26.93,26.93,0,0,1-2.56,1.58,33.6,33.6,0,0,1-3.14,1.68c-1.26.67-2.52,1.27-3.84,1.82l-.58.27-.27.12h0l0,0s0,0-.05,0a2.16,2.16,0,0,0,0,.27V487a11.42,11.42,0,0,0,.12,1.34l1.82,10c1.53,4.38,3.08,8.75,4.68,13.1-1.44-3.66-2.87-7.32-4.25-11-.75-2-1.5-4-2.23-6Q583,504.77,586,515.05l-1.28-.72c1,4.17,2.28,8.85,3.74,13.73.36,1.22.73,2.46,1.11,3.71s.87,2.79,1.32,4.2c1.45,4.41,3,8.79,4.56,13.18l.64,1.74,2.92,7.29,3,7.16c1,2.37,2,4.77,3,7.11l3.06,7c-1.85-4-3.74-8-5.55-12.2L599.74,561l-1.39-3.15-1.34-3.2-.87,2.84c3.35,8.54,7,17.13,10.85,25.56,1.87,4.28,3.84,8.4,5.76,12.62l5.78,12.63q1.4,3.16,2.8,6.33c.93,2.12,1.85,4.26,2.76,6.44l-1.27-3.75L633.94,641c3.28,6.19,6.48,12.14,9.63,18q2.37,4.31,4.69,8.56l2.31,4.19,1.14,2.06.57,1c.09.16.19.35.28.49l.21.2-.23-.54-.29-.86-.6-1.71L650.47,669l-2.34-6.74,2.34,6.74,1.18,3.41.6,1.71.29.86.23.54c1.11,1.05,2.17,2,3.26,2.87,1.35,1.45,2.67,2.77,3.92,3.93q7.83-22.11,15.14-42.8L687.93,603c1.89-5.6,3.72-10.31,5.44-15l.64-1.75c.21-.57.44-1.08.66-1.61l1.29-3.16,2.46-6.08L703,564.49c1.48-3.36,2.8-6.59,4.06-9.58a326.31,326.31,0,0,0-15.49,29.9c-1.21,2.84-2.41,5.6-3.59,8.51s-2.36,6.08-3.51,9.06L681,611.67l-1.73,4.68c-.57,1.6-1.15,3.19-1.71,4.76-5.78,15.07-11.54,30.14-17.36,45.33-.88-.68-1.76-1.4-2.64-2.15l-.66-.56-.34-.29-.26-.16-1.07-.65-1.07-.68-.54-.35-.13-.09s-.09,0-.15-.17l-.34-.7L650.24,655c-1.86-3.85-3.7-7.71-5.54-11.62s-3.68-7.89-5.51-11.89l-4.06-9,7.36,12.29,7.17,11.77-.65-1.4,3.42,4.54-2.77-3.14,3,6.44.75,1.57.37.78c.1.06.19.09.29.14l1.15.51,1.14.45a6,6,0,0,1,.58.24l.69.46c.91.59,1.82,1.14,2.71,1.65,4.45-11.44,8.74-22.44,12.93-33.22s8.24-20.91,12.09-30.29l1.44-3.52.72-1.75.73-1.64,2.9-6.5c.24-.53.48-1.09.73-1.6l.75-1.49,1.51-3c1-2,2-4,3.05-5.84s2.09-3.74,3.15-5.62,2.16-3.65,3.26-5.48c2.18-3.67,4.5-7.21,6.85-10.84l-3.36,6.92,4.93-8.28,1.24-2,.53-.89.4-.7,1.64-2.82,6.62-11.33,13.34-22.74L742.55,487l-9.63,13.41,4.41-8.23c.47-1.32,3-6,2.9-6.73-.15-.91-4.69,4.73-23.66,32.52L707,532.66c9.69-17.07,18.11-32.58,23.76-46.19l-8.88,10.17c-7.06,11.92-14.81,24-22.86,35.83l-15.92,23.38c-8.6,12.65-16.2,24.38-21.62,33.65-1.06,1.89-2.12,3.65-3,5.34l-.69,1.23-.34.59s0,.09,0,0l-.05-.14-.09-.29-.19-.56-1.45-4.46c-1.9-5.89-3.56-11.53-5-16.86-2.34-8.45-5.82-18.26-9.07-27.62l-.58-1.48c.36,1.84.73,3.74,1.15,5.67l-2.17-7.7c.63,4.57,1.4,9.48,2.35,14.7q-2.19-9.19-3.79-17.32l-1.17-1.94c1,4.42,2,9,3.23,13.9l-2.09-7.8-1.88-7.47-1.79-2.53q-1.1-7-1.7-13m-55.46,24.54c-2.8,6.88-5.49,12.58-8.19,18.35s-5.42,11.64-8.36,19.48c2.94-7.84,5.64-13.7,8.36-19.48s5.39-11.47,8.19-18.35l2.28-5.55,1.39-4-1.39,4-2.28,5.55-.09-1.78,5.3-15.88-5.3,15.88.09,1.78m23.82-77.28a9.47,9.47,0,0,0-3.8-2l1.39-.9c-3.65,11.2-8.14,18.91-11.43,30.23,3.29-11.32,7.78-19,11.43-30.23l-1.39.9a9.47,9.47,0,0,1,3.8,2m5.62,9.9.29,1,2.54,10-2.54-10-.29-1a29.77,29.77,0,0,0-2.95-8.13,10.72,10.72,0,0,0-6.22-5.14l-.16-.05-.08.2c-1.89,5-3.75,10-5.61,15.77,1.86-5.77,3.72-10.78,5.61-15.77l.08-.2.16.05a10.72,10.72,0,0,1,6.22,5.14,29.77,29.77,0,0,1,2.95,8.13M580.37,533.9l1.31-6.63-1.31,6.63M691.54,560c2.68-5,5.37-9.82,8.06-14.5L707,532.66l-7.44,12.88c-2.69,4.68-5.38,9.49-8.06,14.5m0,0c2.68-5,5.37-9.82,8.06-14.5L707,532.66l-7.44,12.88c-2.69,4.68-5.38,9.49-8.06,14.5m0,0c-.86,1.48-1.68,3.06-2.52,4.61s-1.62,3.22-2.41,5l-2.47,5c-.76,1.64-1.5,3.41-2.25,5.18l-.23.54-2.36,5.11-2.42,5.87L674.39,597l-2.46,6.19-2.47,6.35q-.94,2.29-1.86,4.62l-2.48,6.59-2.45,6.68-1.87,5.17-.51.35c-.54.47-1.09.91-1.65,1.33l-.55.33a2.06,2.06,0,0,0-.52.37l-.94.89c-.48.66-1,1.29-1.45,1.89.89-.45,1.73-1,2.62-1.5a24,24,0,0,0,3-1c3.41-8.89,6.71-17.64,9.94-25.91s6.29-16.08,9.25-23.42l.86-2,.63-1.59c.47-1.14,1-2.29,1.42-3.44l.71-1.71.72-1.63.69-1.52c.8-1.76,1.58-3.54,2.38-5.23l1.32-2.84c1-2,1.88-4,2.87-5.81m41.38-59.64c-1,1.46-2.08,3-3.12,4.48-.69,1.05-1.4,2.12-2.11,3.18l-2.33,3.41L723.21,515l-2.75,4.38-1.2,2.17q-1.69,2.9-3.33,5.87l0,.07-2,3.63,2-3.63-2,3.63,2-3.63,0,0c-.68,1.22-1.36,2.42-2,3.66.78-1.49,1.69-3.08,2.63-4.67l1.52-2.48,2.74-4.37.85-1.39c.87-1.33,1.74-2.69,2.62-4.05l1.6-2.34,1.54-2.51c2-3.06,3.86-6.06,5.52-8.9M562.47,662.26l-.13-1.51-2,4.27,2.17-2.76"/><path class="cls-4" d="M691.54,560c-.83,1.49-1.61,3.08-2.43,4.64s-1.63,3.12-2.43,4.78c-1.58,3.37-3.21,6.66-4.79,10.32.75-1.77,1.49-3.54,2.25-5.18l2.47-5c.79-1.74,1.62-3.32,2.41-5s1.66-3.13,2.52-4.61"/><path class="cls-4" d="M688.67,565.85l-1.32,2.84c-.8,1.69-1.58,3.47-2.38,5.23l-.69,1.52c1.46-3.28,2.88-6.6,4.39-9.59"/><path class="cls-4" d="M681.66,580.32c-7.06,15.84-14.37,34-20.87,52.51-1,.79-2,1.52-3,2.2-.86.94-1.72,1.84-2.56,2.68.49-.6,1-1.23,1.45-1.89l.94-.89a2.06,2.06,0,0,1,.52-.37l.55-.33c.56-.42,1.11-.86,1.65-1.33l.51-.35,1.87-5.17,2.45-6.68,2.48-6.59q.92-2.33,1.86-4.62l2.47-6.35,2.46-6.19,2.49-5.65,2.42-5.87,2.36-5.11"/><path class="cls-4" d="M681.43,582.22l-.63,1.59-.86,2,1.49-3.63"/><path class="cls-4" d="M607.71,514.77l-.07.72-.37.93c.15-.58.29-1.1.44-1.65"/><polyline class="cls-4" points="648.13 662.27 650.47 669.01 651.65 672.42 652.25 674.13 652.54 674.99 652.77 675.53 652.54 674.99 652.25 674.13 651.65 672.42 650.47 669.01 648.13 662.27"/><polyline class="cls-4" points="536.04 593.41 537.97 600.42 536.04 593.41"/><polyline class="cls-4" points="542.91 626.99 551.46 652.3 552.66 653.17 551.46 652.3 542.91 626.99"/><polyline class="cls-4" points="558.65 649.08 555.22 660.02 554.36 662.77 553.93 664.15 553.71 664.84 553.6 665.18 553.58 665.26 553.55 665.27 553.5 665.28 551.76 665.79 547.82 655.39 551.76 665.79 553.5 665.28 553.55 665.27 553.58 665.26 553.6 665.18 553.71 664.84 553.93 664.15 554.36 662.77 555.22 660.02 558.65 649.08"/><path class="cls-4" d="M691.54,560c-.86,1.48-1.68,3.06-2.52,4.61s-1.62,3.22-2.41,5l-2.47,5c-.76,1.64-1.5,3.41-2.25,5.18.75-1.77,1.49-3.54,2.25-5.18l2.47-5c.79-1.74,1.62-3.32,2.41-5s1.66-3.13,2.52-4.61"/><path class="cls-4" d="M688.67,565.85l-1.32,2.84c-.8,1.69-1.58,3.47-2.38,5.23l-.69,1.52.69-1.52c.8-1.76,1.58-3.54,2.38-5.23l1.32-2.84"/><path class="cls-4" d="M681.66,580.32l-2.36,5.11-2.42,5.87L674.39,597l-2.46,6.19-2.47,6.35q-.94,2.29-1.86,4.62l-2.48,6.59-2.45,6.68-1.87,5.17-.51.35c-.54.47-1.09.91-1.65,1.33l-.55.33a2.06,2.06,0,0,0-.52.37l-.94.89c-.48.66-1,1.29-1.45,1.89.49-.6,1-1.23,1.45-1.89l.94-.89a2.06,2.06,0,0,1,.52-.37l.55-.33c.56-.42,1.11-.86,1.65-1.33l.51-.35,1.87-5.17,2.45-6.68,2.48-6.59q.92-2.33,1.86-4.62l2.47-6.35,2.46-6.19,2.49-5.65,2.42-5.87,2.36-5.11"/><polyline class="cls-4" points="681.43 582.23 680.8 583.81 679.94 585.85 680.8 583.81 681.43 582.23"/><path class="cls-4" d="M707,532.66l-7.44,12.88c-2.69,4.68-5.38,9.49-8.06,14.5,2.68-5,5.37-9.82,8.06-14.5L707,532.66"/><path class="cls-4" d="M707,532.66l-7.44,12.88c-2.69,4.68-5.38,9.49-8.06,14.5,2.68-5,5.37-9.82,8.06-14.5L707,532.66"/><path class="cls-4" d="M641.62,546.77c3.25,9.36,6.73,19.17,9.07,27.62,1.41,5.33,3.07,11,5,16.86l1.45,4.46.19.56.09.29.05.14s0,0,0,0l.34-.59.69-1.23c.89-1.69,2-3.45,3-5.34,5.42-9.27,13-21,21.62-33.65-8.6,12.65-16.2,24.38-21.62,33.65-1.06,1.89-2.12,3.65-3,5.34l-.69,1.23-.34.59s0,.09,0,0l-.05-.14-.09-.29-.19-.56-1.45-4.46c-1.9-5.89-3.56-11.53-5-16.86-2.34-8.45-5.82-18.26-9.07-27.62"/><path class="cls-4" d="M721.92,496.64c-7.06,11.92-14.81,24-22.86,35.83,8.05-11.87,15.8-23.9,22.86-35.83"/><path class="cls-4" d="M725.36,511.47l2.33-3.41c-2.87,4.32-5.7,8.82-8.43,13.48l1.2-2.17,2.75-4.38,2.15-3.52"/><path class="cls-4" d="M727.4,509.3l-1.54,2.51-1.6,2.34,3.14-4.85"/><path class="cls-4" d="M721.64,518.2l-.85,1.39L718.05,524l-1.52,2.48c1.57-2.66,3.3-5.42,5.11-8.24"/><path class="cls-4" d="M715.93,527.41l0,0,0,0,0-.07"/><polyline class="cls-4" points="749.18 481.53 748.19 483.35 749.18 481.53"/><path class="cls-4" d="M742.55,487c15.2-20.85,31.13-39.94,46.16-60.9l-6.4,14.36.83-1.93c-2,2.76-4.53,6.35-7.22,10.29l-4.17,6.12c-4.29,6.29-8.83,12.86-12.94,18.18l-6,5.91-.16-.11-1.58.18,2.51-5.8-4.42,8.24-1,1.82L735.8,506.11,742.55,487"/><path class="cls-4" d="M775.92,448.81c2.69-3.94,5.17-7.53,7.22-10.29-2,2.76-4.52,6.34-7.21,10.28l-4.18,6.13,4.17-6.12"/><polyline class="cls-4" points="783.13 438.52 782.3 440.44 783.13 438.52"/><polyline class="cls-4" points="751.09 479.09 752.67 478.91 752.83 479.02 751.09 479.09"/><polyline class="cls-4" points="742.55 486.99 735.8 506.11 742.55 486.99"/><path class="cls-4" d="M734.37,476.08c8.69-12.75,20.83-28.12,31-41-4.26,13.34-15.15,34.62-22.81,51.87l-9.63,13.41,4.41-8.23c.47-1.32,3-6,2.9-6.73-.15-.91-4.69,4.73-23.66,32.52L707,532.66c9.69-17.07,18.11-32.58,23.76-46.19l-8.88,10.17,4.16-7.15c1.52-2.9,3.52-6.2,5.85-9.77.78-1.19,1.59-2.39,2.44-3.64"/><path class="cls-4" d="M730.8,486.47c-5.65,13.61-14.07,29.12-23.76,46.19,9.69-17.07,18.11-32.58,23.76-46.19"/><path class="cls-4" d="M740.23,485.44c.12.72-2.43,5.41-2.9,6.73l-4.41,8.23,4.41-8.23c.47-1.32,3-6,2.9-6.73"/><path class="cls-4" d="M701.6,517.92l14.46-21.09q21.77-31.57,43.84-62.93,7.1-9.21,13.64-18.8,2.18-3.19,4.29-6.42c8.62-4.12,16.66-7.38,23.86-8.7l-13,26.11c-15,21-31,40.05-46.16,60.9,7.66-17.25,18.55-38.53,22.81-51.87-10.16,12.84-22.3,28.21-31,41h0c-.84,1.24-1.65,2.44-2.43,3.63-2.33,3.57-4.33,6.87-5.85,9.77l-4.16,7.15c-5.82,6.78-11.63,14.4-17.49,22.51q-4.39,6.11-8.82,12.56c-2.75,4-5.45,8.06-8.16,12.2l-2.69,4.18c-2.86,4.48-5.71,9-8.44,13.59s-5.55,9.36-8.1,13.9a10.47,10.47,0,0,1-1.51-.63c2.47-5,5.07-9.86,7.74-14.62s5.48-9.38,8.32-14,5.77-9,8.72-13.49l4.9-7.3,5.21-7.67"/><path class="cls-4" d="M701.6,517.92l-5.21,7.67-4.9,7.3q-4.43,6.68-8.72,13.49c-2.84,4.57-5.63,9.21-8.32,14s-5.27,9.61-7.74,14.62c2.47-5,5.07-9.86,7.74-14.62s5.48-9.38,8.32-14,5.77-9,8.72-13.49l4.9-7.3,5.21-7.67"/><path class="cls-4" d="M716.06,496.83q21.77-31.57,43.84-62.93-22,31.38-43.84,62.93"/><path class="cls-4" d="M676.32,561.68c2.73-4.56,5.58-9.11,8.44-13.59l2.69-4.18c2.71-4.14,5.41-8.21,8.16-12.2q4.41-6.45,8.82-12.56-4.39,6.11-8.82,12.56c-2.75,4-5.45,8.06-8.16,12.2l-2.69,4.18c-2.85,4.48-5.7,9-8.44,13.59"/><path class="cls-4" d="M734.36,476.09h0c-.85,1.25-1.66,2.45-2.44,3.64.78-1.19,1.59-2.39,2.43-3.63"/><path class="cls-4" d="M765.36,435.12c-4.26,13.34-15.15,34.62-22.81,51.87,7.66-17.25,18.55-38.53,22.81-51.87"/><path class="cls-4" d="M759.9,433.9l17.93-25.22q-2.12,3.22-4.29,6.42-6.54,9.58-13.64,18.8"/><polyline class="cls-4" points="759.9 433.9 777.83 408.68 759.9 433.9"/></g><rect class="cls-6" x="244" y="189" width="593" height="593" rx="150" ry="150"/></g></g></svg>