<svg xmlns="http://www.w3.org/2000/svg" viewBox="0 0 1080 1920"><defs><style>.cls-1,.cls-3,.cls-4{opacity:0.8;}.cls-2,.cls-3,.cls-4{fill:#fff;}.cls-4{font-size:150px;font-family:Bauhaus93, Bauhaus 93;}</style></defs><title>Eszköz 1</title><g id="Réteg_2" data-name="Réteg 2"><g id="Réteg_1" data-name="Réteg 1"><rect width="1080" height="1920"/><g class="cls-1"><path class="cls-2" d="M154.48,726.09q.63-10.77,2.83-16.64l-1.55-12L161,722.63c10.21,45.11,24.19,101.62,31.38,138.66-2.59-10.83-5.89-23.68-9.05-35.91l-3.08-11.92c-2-7.67-3.77-14.66-5.13-20.2l1,3.26L168.41,772l-6.33-24.89L168.41,772l-13.93-45.91"/><path class="cls-2" d="M369.71,918l-.25-1.07,2.16,5.76c7,23.06,13.62,46.24,19.78,67.8,7.23,26.3,13.9,54,19.83,83.1,1.16,5.82,2.36,11.68,3.46,17.62q-4.24-17.61-8.78-35.14c-.25-1.16-.5-2.32-.74-3.46-5.35-25-11.1-47.48-17-69.32S376,940.33,369.71,918"/><path class="cls-2" d="M418.45,1087c1.14,5.22,2.28,10.49,3.5,16.06l-39.11.17c1.77-11,3.59-22.38,5.44-33.86s3.86-23.09,5.8-34.71l.89.17c-2.81,15.91-5.51,32.92-8.6,50.06-.85,4.71-1.74,9.44-2.68,14.15l.8-3.33-1.34,7.57,38.48-.17L418.45,1087"/><path class="cls-2" d="M392.05,1058.73l4.12-25.44L397,1030c-1.71,9.59-3.31,19.18-5,28.77"/><polyline class="cls-2" points="350.77 916.09 349.19 909.44 351.33 917.71 350.77 916.09"/><polyline class="cls-2" points="428.63 1044.61 425.96 1056.28 428.63 1044.61"/><polyline class="cls-2" points="425.96 1056.28 425.65 1057.96 425.96 1056.28"/><polyline class="cls-2" points="431.97 886.16 429.57 894.44 431.97 886.16"/><polyline class="cls-2" points="436.14 993.89 435.29 997.21 436.14 993.89"/><path class="cls-2" d="M250,1042.07a.75.75,0,0,1-1.12-.26.75.75,0,0,0,1.12.26"/><polyline class="cls-2" points="349.19 909.44 348.44 906.1 348.07 904.43 347.81 903.19 346.77 898.18 347.81 903.19 348.07 904.43 348.44 906.1 349.19 909.44"/><path class="cls-2" d="M424.85,907.51c-1,3.89-1.9,7.8-2.86,11.7l2.38-10.05.48-1.65"/><path class="cls-2" d="M436.09,871.21,434,878.68l-2,7.48c.87-3.33,1.69-6.67,2.62-10l1.5-4.95"/><path class="cls-2" d="M409.19,978.06c1.05-6.22,2.19-12.43,3.29-18.64l.79-3.36-.79,3.36.79-3.36.09,0c-1.38,7.33-2.82,14.65-4.17,22"/><path class="cls-2" d="M430.8,885.89l-5.95,21.62c-1,3.89-1.9,7.8-2.86,11.7l2.38-10.05q-4.23,16.25-8.57,33.81c-2.77,11.73-5.66,23.88-8.41,36.48l-.17,3.47L409,974.5l1.8-8.41,3.61-16.83-1.88,10.16.79-3.36,1.48-6.72-1.39,6.74c1.33-5.58,2.6-11.17,4-16.74l4.12-16.73-3.59,13.32,4.31-16.68-.72,3.36c1.36-5,2.66-10,4.07-14.94l5.27-21.78m-8.62,33.36.73-3.37-.73,3.37"/><polyline class="cls-2" points="424.37 909.16 421.99 919.21 424.37 909.16"/><polyline class="cls-2" points="413.27 956.06 412.48 959.42 413.27 956.06"/><path class="cls-2" d="M442.37,846.16l-2.23,8.31L437,866.12c-3.36,11.6-6.43,23.25-9.56,34.9l-1.93,6.65,5.27-21.78c1.81-6.65,3.79-13.27,5.73-19.89l5.84-19.84"/><polyline class="cls-2" points="414.75 949.34 413.37 956.08 413.27 956.06 414.75 949.34"/><polyline class="cls-2" points="414.75 949.34 413.37 956.08 414.75 949.34"/><path class="cls-2" d="M443.33,842.84c-.59,2.18-1.18,4.35-1.72,6.54l-1.47,5.09,2.23-8.31,1-3.32"/><polyline class="cls-2" points="442.05 847.85 441.61 849.38 442.05 847.85"/><polyline class="cls-2" points="440.87 852.3 436.09 871.21 438.52 861.17 440.87 852.3"/><polyline class="cls-2" points="413.27 956.06 412.48 959.42 413.27 956.06"/><polyline class="cls-2" points="442.05 847.85 440.87 852.3 442.05 847.85"/><polyline class="cls-2" points="441.61 849.38 440.87 852.3 438.52 861.17 437.02 866.12 440.14 854.47 437.02 866.12 440.14 854.47 441.61 849.38"/><polyline class="cls-2" points="442.05 847.85 440.87 852.3 441.61 849.38 442.05 847.85"/><polyline class="cls-2" points="440.87 852.3 438.52 861.17 440.87 852.3"/><polyline class="cls-2" points="440.14 854.47 437.02 866.12 440.14 854.47"/><polyline class="cls-2" points="438.52 861.17 436.09 871.21 434.59 876.16 438.52 861.17"/><polyline class="cls-2" points="436.09 871.21 434.59 876.16 436.09 871.21"/><polyline class="cls-2" points="438.52 861.17 436.09 871.21 438.52 861.17"/><path class="cls-2" d="M438.52,861.17l-3.93,15c-.89,2.74-1.69,5.5-2.53,8.25,1.43-5.55,3-11.08,4.55-16.62l.41-1.67,1.5-5"/><polyline class="cls-2" points="438.52 861.17 434.59 876.16 438.52 861.17"/><polyline class="cls-2" points="422.91 915.88 422.18 919.25 422.91 915.88"/><polyline class="cls-2" points="422.18 919.25 421.46 922.61 417.87 935.93 422.18 919.25"/><polyline class="cls-2" points="422.18 919.25 421.46 922.61 422.18 919.25"/><polyline class="cls-2" points="421.46 922.61 417.87 935.93 421.46 922.61"/><polyline class="cls-2" points="427.46 901.02 424.88 911.03 425.53 907.67 427.46 901.02"/><path class="cls-2" d="M437,866.12l-.41,1.67c-3.22,11-6.13,22.14-9.15,33.23,3.13-11.65,6.2-23.3,9.56-34.9"/><polyline class="cls-2" points="437.02 866.12 436.61 867.79 437.02 866.12 436.61 867.79 437.02 866.12"/><polyline class="cls-2" points="437.02 866.12 436.61 867.79 437.02 866.12"/><path class="cls-2" d="M426.9,1007.75l-5.79,25c2.12-9.46,4.16-18.94,6.35-28.39l-.56,3.38"/><polyline class="cls-2" points="425.04 1019.58 419 1042.81 426.11 1012.84 425.04 1019.58"/><path class="cls-2" d="M424.57,1038.63c-4.51,23.51-8.6,45.37-12.83,63.74l6.22-31.92-.32,1.68,6.93-33.5"/><polyline class="cls-2" points="424.57 1038.63 417.64 1072.13 417.96 1070.45 424.57 1038.63"/><polyline class="cls-2" points="424.57 1038.63 417.64 1072.13 424.57 1038.63"/><polyline class="cls-2" points="423.86 1026.32 421.77 1034.63 425.04 1019.58 423.86 1026.32"/><polyline class="cls-2" points="437.07 957.48 434.81 967.49 437.07 957.48"/><path class="cls-2" d="M532.25,622.88l3.09-8,4-11.32c-4,8.53-7.93,17.07-12.08,26L525.7,633l-1.47,3.45-3,7.07c-2,4.8-4,9.74-6.15,14.88l2.9-6.21c-4.58,11.06-8.24,20.66-11.92,29.79-1.81,4.58-3.68,9-5.4,13.58s-3.39,9.19-5.13,14q2-5.1,4.06-10.54l2.09-5.48q1.11-2.76,2.25-5.56l9.19-22.8c3.2-7.6,6.52-15.08,9.67-22.24,1.6-3.58,3.11-7.09,4.71-10.44s3.22-6.54,4.73-9.61"/><polyline class="cls-2" points="485.2 743.99 483.03 750.49 485.2 743.99"/><polyline class="cls-2" points="515.1 658.36 513.16 663.11 511.33 667.91 513.16 663.11 515.1 658.36"/><polyline class="cls-2" points="488.59 734.3 485.2 743.99 488.59 734.3"/><polyline class="cls-2" points="433.74 960.28 431.48 970.3 428.84 980.24 433.54 960.24 433.74 960.28"/><polyline class="cls-2" points="433.93 960.32 431.48 970.3 433.74 960.28 433.93 960.32"/><path class="cls-2" d="M435.89,957.24l-2.11,8.29c-1.73,6.63-3.49,13.25-5.14,19.9,1.84-8.36,3.86-16.68,5.78-25l1.47-3.18"/><polyline class="cls-2" points="435.99 957.26 433.78 965.53 435.89 957.24 435.99 957.26"/><polyline class="cls-2" points="436.63 955.64 430.74 978.89 433.78 965.53 435.99 957.26 436.63 955.64"/><path class="cls-2" d="M433.54,960.24l-4.7,20,2.64-9.94c-2.08,9.17-4.1,19.24-6.22,29.29s-4.17,20.11-6.17,29.32c1.7-9.94,3.5-19.87,5.47-29.74,1.69-8.49,3.35-17,5.15-25.44l5.35-25.4-1.52,11.91"/><polyline class="cls-2" points="433.54 960.24 428.84 980.24 433.54 960.24"/><path class="cls-2" d="M436.65,939.92c-1.52,6.24-2.95,12.71-4.42,19.18s-3,12.94-4.37,19.2c-2.78,12.53-5.5,24.21-7.94,33.34.36-1.85.71-3.66,1.05-5.45,1.71-8.68,3.39-16.68,5.06-24.36s3.45-15,5.16-22.35,3.48-14.71,5.3-22.42,3.65-15.79,5.58-24.55c.21-.92.42-1.85.64-2.8-2.35,8.25-5,19-7.77,29.84-1.39,5.4-2.69,10.81-3.95,15.91s-2.45,9.87-3.53,14q2.39-10,4.69-19.71c1.55-6.49,3.21-12.86,4.8-19.2s3.18-12.61,4.84-18.84,3.34-12.43,5-18.63l-5.2,23.38-5,23.44"/><path class="cls-2" d="M425.51,979.57l-8.78,34.93c1.08-5,2.22-10,3.34-15l5.44-19.88"/><polyline class="cls-2" points="406.61 1061.42 405.58 1066.44 405.17 1068.1 406.61 1061.42"/><path class="cls-2" d="M413.25,1031.28l-1.9,8.36-4.74,21.78-1,5c2.55-11.72,5-23.45,7.67-35.16m-1.9,8.36-4.74,21.78,4.74-21.78"/><path class="cls-2" d="M420.07,999.45c-1.12,5-2.26,10-3.34,15l-5.38,25.14-4.74,21.78-1.44,6.68.41-1.66-7.51,31.71,7.06-37c2.31-9.17,4.75-19.61,7.31-30.24s5.08-21.49,7.63-31.46"/><path class="cls-2" d="M420.07,999.45c-1.12,5-2.26,10-3.34,15,1.08-5,2.22-10,3.34-15"/><polyline class="cls-2" points="406.61 1061.42 405.17 1068.1 406.61 1061.42"/><polyline class="cls-2" points="411.35 1039.64 406.61 1061.42 411.35 1039.64"/><polyline class="cls-2" points="411.35 1039.64 406.61 1061.42 411.35 1039.64"/><path class="cls-2" d="M402.58,1071.11c-2.48,12.45-4.84,24.13-7.09,34.39l13.83-.06c-.82-5.21-1.52-10-2.12-14.48l2.88,14.33-15.35.07,4.54-26.14-.32,5.16,3.63-13.27"/><polyline class="cls-2" points="311.9 934.95 305.86 948.91 307.43 944.1 311.9 934.95"/><path class="cls-2" d="M167.08,844.85c-5.46-34-9.12-61.31-11.2-83.75l12.55,49.8c13.19,53.84,24.74,108.1,21.26,108.21-.5,0-1.31-1.08-2.46-3.43-6.71-24.79-13.91-49.46-20.15-70.83"/><path class="cls-2" d="M220.21,1045.34,218,1035.17c4.89,17.31,6.31,18.83,13.69,47-1.78-2.87-6.48-19.5-11.47-36.82"/><path class="cls-2" d="M201.86,979.1c-2.12-13.65-6.28-31.35-11-49.8-1.19-4.5-2.39-9.06-3.59-13.62,1.15,2.35,2,3.45,2.46,3.43,3.48-.11-8.07-54.37-21.26-108.21q15.75,61.68,31.48,123.35l10.59,41.1L226,1035.16q8.74,33.39,17.48,66.79l-1.19-8.22q-3.93-15.54-7.89-31.18c-2.57-10-5.14-19.93-7.68-29.81-.74-2.89-1.49-5.76-2.22-8.61-4.43-17.14-8.76-33.94-12.79-50.08s-7.75-31.55-11-45.95c6.17,22.13,12.3,45.07,18.26,68.11,3.95,15.31,7.8,30.56,11.57,45.85,3.07,12.46,6.13,25.09,9.22,38q2.35,9.92,4.65,19.63l2.35,10c.39,1.69.79,3.37,1.18,5l.59,2.53c.2.7.4,2.29.58,1.24q7.68-28,16.08-56.33c1.1-3.7,2.32-8,3.65-12.73s2.73-9.56,4.21-14.75l1.12-4,.55-1.9.51-1.74c.69-2.35,1.38-4.73,2.09-7.13l2.12-7.29c.74-2.43,1.48-4.88,2.22-7.33l-2.08,7-2,7-2,7-1,3.51-1.11,4.09-.21,4.33,1.76-5.62.88-2.79.78-2.33,3.12-9.31q1.55-4.65,3.19-9.27l3.24-9.25-3.05,9.74c-1.87,5.95-3.56,12-5.35,18-.81,2.64-2,6.9-3,10.57l-3.13,11.27-5.73,21.53-5.56,21.38c-2.26,8.7-4.45,17.47-6.64,26.44h0c-1.52,6.34-3.05,12.71-4.59,19.15l-.13.07-.06,0,0,0s0-.07,0-.1l-.26-1-.53-2-1.07-4c-.71-2.67-1.43-5.34-2.16-8l-4.42-16.34-9.42-34.62,9.54,38.94c1.55,7.2,2.3,11.32,2.41,12.92s-.57.37-1.82-3.29-3.08-9.62-5.25-17c-4.32-14.75-10-35.35-14.69-52.74l-1.13-5.19c5,17.32,9.69,34,11.47,36.82-7.38-28.16-8.8-29.68-13.69-47l0-.32,0-.22,0-.43-.07-.87-.14-1.73-.27-3.47-5-23.45c4.54,11.2-6.12-28.49-3.91-25.52l-9.3-40-7-21.17c6.15,30.23,12.65,62.16,9.7,61.15"/><path class="cls-2" d="M189.69,919.11c3.48-.11-8.07-54.37-21.26-108.21,13.19,53.84,24.74,108.1,21.26,108.21"/><path class="cls-2" d="M218,1035.17c4.89,17.31,6.31,18.83,13.69,47-7.38-28.16-8.8-29.68-13.69-47"/><path class="cls-2" d="M294.48,977.24c-1.45,3.69-2.77,7.43-4.13,11.16s-2.75,7.46-4,11.22l-3.05,9.74c-1.87,5.95-3.56,12-5.35,18-.81,2.64-2,6.9-3,10.57l-3.13,11.27-.39,2.24,5.59-19.58.35-1.24.31-1,.59-1.93,1.17-3.88,2.36-7.74-2.41,8.61-1.21,4.3-.64,2.34-.74,2.77-3,11.11-1.48,5.54-.75,2.89-.76,3c1.24-4.26,2.57-8.78,3.95-13.5,1.3-4.55,2.65-9.3,4-14.18,2.29-7.75,4.61-16,7.13-24.06l2-6.94,2.14-6.89c1.45-4.59,2.82-9.21,4.36-13.76m-11.22,32.12c-1.87,5.95-3.56,12-5.35,18-.81,2.64-2,6.9-3,10.57l-3.13,11.27,3.13-11.27c1-3.67,2.18-7.93,3-10.57,1.79-6,3.48-12,5.35-18"/><path class="cls-2" d="M283.26,1009.36c-1.87,5.95-3.56,12-5.35,18-.81,2.64-2,6.9-3,10.57l-3.13,11.27,3.13-11.27c1-3.67,2.18-7.93,3-10.57,1.79-6,3.48-12,5.35-18"/><polyline class="cls-2" points="218.06 1037.83 217.99 1035.17 220.21 1045.34 218.06 1037.83"/><polyline class="cls-2" points="194.8 876.6 195.05 874.76 194.8 876.6"/><path class="cls-3" d="M218,1077.71c-2.53-11.19-4.39-19.86-5.72-26.55-.67-3.35-1.2-6.2-1.63-8.62-.19-1.2-.38-2.3-.54-3.32l-.22-1.43a8.39,8.39,0,0,1-.12-1.09c-.08-3.54.62-4.22,1.65-3.71a7.12,7.12,0,0,1,1.73,1.44,12.39,12.39,0,0,1,2,2.44c1.45,2.12,2.61,3.16,2.89,1l2.15,7.51,1.13,5.19c4.66,17.39,10.37,38,14.69,52.74,2.17,7.4,4,13.37,5.25,17s1.92,5,1.82,3.29-.86-5.72-2.41-12.92l-9.54-38.94,9.42,34.62,4.42,16.34c.73,2.69,1.45,5.36,2.16,8l1.07,4,.53,2,.26,1s0,.1,0,.1l0,0,.06,0,.13-.07c1.54-6.44,3.07-12.81,4.59-19.15,2.19-9,4.38-17.75,6.64-26.45l5.56-21.38,5.73-21.53-.39,2.24-5.19,19.7-5,19.52c1.48-4.93,3.1-10.7,4.82-17s3.6-13.14,5.49-20.29c1.83-6.73,3.71-13.66,5.61-20.62,1.56-5.57,3.14-11.17,4.68-16.66l-2.41,8.61-1.21,4.3-.64,2.34-.74,2.77-3,11.11-1.48,5.54-.75,2.89-.76,3c1.24-4.26,2.57-8.78,3.95-13.5,1.3-4.55,2.65-9.3,4-14.18,2.29-7.75,4.61-16,7.13-24.06l-.95,5c2.55-6.34,5.06-12.69,7.73-19-2.17,6.13-4.2,12.32-6.24,18.5s-4,12.42-6,18.64l-1.65,8.07-2,9.39,5.15-14.29c1.49-3.67,3.08-7.63,4.76-12s3.56-9.12,5.52-14.39l6.46-17.36-4.41,12.2c-1.41,4-2.79,7.94-4.17,11.86s-2.72,7.85-4.07,11.83c-.68,2-1.35,4-2,6l-.51,1.52-.25.76-.14.41-.17.58-1.4,4.64c-1.82,6.09-3.69,12.33-5.62,18.81-1.95,7-4,14.26-6.07,21.86-4.11,15.08-8.33,31.29-12.94,49.56l-1.06,8.15L252,1149.3c1.15-2.94,2.65-7.57,4.37-13.18S260,1124,262,1117.31s4-13.55,5.78-19.54,3.52-11.47,4.91-15.2L259.13,1131c.51.25,2.41-5.54,4.57-12.53s4.6-15.12,6-18.87c-10,36-13,37.61-20.27,64.3l-.25-.58c-.09-.26-.18-.72-.27-1.08l-.55-2.3-1.15-4.75L244.62,1145l-.54-2.06-.82-3.19c-5.2-20.12-9.16-34.55-12.21-44.76s-5.13-16.07-6.35-18.26-1.57-.6-1,4.42,2,13.51,4.19,24.92l-4.53-19.52c-4.58-16.54-5.21-17-5-13.95s1.29,9.47-.31,5.07"/><path class="cls-2" d="M243.1,1123.58c-.11-1.6-.86-5.72-2.41-12.92l-9.54-38.94,9.54,38.94c1.55,7.2,2.3,11.32,2.41,12.92"/><path class="cls-2" d="M231.15,1071.72l9.42,34.62,4.42,16.34c.73,2.69,1.45,5.36,2.16,8l1.07,4,.53,2,.26,1s0,.1,0,.1l0,0,.06,0,.13-.07c1.54-6.44,3.07-12.81,4.59-19.15-1.52,6.34-3.05,12.71-4.59,19.15l-.13.07-.06,0,0,0s0-.07,0-.1l-.26-1-.53-2-1.07-4c-.71-2.67-1.43-5.34-2.16-8l-4.42-16.34-9.42-34.62"/><polyline class="cls-2" points="281.77 1016.02 279.36 1024.63 278.15 1028.93 277.51 1031.27 276.76 1034.04 273.81 1045.15 272.33 1050.69 271.58 1053.58 270.82 1056.57 271.58 1053.58 272.33 1050.69 273.81 1045.15 276.76 1034.04 277.51 1031.27 278.15 1028.93 279.36 1024.63 281.77 1016.02"/><polyline class="cls-2" points="271.4 1051.4 271.79 1049.16 271.4 1051.4"/><path class="cls-3" d="M299.19,951.94c.69-2.16,1.33-4.33,2.08-6.47l2.4-8.2-3.74,9.51,3.74-9.51-.15-1.88-4.67,11L294.4,957.5c1.61-4.26,3.14-8.55,4.8-12.78-1.37,3.13-2.61,6.32-3.92,9.47s-2.61,6.32-3.85,9.51c1.46-4,3-8,4.51-12l2.28-6,2.39-5.94-.47-.17c-1.1,2.63-2.26,5.24-3.32,7.88-7.32,19.17-13.91,40.42-19.71,58.33,1.18-4.22,2.32-8.46,3.59-12.68s2.56-8.43,3.85-12.66c5.64-17.84,12-35.73,19.22-54.12l2.34-6.43-3.81,9q-1.82,4.59-3.66,9.23c-1.2,3.09-2.47,6.16-3.6,9.25s-2.3,6.14-3.42,9.15c-4.48,12.05-8.48,23.36-11.84,32.2.55-1.81,1.09-3.56,1.62-5.3.65-2.11,1.28-4.2,1.94-6.23l2-6c1.35-3.92,2.61-7.74,4-11.43,2.75-7.38,5.34-14.46,8.24-21.45,1.43-3.5,2.8-7,4.29-10.55s3-7.09,4.58-10.74,3.2-7.35,4.88-11.18l2.57-5.85c.84-2,1.77-4,2.72-6,.4-.86.8-1.74,1.21-2.61-1,1.9-2.06,3.94-3.17,6.09s-2.16,4.51-3.3,6.9-2.29,4.82-3.46,7.3-2.25,5.06-3.39,7.61c-2.25,5.1-4.54,10.2-6.51,15.07l-2.94,7-1.39,3.27-1.25,3.1c1.19-3.22,2.52-6.37,3.78-9.51s2.56-6.24,3.82-9.34l4-9.13c1.35-3,2.6-6,4-9l4.18-8.84,2.12-4.46c.74-1.48,1.49-3,2.23-4.42,3-5.81,5.74-11.47,8.76-16.74l1.51-3c1-2,2-3.94,3-5.87s2.09-3.76,3.09-5.57l2.93-5.25,1.4-2.49.67-1.2.17-.29,0-.08s0,0,0,0l.05.18.21.69c3.6,12.09,6.86,23.37,9.87,34.12,1.49,5.39,3,10.59,4.35,15.79,1.48,5.48,3,10.92,4.41,16.37-.77-3.19-1.55-6.37-2.36-9.56l-2.36-9.45-4.9-19,4.9,19,2.36,9.45c.81,3.19,1.59,6.37,2.36,9.56,12.56,48,22.76,93.07,31.63,140.11l-3.05-18.58c-1.07-6.18-2.09-12.38-3.21-18.56,6.37,23.11,11.73,50,16.36,71.74-6.23-35.4-11.69-65.77-19.33-99.17,7.64,33.4,13.1,63.77,19.33,99.17l1.39,6.68c-3.86-28.87-11.17-65.85-16.76-94.47,4.42,20.1,7.3,37,12.1,60.48l-1-6.77-2.06-10.09,2.06,10.09c3.42,16.89,6,31.86,8.28,46.39H402c.9-4.22,1.8-8.38,2.69-12.55,1.19-10.23,2.53-21.29,4.15-32.75s3.44-23.31,5.65-35.1l2.23-11.78-5.38,25.14,1.9-8.36c-2.63,11.71-5.12,23.44-7.67,35.16l-7.51,31.71,7.06-37-2.55,10c-2.48,12.45-4.84,24.13-7.09,34.39l13.83-.06c-.82-5.21-1.52-10-2.12-14.48l2.88,14.33-15.35.07,4.54-26.14,3.06-23.83-2.29,3c-3,10.69-6.61,26.64-10.4,46l25.52-.11c-1.12-6.17-2.3-12.71-3.66-19.49q-.51-2.5-1-5l-1.14,2-.71-8.61-4.23-15L401.34,1043c-2.72-8.21-5.39-19.07-8.13-30.8s-5.53-24.31-8.34-36l2,10.14a189.18,189.18,0,0,1-5.44-18.26c-1.28-5-2.5-10.3-3.71-15.4s-2.33-10.09-3.47-14.59q-2.22-10-4.53-20l-.51-1.78.26.71-.17-.74c-1.24-4.71-2.55-9.41-3.84-14.11l-2.63-9.4L359.69,882l-3.17-11.68-3.29-11.79-3.68-13.64,3.68,13.64c1.5,5.23,3,10.4,4.43,15.61q-1.67-6.69-3.46-13.49l1.88,6.55,1.84,6.58,3.62,13L358,873.67,356.16,867l-1.87-6.63-7.7-27.15-4.84-16.5-.57.54c-.19.26-.42.72-.62,1.07.21-.39.43-.89.63-1.19l.58-.66.85,2.56-.82-2.92-.57.5c-.2.26-.42.7-.63,1l-1.28,2.2-2.59,4.42-5.25,9-6.24,11.07L319,855.5c-4.25,7.25-8.24,15.56-12.38,23.71l-4.05,8.61c-.67,1.41-1.35,2.91-1.95,4.32l-1.38,3.33L294.91,906l3.61-9,2.16-5.3c1.06-2.48,2.23-4.91,3.35-7.35l7.48-16-6.42,13.22-3.23,6.63c-.53,1.09-1.06,2.25-1.56,3.36l-1.25,2.85-3.52,8c-1.18,2.67-2.36,5.35-3.44,8.06l.19-1.82c-5.56,12.9-12,29.2-17.66,45.71l-.57,1.63-4.41,14.15c-1.49,4.71-2.8,9.45-4.21,14.17,1.2-4.18,2.34-8.37,3.58-12.55l3.76-12.52-1.39,1.37q-1.89,6-3.85,12.21l-3.65,12.59c-1.26,4.23-2.4,8.52-3.61,12.83s-2.42,8.64-3.63,13l-1.81,6.41-1.81,6.21,0-.08a.36.36,0,0,0,0-.13l.14-.41.28-.82.56-1.63-.83,3L253,1025l-.58,2.3-.59,2.32-.33,1.34c-.34,2.89-.82,6.54-1.47,11.09a3.64,3.64,0,0,0,.93-.85,3.64,3.64,0,0,1-.93.85l-1.16,7.9,0,.2,0,.1v0l-.07-.11-.13-.22-.27-.48-.58-1c-.41-.74-.84-1.58-1.3-2.52q-1.4-2.8-3.15-6.74t-3.87-9q-3.69-10.7-6.91-20.06c1.65,5.77,3.29,11.53,4.93,17.24l.61,2.14.36,1.18.68,2.14,1.31,4.08c1.7,5.26,3.25,9.75,4.57,13.05l2.06,6.13,1,2.94.47,1.45.22.72c.08.16.16.75.23.14,1.81-8.81,3.44-16.16,5.31-23.46l1-3.91q-1.08,7.33-2.75,17.34l.19-.77-.75,5.5.56-4.73c-1.26,5.09-2.41,10.2-3.55,15.57l-.06.24,0,.12s0,0,0-.06l-.11-.37-.21-.73-.44-1.44-.88-2.88q-.91-2.92-1.81-5.78l-3.86-12.31q-1-3.36-2.06-6.75-1.06-3.64-2.16-7.33c-2.47-9-4.94-18.13-7.41-27.62l2.62,8.16Q220.69,968,208.9,926l-10.65-30.85,6.66,26.57-4.34-14.79c-.73-2.13-3.2-10.6-3.66-11.39-.29-.5.24,2.17,2.59,11.73s6.53,26,13.51,53l7.47,28.12c-8.9-31.29-17.06-59.25-24.5-82.08l4.79,21.75c6.16,22.11,12.3,45.07,18.26,68.11,3.95,15.31,7.8,30.56,11.57,45.85,3.07,12.46,6.13,25.09,9.22,38q2.35,9.92,4.65,19.63l2.35,10c.39,1.69.79,3.37,1.18,5l.59,2.53c.2.7.4,2.29.58,1.24q7.68-28,16.08-56.33c1.1-3.7,2.32-8,3.65-12.73s2.73-9.56,4.21-14.75l1.12-4,.55-1.9.51-1.74c.69-2.35,1.38-4.73,2.09-7.13l2.12-7.29c.74-2.43,1.48-4.88,2.22-7.33l.95-3.28-3.34,9.69L284,997.15c-2.72,7.5-5.53,15-8.13,22.53l2.39-7.31,2.49-7.28c1.65-4.85,3.29-9.7,5.05-14.51l1.31-5c-1.4,4-2.85,8-4.22,12.1l-4.06,12.16,4.49-13.81,4.7-13.73c.52-2.22,1.11-4.43,1.69-6.63l4.63-11.94,4.84-11.83m77,29.94c5.48,25.12,9.42,47.05,15.79,78.94-6.37-31.89-10.31-53.82-15.79-78.94l-2.22-10-1.59-6.67,1.59,6.67,2.22,10-.71-1.59c-2.13-8.88-4.27-17.77-6.51-26.62,2.24,8.85,4.38,17.74,6.51,26.62l.71,1.59M335.55,854.64c.58-1.06,1.14-2.1,1.7-3.11l.82-1.49.2-.36.1-.18s0-.08.05-.06l0,.09.26.75c1.52,5.18,2.9,10.1,4.19,14.79s2.41,9.16,3.54,13.51l3.31,12.86,1.73,6.46,1.86,6.79-1.86-6.79-1.73-6.46-3.31-12.86c-1.13-4.35-2.27-8.82-3.54-13.51s-2.67-9.61-4.19-14.79l-.26-.75,0-.09s0,0-.05.06l-.1.18-.2.36-.82,1.49c-.56,1-1.12,2.05-1.7,3.11m-9.79,18.75L325,875l-2,3.87-1,1.94-.94,2-3.8,8,3.8-8,.94-2,1-1.94,2-3.87.79-1.58c2.32-4.42,4.44-8.51,6.68-12.25l3.19-5.5,1.55-2.66.77-1.31.19-.32.1-.16s0-.09,0-.05l0,.1.23.85,8,28.77-8-28.77-.23-.85,0-.1s0,0,0,.05l-.1.16-.19.32-.77,1.31-1.55,2.66-3.19,5.5c-2.24,3.74-4.36,7.83-6.68,12.25m45.32,90.35-2.88-9.87,2.88,9.87m-138.51,67.5-12.09-42.81,12.09,42.81m0,0-12.09-42.81,12.09,42.81m0,0,1.44,5.17,1.5,5,1.4,5,1.37,4.54.14.47,1.29,4.63,1.39,4.58,1.32,4.69,1.33,4.37,1.3,4.23.94,3.25,1.25,4,1.22,3.91.28.89.13.44c0,.08,0,0,0-.07l0-.16.06-.31.6-2.88.81-4.17,1.06-5.17.74-4.26c-1.11,4.81-2.16,9.62-3.22,14.49l-.06.3,0,.16v.07l0-.06-.14-.47-.28-1-.56-1.88-1.12-3.73q-1.15-3.77-2.27-7.41c-1.61-5.19-3.19-10.25-4.76-15.29l-.48-1.6-.39-1.2q-.86-2.79-1.72-5.59l-.41-1.37-1.46-4.86-.87-2.74-1.83-6.08M204.91,921.72q1.09,4.34,2.24,8.79c.53,2,1.07,4.08,1.61,6.12l1.71,6.65,1.81,6.59,2.24,8.28,1.14,3.94q1.53,5.35,3.06,10.73l0,.15,1.91,6.58L218.76,973l1.91,6.58L218.76,973v-.06c.64,2.22,1.27,4.41,1.92,6.64-.79-2.67-1.62-5.59-2.45-8.55L217,966.34l-2.23-8.24-.72-2.61-2.06-7.73-1.17-4.55-1.3-4.72c-1.55-5.83-3.09-11.52-4.56-16.77m204.43,160-.29.06,1.06,6.83-.77-6.89"/><path class="cls-2" d="M232.57,1031.24c1.9,6.54,3.81,13.15,5.71,19.74l-1.37-4.54-1.4-5-1.5-5-1.44-5.17"/><path class="cls-2" d="M234.4,1037.32l.87,2.74,1.46,4.86.41,1.37c-.9-3-1.82-6-2.74-9"/><path class="cls-2" d="M238.42,1051.45c1.89,6.44,3.78,12.85,5.62,19.13.87,2.88,1.74,5.72,2.58,8.53l1.22,3.93.59,1.87.29.92.15.45s0,0,0,0v-.08l0-.17.06-.33q1.77-8.67,3.21-16.29l-.74,4.26-1.06,5.17-.81,4.17-.6,2.88-.06.31,0,.16s0,.15,0,.07l-.13-.44-.28-.89-1.22-3.91-1.25-4-.94-3.25-1.3-4.23-1.33-4.37-1.32-4.69-1.39-4.58-1.29-4.63"/><path class="cls-2" d="M238.86,1051.88l.39,1.2.48,1.6-.87-2.8"/><path class="cls-2" d="M369.2,916.26l.26.71.25,1.07-.51-1.78"/><path class="cls-2" d="M250.91,1041.22a3.64,3.64,0,0,1-.93.85,3.64,3.64,0,0,0,.93-.85"/><polyline class="cls-2" points="413.25 1031.28 411.35 1039.64 413.25 1031.28"/><polyline class="cls-2" points="405.13 1061.15 398.07 1098.15 405.13 1061.15"/><polyline class="cls-2" points="407.2 1090.96 410.08 1105.29 394.73 1105.36 399.27 1079.22 394.73 1105.36 410.08 1105.29 407.2 1090.96"/><polyline class="cls-2" points="232.57 1031.24 234.01 1036.41 235.51 1041.42 236.91 1046.44 238.28 1050.98 236.91 1046.44 235.51 1041.42 234.01 1036.41 232.57 1031.24"/><polyline class="cls-2" points="234.4 1037.32 235.27 1040.06 236.73 1044.92 237.14 1046.29 236.73 1044.92 235.27 1040.06 234.4 1037.32"/><path class="cls-2" d="M238.42,1051.45l1.29,4.63,1.39,4.58,1.32,4.69,1.33,4.37,1.3,4.23.94,3.25,1.25,4,1.22,3.91.28.89.13.44c0,.08,0,0,0-.07l0-.16.06-.31.6-2.88.81-4.17,1.06-5.17.74-4.26-.74,4.26-1.06,5.17-.81,4.17-.6,2.88-.06.31,0,.16s0,.15,0,.07l-.13-.44-.28-.89-1.22-3.91-1.25-4-.94-3.25-1.3-4.23-1.33-4.37-1.32-4.69-1.39-4.58-1.29-4.63"/><polyline class="cls-2" points="238.86 1051.88 239.25 1053.08 239.74 1054.68 239.25 1053.08 238.86 1051.88"/><polyline class="cls-2" points="220.49 988.43 232.57 1031.24 220.49 988.43"/><polyline class="cls-2" points="220.49 988.43 232.57 1031.24 220.49 988.43"/><path class="cls-2" d="M281.72,1005.37c-.74,2.45-1.48,4.9-2.22,7.33l-2.12,7.29c-.71,2.4-1.4,4.78-2.09,7.13l-.51,1.74-.55,1.9-1.12,4c-1.48,5.19-2.9,10.15-4.21,14.75s-2.55,9-3.65,12.73q-8.46,28.38-16.08,56.33c-.18,1-.38-.54-.58-1.24l-.59-2.53c-.39-1.68-.79-3.36-1.18-5l-2.35-10q-2.29-9.71-4.65-19.63c-3.09-12.94-6.15-25.57-9.22-38,3.07,12.46,6.13,25.09,9.22,38q2.35,9.92,4.65,19.63l2.35,10c.39,1.69.79,3.37,1.18,5l.59,2.53c.2.7.4,2.29.58,1.24q7.68-28,16.08-56.33c1.1-3.7,2.32-8,3.65-12.73s2.73-9.56,4.21-14.75l1.12-4,.55-1.9.51-1.74c.69-2.35,1.38-4.73,2.09-7.13l2.12-7.29c.74-2.43,1.48-4.88,2.22-7.33"/><path class="cls-2" d="M200.77,928.1c6.16,22.11,12.3,45.07,18.26,68.11-6-23-12.09-46-18.26-68.11"/><path class="cls-2" d="M210.47,943.28l-1.71-6.65c2.18,8.33,4.49,16.85,6.9,25.46l-1.14-3.94-2.24-8.28-1.81-6.59"/><path class="cls-2" d="M209.47,938.49l1.3,4.72,1.17,4.55-2.47-9.27"/><path class="cls-2" d="M214,955.49l.72,2.61,2.23,8.24,1.27,4.66c-1.37-4.92-2.78-10.14-4.22-15.51"/><path class="cls-2" d="M218.72,972.82l0,.09V973l0-.15"/><polyline class="cls-2" points="195.99 881.59 196.94 884.88 195.99 881.59"/><path class="cls-2" d="M198.25,895.15c-10.32-41.54-19.43-81.63-29.84-123.15l7.77,24.52-1-3.26c1.36,5.54,3.16,12.55,5.14,20.22,1,3.82,2,7.85,3.07,11.9,3.16,12.23,6.46,25.08,9.05,35.91l2.65,13.47-.1,0-.15,1.81-3.15-9.82L196,881.59l.95,3.29,12,41.12-10.65-30.85"/><path class="cls-2" d="M180.28,813.48c-2-7.67-3.78-14.68-5.14-20.22,1.36,5.54,3.15,12.53,5.13,20.2l3.08,11.92c-1-4-2.08-8.08-3.07-11.9"/><polyline class="cls-2" points="175.13 793.26 176.18 796.52 175.13 793.26"/><polyline class="cls-2" points="194.8 876.6 194.95 874.79 195.05 874.76 194.8 876.6"/><polyline class="cls-2" points="198.25 895.15 208.9 926 198.25 895.15"/><path class="cls-2" d="M190.17,889.7c-6.4-24.8-13.85-56.37-20.07-82.77,7.5,21.06,18.8,58.81,28.15,88.22l6.66,26.57-4.34-14.79c-.73-2.13-3.2-10.6-3.66-11.39-.29-.5.24,2.17,2.59,11.73s6.53,26,13.51,53l7.47,28.12c-8.9-31.29-17.06-59.25-24.5-82.08l4.79,21.75-3.72-13.19c-1.53-5.18-3.23-11.34-5-18.18-.59-2.28-1.2-4.61-1.84-7"/><path class="cls-2" d="M196,906.35c7.44,22.83,15.6,50.79,24.5,82.08-8.9-31.29-17.06-59.25-24.5-82.08"/><path class="cls-2" d="M196.91,895.54c.46.79,2.93,9.26,3.66,11.39l4.34,14.79-4.34-14.79c-.73-2.13-3.2-10.6-3.66-11.39"/><path class="cls-2" d="M210.5,975.35l-10.59-41.1q-15.74-61.68-31.48-123.35-4.49-18.74-9.3-37.39l-3.25-12.41c-1.1-13.87-1.78-26.09-1.4-35L168.41,772c10.41,41.52,19.52,81.61,29.84,123.15C188.9,865.74,177.6,828,170.1,806.93c6.22,26.4,13.67,58,20.07,82.77h0l1.83,7c1.81,6.84,3.51,13,5,18.18l3.72,13.19c3.21,14.4,6.94,29.84,11,45.95s8.36,33,12.79,50.08c.73,2.85,1.48,5.74,2.22,8.61,2.55,9.88,5.11,19.85,7.68,29.81q3.95,15.62,7.89,31.18l1.19,8.22q-8.73-33.4-17.48-66.79L210.5,975.35"/><path class="cls-2" d="M210.5,975.35,226,1035.16q8.74,33.39,17.48,66.79-8.73-33.4-17.48-66.79L210.5,975.35"/><path class="cls-2" d="M199.91,934.25q-15.74-61.68-31.48-123.35,15.75,61.68,31.48,123.35"/><path class="cls-2" d="M234.42,1062.55c-2.57-10-5.13-19.93-7.68-29.81-.74-2.87-1.49-5.76-2.22-8.61-4.43-17.13-8.76-33.94-12.79-50.08,4,16.14,8.36,32.94,12.79,50.08.73,2.85,1.48,5.72,2.22,8.61,2.54,9.88,5.11,19.84,7.68,29.81"/><path class="cls-2" d="M190.18,889.71h0c.64,2.42,1.25,4.75,1.84,7l-1.83-7"/><path class="cls-2" d="M170.1,806.93c7.5,21.06,18.8,58.81,28.15,88.22C188.9,865.74,177.6,828,170.1,806.93"/><path class="cls-2" d="M168.43,810.9l-12.55-49.8,3.25,12.41q4.8,18.65,9.3,37.39"/><polyline class="cls-2" points="168.44 810.9 155.88 761.1 168.44 810.9"/></g><g class="cls-1"><path class="cls-2" d="M466.27,726.61q-2.26-9.89-1.74-15.85l-4.64-10.3,11.65,21c21.62,37.39,49.83,83.84,66.46,114.91-5.33-8.93-11.85-19.46-18.08-29.47l-6.08-9.76c-3.91-6.28-7.46-12-10.22-16.56l1.86,2.6-13.86-19.62L479,743.14l12.59,20.41-25.35-36.94"/><path class="cls-2" d="M769.32,906.85l-.21-1,1.93,5.37c6.14,21.45,12.47,42.85,18.84,62.58q5.64,18.08,11.35,37,.71,2.37,1.43,4.74l.49,1.49c.3.92.61,1.85.91,2.79.59,1.85,1.17,3.7,1.73,5.61.46,1.53.91,3.1,1.37,4.76a71,71,0,0,1-3.94-7.63l-.33-1.16-16.3-54.1c-6-20.06-11.82-39.64-17.27-60.41"/><path class="cls-2" d="M808.3,1018.06a.5.5,0,0,0,.27,0l.11-.06.05,0,0,0h0v-.08c.37-2.58.37-3.78.06-4l.76.54c0,.34,0,.86-.12,1.54a11.37,11.37,0,0,1-.42,2.06c-.09.29-.2.51-.29.51h0v0l.06.39-.06.25,0,.05v0l0-.07-.06-.15-.11-.29-.23-.63"/><path class="cls-2" d="M810.07,1017.69c.18-1.18.29-2.14.33-2.89l.27-.17c-.14.83-.35,1.88-.6,3.06"/><polyline class="cls-2" points="750.53 904.92 749.68 900.33 750.29 903.15 750.59 904.55 751.03 906.45 750.53 904.92"/><polyline class="cls-2" points="837.59 1040.65 831.3 1058.06 837.59 1040.65"/><polyline class="cls-2" points="831.3 1058.06 830.46 1060.61 831.3 1058.06"/><polyline class="cls-2" points="861.01 887.63 857.78 894.98 861.01 887.63"/><polyline class="cls-2" points="853.09 988.38 851.85 991.34 853.09 988.38"/><path class="cls-2" d="M657.34,1021.6l-.28.14c0,.11-.09-.23-.12-.38l-.12-.55-.75-4,.75,4,.12.55c0,.15.07.49.12.38l.28-.14"/><polyline class="cls-2" points="749.68 900.33 748.06 890.6 749.68 900.33"/><polyline class="cls-2" points="851.75 906.45 847.66 916.89 851.12 907.91 851.75 906.45"/><polyline class="cls-2" points="866.59 874.31 861.01 887.63 864.62 878.71 866.59 874.31"/><path class="cls-2" d="M828.38,969.61l5.38-16.81,1.17-3-1.17,3,1.17-3,.09,0c-2.21,6.59-4.47,13.17-6.64,19.77"/><path class="cls-2" d="M859.89,887.22l-8.13,19.23-4.1,10.44,3.46-9c-4,9.65-8,19.68-12.18,30.13s-8.34,21.3-12.5,32.59l-.58,3.2c3.57-10.08,7.27-20.12,10.93-30.17l-3,9.14,1.17-3,2.23-6L835,949.84l5.83-15L846.76,920l-5,11.84,6.1-14.85-1.09,3,5.65-13.28,7.48-19.47m-12,29.74,1.09-3-1.09,3"/><polyline class="cls-2" points="851.12 907.91 847.66 916.89 851.12 907.91"/><polyline class="cls-2" points="834.93 949.81 833.76 952.8 834.93 949.81"/><path class="cls-2" d="M875.2,851.87l-3,7.43L868,869.7c-4.4,10.33-8.66,20.72-13,31.09l-2.6,5.9,7.48-19.47c5-11.82,10.21-23.57,15.31-35.35"/><polyline class="cls-2" points="837.16 943.79 835.02 949.84 834.93 949.81 837.16 943.79"/><polyline class="cls-2" points="837.16 943.79 835.02 949.84 837.16 943.79"/><polyline class="cls-2" points="876.43 848.9 874.15 854.77 872.2 859.3 875.2 851.87 876.43 848.9"/><polyline class="cls-2" points="874.73 853.4 874.15 854.77 874.73 853.4"/><polyline class="cls-2" points="873.14 857.38 866.59 874.31 869.96 865.3 873.14 857.38"/><polyline class="cls-2" points="834.93 949.81 833.76 952.8 834.93 949.81"/><polyline class="cls-2" points="874.73 853.4 873.14 857.38 874.73 853.4"/><polyline class="cls-2" points="874.15 854.77 873.14 857.38 869.96 865.3 867.99 869.7 872.2 859.3 867.99 869.7 872.2 859.3 874.15 854.77"/><polyline class="cls-2" points="874.73 853.4 873.14 857.38 874.15 854.77 874.73 853.4"/><polyline class="cls-2" points="873.14 857.38 869.96 865.3 873.14 857.38"/><polyline class="cls-2" points="872.2 859.3 867.99 869.7 872.2 859.3"/><polyline class="cls-2" points="869.96 865.3 866.59 874.31 864.62 878.71 869.96 865.3"/><polyline class="cls-2" points="866.59 874.31 864.62 878.71 866.59 874.31"/><polyline class="cls-2" points="869.96 865.3 866.59 874.31 869.96 865.3"/><path class="cls-2" d="M870,865.3l-5.34,13.41L861.29,886q3-7.42,6.14-14.82l.56-1.5,2-4.4"/><polyline class="cls-2" points="869.96 865.3 864.62 878.71 869.96 865.3"/><polyline class="cls-2" points="848.94 913.94 847.85 916.96 848.94 913.94"/><polyline class="cls-2" points="847.85 916.96 846.76 919.97 841.75 931.81 847.85 916.96"/><polyline class="cls-2" points="847.85 916.96 846.76 919.97 847.85 916.96"/><polyline class="cls-2" points="846.76 919.97 841.75 931.81 846.76 919.97"/><polyline class="cls-2" points="855.01 900.79 851.42 909.73 852.41 906.69 855.01 900.79"/><path class="cls-2" d="M868,869.7l-.56,1.5c-4.21,9.84-8.28,19.73-12.42,29.59,4.32-10.37,8.58-20.76,13-31.09"/><polyline class="cls-2" points="867.99 869.7 867.43 871.2 867.99 869.7 867.43 871.2 867.99 869.7"/><polyline class="cls-2" points="867.99 869.7 867.43 871.2 867.99 869.7"/><polyline class="cls-2" points="842.33 999.86 833.66 1022.2 843.28 996.8 842.33 999.86"/><path class="cls-2" d="M839.1,1010.56l-4.36,10.32-.55,1.29-.63,1.57-1.31,3.23-2.55,6.32c2-5.29,4.38-11.49,6-15.45l5.3-13.37-1.87,6.09"/><path class="cls-2" d="M835.69,1030.2c-5.18,15.39-10.14,30.25-14.83,43.92s-9,26.12-12.8,36.36l13.42-39.69-.71,2.16,14.92-42.75"/><polyline class="cls-2" points="835.69 1030.2 820.77 1072.95 821.48 1070.79 835.69 1030.2"/><polyline class="cls-2" points="835.69 1030.2 820.77 1072.95 835.69 1030.2"/><polyline class="cls-2" points="837.13 1016.64 835.61 1020.34 834.85 1022.19 833.95 1024.45 839.1 1010.56 837.13 1016.64"/><polyline class="cls-2" points="858.24 954.68 854.85 963.64 858.24 954.68"/><path class="cls-2" d="M973.88,650.12l2.88-7.45,3.68-10.6c-3.72,8-7.45,15.93-11.35,24.26s-7.74,17.11-11.88,26.64l2.85-5.73c-4.42,10.27-8.3,19-12.09,27.42s-7.41,16.4-11.17,25.23l18.45-40.59c6.45-14,12.82-27.77,18.63-39.18"/><polyline class="cls-2" points="925.04 761.34 922.56 767.24 925.04 761.34"/><polyline class="cls-2" points="957.21 682.97 953.41 691.78 957.21 682.97"/><polyline class="cls-2" points="928.89 752.56 925.04 761.34 928.89 752.56"/><polyline class="cls-2" points="854.63 956.78 851.24 965.75 847.5 974.6 854.44 956.72 854.63 956.78"/><polyline class="cls-2" points="854.82 956.85 851.24 965.75 854.63 956.78 854.82 956.85"/><path class="cls-2" d="M857.11,954.28l-3,7.39q-3.74,8.85-7.39,17.72c2.83-7.48,5.73-14.92,8.61-22.37l1.82-2.74"/><polyline class="cls-2" points="857.2 954.31 854.07 961.67 857.11 954.28 857.2 954.31"/><polyline class="cls-2" points="858.02 952.9 849.53 973.63 854.07 961.67 857.2 954.31 858.02 952.9"/><path class="cls-2" d="M854.44,956.72,847.5,974.6l3.74-8.85c-6,16.52-13.1,36-19.12,52.57,2.88-9,5.81-17.91,8.92-26.79q4-11.44,8.06-22.86l8.22-22.79-2.88,10.84"/><polyline class="cls-2" points="854.44 956.72 847.5 974.6 854.44 956.72"/><path class="cls-2" d="M859.83,938.29c-4.32,11.18-8.79,23.16-13.07,34.36s-8.3,21.65-11.75,29.77c.56-1.67,1.11-3.3,1.66-4.91,10.8-31.22,20.13-52.42,31.54-83.94l.92-2.51c-3.16,7.35-7,17-11,26.63s-7.7,19.32-10.8,26.7c4.65-11.92,9.17-23.46,13.79-34.76q3.44-8.46,6.84-16.82l6.91-16.65-7.6,21.05-7.49,21.08"/><path class="cls-2" d="M844.29,973.48c-4.25,10.37-8.58,20.71-12.77,31.11q2.49-6.75,5.06-13.48l7.71-17.63"/><polyline class="cls-2" points="817.7 1041.46 816.42 1044.96 815.98 1045.99 817.7 1041.46"/><path class="cls-2" d="M826.08,1019.64l-2.46,6.3-5.92,15.52-1.27,3.5,9.65-25.32m-2.46,6.3-5.92,15.52,5.92-15.52"/><path class="cls-2" d="M836.58,991.11q-2.57,6.74-5.06,13.48l-7.9,21.35-5.92,15.52L816,1046l.45-1c-2.83,6.72-5.34,12.69-7.64,17.87,2.67-7.76,5.31-15.71,8.14-23.77,2.39-5.24,5.18-12.08,8.4-19.89,3.79-9.49,7.56-19.18,11.25-28.06"/><path class="cls-2" d="M836.58,991.11q-2.57,6.74-5.06,13.48,2.49-6.75,5.06-13.48"/><polyline class="cls-2" points="817.7 1041.46 815.98 1045.99 817.7 1041.46"/><polyline class="cls-2" points="823.62 1025.94 817.7 1041.46 823.62 1025.94"/><polyline class="cls-2" points="823.62 1025.94 817.7 1041.46 823.62 1025.94"/><path class="cls-2" d="M814.42,1044.36c-2.3,6.47-4.42,12.31-6.23,16.89l-.13.33c0-.12-.08-.3-.12-.45l-.23-.91-.45-1.8-.86-3.5c-.54-2.28-1-4.46-1.49-6.54l1.66,5.25.83,2.6.41,1.3.21.64.05.16,0,.08,0,0v0l.11-.35,4-12.64-.81,4.4c.93-1.6,2-3.42,3-5.47"/><polyline class="cls-2" points="722.75 917.72 717.72 931.34 718.96 926.67 722.75 917.72"/><path class="cls-2" d="M509.7,829.5c-14.18-28.83-24.89-52.29-32.82-71.83L502,798.54c26.75,44.3,52.07,89.49,48.81,90.68-.47.17-1.52-.56-3.23-2.32-12.93-20.2-26.28-40.13-37.85-57.4"/><path class="cls-2" d="M610.33,990.39l-2.79-5.67c2.93,4.69,4.8,7.26,7.08,10.73,1.14,1.73,2.42,3.68,3.92,6.25s3.34,5.73,5.53,9.92c-2.31-2.35-7.85-11.88-13.74-21.23"/><path class="cls-2" d="M578.2,939.37C572.58,927.76,564,913.14,554.55,898l-7-11.14c1.71,1.76,2.76,2.49,3.23,2.32C554,888,528.72,842.84,502,798.54l62.49,101.09q10.47,16.85,20.92,33.66c10.1,16.26,20.19,32.5,29.74,49q7.2,12.38,13.88,25l3.32,6.33,3.22,6.37c1.24,2.43,2.35,4.87,3.52,7.3l1.74,3.64c.57,1.22,1.11,2.47,1.67,3.71-.55-2-1.05-3.93-1.6-5.74l-3.14-6.77-.8-1.68-.8-1.62-1.52-3.09c-2-4.13-4.16-8.19-6.27-12.28q-6.3-11.84-13-23.37c-1.38-2.41-2.8-4.78-4.18-7.15-8.36-14.22-16.91-28-25-41.23s-15.69-26-22.55-37.9c11.69,18,23.63,36.65,35.29,55.58,7.71,12.56,15.25,25.26,22.25,38.06,3.44,6.31,6.8,12.62,10,18.95,1.58,3.17,3.15,6.32,4.63,9.5.76,1.6,1.51,3.2,2.27,4.79s1.48,3.31,2.23,5,1.5,3.31,2.21,5l2.13,5.09c1.45,3.39,2.78,6.9,4.14,10.43,2.71,7,5.28,14.33,7.72,21.7l.49,1,.25.5.12.25.06.12s0,.11.07,0c.36-.79.73-1.58,1.1-2.37.74-1.59,1.47-3.17,2.21-4.74q2.22-4.8,4.39-9.46c1.48-3.19,2.93-6.35,4.36-9.45s2.91-6.39,4.34-9.51c1.53-3.33,3.11-7.09,4.87-11.26l2.71-6.47c.78-1.94,1.59-3.94,2.42-6,1.66-4.09,3.34-8.38,5-12.78s3.39-8.9,5-13.41c-1.56,4.26-3.12,8.53-4.74,12.78s-3.2,8.5-4.86,12.73l-.3,3.32c5.07-11.23,9.91-22.57,14.7-33.94l-3.43,9c-2.06,5.52-4.24,11-6.36,16.5l-3.27,8.21-1.64,4.1-2,5-3.82,9.4c-.62,1.55-1.29,3.14-2,4.73l-2,4.75c-2.64,6.33-5.32,12.55-8,18.7q-2.46,5.71-4.94,11.44l-2.48,5.79-1.23,2.91s-.06.16-.08.13l-.07,0-.14-.06-.28-.11-.56-.23h0l-.07,0q-1.8-4.8-3.6-9.65L649,1060c-2.63-6.5-5.3-13.24-8.21-19.64q-1.07-2.45-2.16-4.9c-.74-1.62-1.53-3.19-2.3-4.8l-2.34-4.84-1.19-2.44-1.15-2.24c-1.27-2.42-2.52-4.87-3.84-7.31l-4-7.4c2,4,4,8,5.92,12l1.44,3,.91,1.89c.33.69.63,1.4,1,2.09l3.8,8.45.84,2,.67,1.88c.41,1.17.75,2.17,1,3a18.56,18.56,0,0,1,.85,3.18c.06,1-1-.8-3-4.7l-8.48-16.32c-4.93-9-11.46-20.42-17-29.81l-1.38-2.85c5.89,9.35,11.43,18.88,13.74,21.23-2.19-4.19-4-7.35-5.53-9.92s-2.78-4.52-3.92-6.25c-2.28-3.47-4.15-6-7.08-10.73-.69-2-1.43-4.05-2.15-6.07-3.44-6.55-7-13.07-10.57-19.58,3.57,4.34.34-1.6-3.51-8.36s-8.27-14.35-6.83-13.36l-19.42-33.1L552.81,887.4c13.84,25.27,28.45,52,25.39,52"/><path class="cls-2" d="M550.78,889.22C554,888,528.72,842.84,502,798.54c26.75,44.3,52.07,89.49,48.81,90.68"/><path class="cls-2" d="M607.54,984.72c2.93,4.69,4.8,7.26,7.08,10.73,1.14,1.73,2.42,3.68,3.92,6.25s3.34,5.73,5.53,9.92c-2.19-4.19-4-7.35-5.53-9.92s-2.78-4.52-3.92-6.25c-2.28-3.47-4.15-6-7.08-10.73"/><path class="cls-2" d="M707.17,958.37,703,968.84l-4.26,10.43-3.43,9c-2.06,5.52-4.24,11-6.36,16.5l-3.27,8.21-1.64,4.1-2,5-.57,2,6.37-15.47c1.94-4.7,3.79-9.44,5.69-14.17-2,5.27-3.9,10.55-5.93,15.8l-3,7.88-4,10.25,2.58-5.92,2.47-5.84c1.37-3.29,2.77-6.74,4.19-10.28,2.78-7.11,5.64-14.63,8.42-22.17q4.64-12.87,9-25.81m-11.87,29.9c-2.06,5.52-4.24,11-6.36,16.5l-3.27,8.21-1.64,4.1-2,5,2-5,1.64-4.1,3.27-8.21c2.12-5.5,4.3-11,6.36-16.5"/><path class="cls-2" d="M695.3,988.27c-2.06,5.52-4.24,11-6.36,16.5l-3.27,8.21-1.64,4.1-2,5,2-5,1.64-4.1,3.27-8.21c2.12-5.5,4.3-11,6.36-16.5"/><polyline class="cls-2" points="607.8 986.37 607.54 984.72 610.33 990.39 607.8 986.37"/><polyline class="cls-2" points="544.33 849.37 544.08 847.64 544.33 849.37"/><path class="cls-3" d="M607.52,1006.3c-4.23-9.18-6.53-14.64-7.39-17.78s-.38-3.95.72-3.8c2.21.3,6.69,4.53,6.95,1.65l2.53,4,1.38,2.85c5.51,9.39,12,20.84,17,29.81l8.48,16.32c2,3.9,3.05,5.69,3,4.7a18.56,18.56,0,0,0-.85-3.18c-.28-.84-.62-1.84-1-3l-.67-1.88-.84-2-3.8-8.45c-.32-.69-.62-1.4-1-2.09l-.91-1.89-1.44-3c-1.89-4-3.94-8-5.92-12l4,7.4c1.32,2.44,2.57,4.89,3.84,7.31l1.15,2.24,1.19,2.44,2.34,4.84c.77,1.61,1.56,3.18,2.3,4.8s1.45,3.27,2.16,4.9c2.91,6.4,5.58,13.14,8.21,19.64l3.83,9.8q1.8,4.85,3.6,9.65l.07,0,.56.23.28.11.14.06c.05,0,.09.08.14-.1l1.24-2.91,2.48-5.78,4.94-11.45c2.66-6.15,5.34-12.37,8-18.7l2-4.75c.67-1.59,1.34-3.18,2-4.73l3.82-9.4-.57,2-3.46,8.52-3.6,8.63-3.61,8.59-3.64,8.46c2.09-4.34,4.4-9.39,6.82-15l3.76-8.68q1.81-4.44,3.71-9l1.88-4.66c.57-1.43,1.15-2.86,1.72-4.3,1-2.44,1.92-4.91,2.88-7.38,1.94-4.93,3.75-9.93,5.6-14.82-2,5.27-3.9,10.55-5.93,15.8l-3,7.88-4,10.25,2.58-5.92,2.47-5.84c1.37-3.29,2.77-6.74,4.19-10.28,2.78-7.11,5.64-14.63,8.42-22.17l-1.16,4.7c2.82-5.82,5.57-11.68,8.31-17.55q-6.69,17.29-13.84,34.4l-3.62,12.38a444.52,444.52,0,0,0,23.57-49.8c-6.25,15.8-12.28,29.51-19,44.66q-1.25,2.84-2.54,5.75c-1.17,2.73-2.37,5.49-3.59,8.3l-3.91,9.14-1,2.33c-.36.8-.71,1.61-1.07,2.42l-2.16,4.9c-5.65,12.93-11.81,27-18.75,42.87l-.91,3.34-.47,1.68-.24.85a5.85,5.85,0,0,1-.23.75c-.45.33-.89.64-1.33.94l-4-12.22c1.09,3.81,2.43,8.26,4,13.32.42-.25.86-.53,1.31-.85.11,0,.24-.35.36-.58l.38-.75c.25-.51.51-1,.76-1.55,1.05-2.14,2.12-4.35,3.22-6.59l6.79-14.12c2.31-4.78,4.54-9.37,6.52-13.46s3.88-7.83,5.4-10.59c-3.32,7.35-6.57,14.54-9.79,21.45l-9.48,20.45c.58,0,3.28-5.12,6.32-11.19s6.45-13,8.31-16.35c-4.92,10.68-8.55,17.85-11.71,23.78-1.58,3-3,5.57-4.41,8.09-.69,1.25-1.37,2.5-2.07,3.76a7.62,7.62,0,0,1-.51.88l-.47.36-.95.68c-3.72-12.32-8-25.46-15-43.77-.26-.66-.52-1.33-.77-2l-1.22-3-2.82-6.79c-.45-1.1-.9-2.17-1.34-3.23l-.66-1.57-.69-1.46-5.14-10.83c-.4-.84-.8-1.66-1.2-2.45-.22-.42-.43-.84-.65-1.24l-.39-.73-1.45-2.66c-.94-1.7-1.78-3.25-2.62-4.62-1.66-2.76-3.06-4.93-4.21-6.56a21,21,0,0,0-2.79-3.32c-2.79-2.41-1.7,2.82,1.63,12.28-1.3-2.82-2.55-5.66-3.88-8.47-8.66-14.76-2.5-.42-5.5-4.08"/><path class="cls-2" d="M640.15,1044.07a18.56,18.56,0,0,0-.85-3.18c-.28-.84-.62-1.84-1-3l-.67-1.88-.84-2-3.8-8.45c-.32-.69-.62-1.4-1-2.09l-.91-1.89-1.44-3c-1.89-4-3.94-8-5.92-12,2,4,4,8,5.92,12l1.44,3,.91,1.89c.33.69.63,1.4,1,2.09l3.8,8.45.84,2,.67,1.88c.41,1.17.75,2.17,1,3a18.56,18.56,0,0,1,.85,3.18"/><path class="cls-2" d="M623.74,1006.45l4,7.4c1.32,2.44,2.57,4.89,3.84,7.31l1.15,2.24,1.19,2.44,2.34,4.84c.77,1.61,1.56,3.18,2.3,4.8s1.45,3.27,2.16,4.9c2.91,6.4,5.58,13.14,8.21,19.64l3.83,9.8q1.8,4.85,3.6,9.65l.07,0-.07,0q-1.8-4.8-3.6-9.65L649,1060c-2.63-6.5-5.3-13.24-8.21-19.64q-1.07-2.45-2.16-4.9c-.74-1.62-1.53-3.19-2.3-4.8l-2.34-4.84-1.19-2.44-1.15-2.24c-1.27-2.42-2.52-4.87-3.84-7.31l-4-7.4"/><path class="cls-2" d="M693.49,994.46c-2,5.27-3.9,10.55-5.93,15.8l-3,7.88-4,10.25,4-10.25,3-7.88c2-5.25,4-10.53,5.93-15.8"/><polyline class="cls-2" points="681.43 1024.1 682 1022.08 681.43 1024.1"/><path class="cls-3" d="M711.21,934.34l1.74-6.16,1.78-7.86-3,9.14,3-9.14-.29-1.77-3.83,10.56-3.92,10.53,4.16-12.12c-2.29,6-4.53,12-6.9,18,1.37-3.76,2.69-7.54,4-11.32s2.64-7.56,3.92-11.36l-.48-.15c-.92,2.51-1.8,5-2.75,7.53-6.13,18.19-12.79,37.9-19.31,54.26l8-23.36c5.62-16.55,11.22-33.37,16.56-51.06l1.64-6.18c-3.68,11.43-7.65,23.58-11.61,34.9s-7.91,21.78-11.41,29.87c.56-1.66,1.12-3.28,1.67-4.88l14.59-42.17c2.3-6.67,4.49-13.35,6.75-20.43,1.09-3.57,2.21-7.21,3.36-11s2.19-7.62,3.32-11.67c.24-.86.48-1.73.71-2.59-1.2,3.54-2.61,7.8-4.13,12.49l-4.94,15c-3.32,9.84-6.73,19.65-9.57,27.12,2.13-6,4.16-12,6.18-17.85,1-3,2-5.87,3-8.78l.74-2.2.76-2.33,1.5-4.58,5.68-17.48,2.61-8.22,1.25-4.06c.41-1.32.83-2.63,1.28-3.92.31-1,.63-2,1-3a30.74,30.74,0,0,1,5.5-9.86,14,14,0,0,1,4.37-3.39,7.17,7.17,0,0,1,1.27-.55,7.56,7.56,0,0,1,1.33-.4l.67-.15.34-.08c.08,0,.06.07.08.12l0,.18.32,1.42q2.53,11.2,5,22l4.78,20.76q1.18,5,2.36,10l2.43,10.16L749,872.61l7.63,35.7c5.36,22.56,10.71,44.3,16.16,65.82,2.75,10.76,5.5,21.46,8.25,32.19q2.13,8.19,4.29,16.41,2.6,9.64,5.21,19.36c-1.73-7.09-3.41-13.91-5-20.51l-3.94-17.32c1.75,5.34,3.5,10.8,5.26,16.51,1.82,6,3.67,12.11,5.51,18.15,3.61,12,7.16,23.79,10.38,33.8-5-17.88-9.27-34-13.13-48.94s-7.57-29.62-11.63-45.07c4.06,15.45,7.8,30.19,11.63,45.07s8.11,31.06,13.13,48.94l2,6.15-11.95-46.71c-3.68-14.4-7.58-29.82-10.63-43,2.43,9.27,4.52,17.82,6.79,26.72q.82,3.23,1.67,6.55l1.74,6.64c1.22,4.56,2.54,9.39,4,14.54l-1.44-6.3-2.42-8.7,2.42,8.7c2.28,8,4.39,15.79,6.51,23.54,1.08,4,2.13,7.83,3.16,11.65q.81,3,1.59,5.88c.27,1,.54,2,.8,3l.41,1.49.2.74s0,.07,0,.09l0-.08,0-.14.11-.3,2.38-6.44c3-11,5.8-22,8.68-32.08q2.16-7.62,4.29-14.79c.72-2.4,1.44-4.77,2.19-7.11l1.16-3.57,1.32-4,3.61-10.6-7.9,21.35,2.46-6.3L816.43,1045c-2.83,6.72-5.34,12.69-7.64,17.87,2.67-7.76,5.31-15.71,8.14-23.77l-2.51,5.3c-2.3,6.47-4.42,12.31-6.23,16.89l-.13.33c0-.12-.08-.3-.12-.45l-.23-.91-.45-1.8-.86-3.5c-.54-2.28-1-4.46-1.49-6.54l1.66,5.25.83,2.6.41,1.3.21.64.05.16,0,.08,0,0v0l.11-.35,4-12.64,3.62-15a6,6,0,0,1-1.49-.91,46.34,46.34,0,0,0-2.93,5.14c-1,2-1.95,4.15-2.94,6.7,0,0-.06.16-.08.17l-.08-.29-.15-.57-.3-1.15c-.2-.74-.41-1.49-.62-2.26-.41-1.43-.84-2.91-1.28-4.43-.17-.57-.35-1.15-.52-1.74-.16,1.26-.3,2.55-.43,3.88-.21-1.89-.39-3.65-.52-5.3q-1.11-1.79-2.42-4.29l-1.66-6.43c-.23-.37-.45-.78-.67-1.22l-.34-.69-.16-.36s-.08-.21-.13-.33l-.14-.4q-1.15-3.21-2.31-6.78c-1.54-4.74-3-9.9-4.57-15.27-3-10.74-6-22.33-8.78-33.13l2,9.36a141.4,141.4,0,0,1-5.45-16.82c-2.52-9.33-4.7-19.42-6.7-27.79l-3.87-18.63c-.16-.58-.3-1.11-.45-1.66l.24.66-.14-.68-4.24-17.42-2.43-10-2.44-10.31-2.46-11.32-.62-2.86-.08-.36a1.84,1.84,0,0,0-.09-.28l-.18-.55-.38-1.1-1.51-4.39-3.37-10.15,3.37,10.15,2,5.77a14.39,14.39,0,0,1,.45,1.76l.42,1.89.84,3.77L757,853.19c-.06-.26-.11-.57-.17-.8l-.2-.64-.4-1.28-.81-2.56.86,2.41.43,1.21.22.6c.07.23.12.52.18.78l1.42,6.35,2.81,12.58-2.76-12.68-1.4-6.44c-.06-.26-.11-.56-.18-.78l-.21-.62-.43-1.22-.85-2.45L752,837.8l-1.77-4.95a.48.48,0,0,0-.22-.33l-.22-.18-.44-.34-.88-.69q-2.5-1.75-5-3.33l1.48.68c-.54-.38-1.09-.75-1.64-1.11,0-.16-.52,0-.85.07l-1.06.24c-.7.16-1.35.34-2,.51l-1.93.57-1.78.6c-.55.21-1.14.4-1.66.63s-1.06.46-1.54.73a29.79,29.79,0,0,0-5.44,3.84,41.91,41.91,0,0,0-4.5,4.62c-.35.41-.71.85-1.06,1.3a7.48,7.48,0,0,0-.53.72l-.56.93-2.25,3.79c-1.5,2.55-3,5.15-4.5,7.8l-.36.72a1.89,1.89,0,0,0-.17.48l-.15.53-.61,2.15-1.23,4.29-2.43,8.54c-1.66,5.7-3.17,11.33-4.72,16.95,2.52-9.52,5.26-19.21,8-29l1.13-4c.44-.93.89-1.81,1.34-2.71q1.35-2.68,2.74-5.33l-2.36,4.26L713.6,853,713,854a4.29,4.29,0,0,0-.26.73l-.24.82-3.94,13.1c-2.69,8.77-5.12,17.49-7.69,26.28l.29-2.86L700,896.16l-.3,1-.24.77-.38,1.19-1.56,4.9-3.32,10.4c-2.28,7.16-4.74,14.66-7.2,22.16l-.49,1.49q-4,12.82-8.17,25.59c1.22-3.76,2.37-7.54,3.54-11.31s2.32-7.55,3.45-11.34L684,942.27c-4.68,14.46-9.48,30-15.13,45.39-1.41,3.78-2.81,7.59-4.33,11.35l1.3-2.87L660,1011.72c-.33,1.13-.4,1.56-.6,2.32s-.37,1.51-.56,2.25c-.41,1.59-.9,3.35-1.47,5.31a6.4,6.4,0,0,0,1.19-.93,6.4,6.4,0,0,1-1.19.93l-.28.95,0,.12a.1.1,0,0,1,0,0l-.06-.09-.12-.19q-1.37-2.28-3.72-5.8c-.76-1.17-1.69-2.51-2.58-3.8-1.2-2.14-2.4-4.25-3.58-6.33s-2.47-4.21-3.68-6.28c-2.42-4.13-4.91-8-7.29-11.9s-4.8-7.49-7.17-11c-4.68-7.06-9.24-13.49-13.52-19.35,12.17,19,23.79,38.51,33.24,55.71a122.81,122.81,0,0,1,8.24,16.56l.34.84c.13-.29.25-.65.38-1l.75-1.93c.49-1.25,1-2.5,1.48-3.76,1-2.42,1.92-4.86,2.9-7.32.54-1.37,1.08-2.75,1.63-4.13l-2.13,7.58c-.71,2.52-1.55,5.21-2.44,8.11l.28-.68c-.4,1.51-.84,3.08-1.31,4.73l1-4.05-1.51,3.64-.74,1.82-.19.45-.09.23s0-.12-.08-.18l-.32-.84A125.69,125.69,0,0,0,651,1021c-1-2.09-2.19-4.17-3.34-6.31l-.21-.38-.11-.18-.22-.41-.87-1.64-1.74-3.27c-1.14-2.18-2.35-4.31-3.53-6.46-4.73-8.56-9.62-16.93-14.68-25.36s-10.26-16.94-15.66-25.76l4.59,6.62c-7.31-11.58-14.76-23-22.2-34.37l-22.3-34.12L552.51,865l13.35,21.82-8-11.95c-1.26-1.68-5.84-8.53-6.49-9.1-.41-.35.81,1.88,5.57,9.74S570,896.83,583.76,919l14.52,23c-16.7-25.4-31.85-48-44.94-66.18l10.3,18.07c11.68,18,23.63,36.65,35.29,55.58,7.71,12.55,15.25,25.26,22.25,38.06,3.44,6.31,6.8,12.62,10,18.95,1.58,3.17,3.15,6.32,4.63,9.5.76,1.6,1.51,3.2,2.27,4.79s1.48,3.31,2.23,5,1.5,3.31,2.21,5l2.13,5.09c1.45,3.39,2.78,6.9,4.14,10.43,2.71,7,5.28,14.33,7.72,21.7l.49,1,.25.5.12.25.06.12s0,.11.07,0c.36-.79.73-1.58,1.1-2.37.74-1.59,1.47-3.17,2.21-4.74q2.22-4.8,4.39-9.46c1.48-3.19,2.93-6.35,4.36-9.45s2.91-6.39,4.34-9.51c1.53-3.33,3.11-7.09,4.87-11.26l2.71-6.47c.78-1.94,1.59-3.94,2.42-6,1.66-4.09,3.34-8.38,5-12.78s3.39-8.9,5-13.41l1.09-3-3.72,8.89c1.73-4.49,3.52-9,5.22-13.46-1.47,3.45-3,6.87-4.52,10.3s-3,6.86-4.59,10.27c1.9-4.42,3.74-8.87,5.58-13.32s3.64-8.91,5.45-13.37l1.39-4.62c-2.94,7.48-5.89,14.94-8.94,22.36q5.05-12.66,9.87-25.42l1.67-6.21c3-7.46,5.93-14.93,8.78-22.44m63.47,32c2.79,11.67,5.39,22.56,8.17,34.22,1.41,5.84,2.91,11.85,4.56,18.24,1.67,6.54,3.63,13.74,5.79,21.55-2.16-7.81-4.12-15-5.79-21.55-1.65-6.39-3.15-12.4-4.56-18.24-2.78-11.66-5.38-22.55-8.17-34.22l-2.21-9.33-1.57-6.2,1.57,6.2,2.21,9.33-.71-1.46-6.33-24.78L774,964.92l.71,1.46M738.06,842.77a12.78,12.78,0,0,1,1.9-.84c.64-.24,1.32-.37,2-.55.32,1.29.64,2.54,1,3.77.62,2.49,1.2,4.93,1.76,7.35s1.08,4.83,1.6,7.26,1,4.81,1.47,7.17c.94,4.73,1.86,9.27,2.83,13.81s2,9.07,3.17,13.9c-1.2-4.83-2.21-9.36-3.17-13.9s-1.89-9.08-2.83-13.81c-.47-2.36-1-4.76-1.47-7.17s-1-4.85-1.6-7.26-1.14-4.86-1.76-7.35c-.31-1.23-.63-2.48-1-3.77-.65.18-1.33.31-2,.55a12.78,12.78,0,0,0-1.9.84m-10.63,15.31-.5,1.51c-.8,2.46-1.5,5-2.26,7.54l-2.26,7.63,2.26-7.63c.76-2.54,1.46-5.08,2.26-7.54l.5-1.51a33.65,33.65,0,0,1,6.34-11.44,15.09,15.09,0,0,1,5.05-3.67c.49-.18,1-.38,1.47-.54l1.52-.35c.08-.05.06.08.09.13l0,.2.09.41.18.84.35,1.69c1.85,9,3.64,17.55,5.75,26.76-2.11-9.21-3.9-17.78-5.75-26.76l-.35-1.69-.18-.84-.09-.41,0-.2c0-.05,0-.18-.09-.13l-1.52.35c-.5.16-1,.36-1.47.54a15.09,15.09,0,0,0-5.05,3.67,33.65,33.65,0,0,0-6.34,11.44m42.19,91.46-2.75-9.2,2.75,9.2m-149,27.62c-7.25-11.89-14.75-23.58-22.33-35.21,7.58,11.63,15.08,23.32,22.33,35.21m0,0c-7.25-11.89-14.75-23.58-22.33-35.21,7.58,11.63,15.08,23.32,22.33,35.21m0,0,3.29,5.53c1.13,1.82,2.21,3.67,3.32,5.5s2.16,3.71,3.2,5.59l3.07,5.28.32.55c1,1.78,2,3.6,2.94,5.4s2.13,3.74,3.13,5.65l3,5.73c.76,1.34,1.47,2.76,2.2,4.1s1.46,2.69,2.12,4l1.48,3q1,2,1.92,3.9l1.84,3.82,1.68,3.73c.42.89.85,1.76,1.22,2.63l1.32,3.13.19.44.27.56.07.14,0,.07v0a.08.08,0,0,0,0,0l.16-.46.6-1.83c-.24.61-.49,1.22-.73,1.81l0,.11s0,0,0-.07l-.08-.2-.16-.4-.3-.78a192.42,192.42,0,0,0-8.28-18.52c-1.49-3-3.13-6-4.77-9-1.14-2.09-2.27-4.16-3.39-6.23s-2.39-4.24-3.57-6.35l-1.12-2-.86-1.5c-1.3-2.21-2.6-4.44-3.91-6.66l-.92-1.59-3.31-5.51-1.87-3.06c-1.35-2.17-2.68-4.33-4-6.53M565.86,886.8l4.46,7.21,3.14,5,3.38,5.44,3.46,5.36,4.32,6.75,2.12,3.18,5.74,8.7.08.12,3.54,5.33-3.54-5.33,3.54,5.33-3.54-5.33,0,0,3.57,5.38c-1.45-2.16-3-4.52-4.57-6.93l-2.44-3.79-4.3-6.72-1.37-2.12-4-6.31-2.32-3.73-2.47-3.84c-3-4.75-6-9.39-8.77-13.65M805,1034.93l-.12.66.77,3.61-.65-4.27"/><path class="cls-2" d="M620.61,977.16c4.38,7.18,8.7,14.5,12.88,21.9l-3.07-5.28c-1-1.88-2.13-3.72-3.2-5.59s-2.19-3.68-3.32-5.5l-3.29-5.53"/><path class="cls-2" d="M624.65,983.69l1.87,3.06,3.31,5.51.92,1.59c-2-3.38-4.06-6.75-6.1-10.16"/><path class="cls-2" d="M633.81,999.61c2.84,5.08,5.65,10.17,8.33,15.29l1.68,3.15,1.42,2.73q1.44,2.7,2.72,5.3c3.48,6.93,6.43,13.22,8.68,18.47l.34.76.16.37.08.18s.06-.16.09-.23c.23-.67.46-1.32.69-2l-.6,1.83-.16.46a.08.08,0,0,1,0,0v0l0-.07-.07-.14-.27-.56-.19-.44-1.32-3.13c-.37-.87-.8-1.74-1.22-2.63l-1.68-3.73-1.84-3.82q-.92-1.93-1.92-3.9l-1.48-3c-.66-1.34-1.41-2.66-2.12-4s-1.44-2.76-2.2-4.1l-3-5.73c-1-1.91-2.09-3.77-3.13-5.65s-1.94-3.62-2.94-5.4"/><path class="cls-2" d="M634.66,1000.51l.86,1.5,1.12,2-2-3.49"/><path class="cls-2" d="M768.87,905.19l.24.66.21,1c-.16-.58-.3-1.11-.45-1.66"/><path class="cls-2" d="M658.53,1020.67a6.4,6.4,0,0,1-1.19.93,6.4,6.4,0,0,0,1.19-.93"/><polyline class="cls-2" points="826.08 1019.64 823.62 1025.94 826.08 1019.64"/><path class="cls-2" d="M816.93,1039.06c-2.83,8.06-5.47,16-8.14,23.77,2.67-7.76,5.31-15.71,8.14-23.77"/><path class="cls-2" d="M804.91,1048.38l1.66,5.25.83,2.6.41,1.3.21.64.05.16,0,.08,0,0v0l.11-.35,4-12.64-4,12.64-.11.35v0l0,0,0-.08-.05-.16-.21-.64-.41-1.3-.83-2.6-1.66-5.25"/><path class="cls-2" d="M620.61,977.16l3.29,5.53c1.13,1.82,2.21,3.67,3.32,5.5s2.16,3.71,3.2,5.59l3.07,5.28-3.07-5.28c-1-1.88-2.13-3.72-3.2-5.59s-2.19-3.68-3.32-5.5l-3.29-5.53"/><polyline class="cls-2" points="624.65 983.69 626.52 986.75 629.83 992.25 630.75 993.85 629.83 992.25 626.52 986.75 624.65 983.69"/><path class="cls-2" d="M633.81,999.61c1,1.78,2,3.6,2.94,5.4s2.13,3.74,3.13,5.65l3,5.73c.76,1.34,1.47,2.76,2.2,4.1s1.46,2.69,2.12,4l1.48,3q1,2,1.92,3.9l1.84,3.82,1.68,3.73c.42.89.85,1.76,1.22,2.63l1.32,3.13.19.44.27.56.07.14,0,.07v0a.08.08,0,0,0,0,0l.16-.46.6-1.83-.6,1.83-.16.46a.08.08,0,0,1,0,0v0l0-.07-.07-.14-.27-.56-.19-.44-1.32-3.13c-.37-.87-.8-1.74-1.22-2.63l-1.68-3.73-1.84-3.82q-.92-1.93-1.92-3.9l-1.48-3c-.66-1.34-1.41-2.66-2.12-4s-1.44-2.76-2.2-4.1l-3-5.73c-1-1.91-2.09-3.77-3.13-5.65s-1.94-3.62-2.94-5.4"/><polyline class="cls-2" points="634.66 1000.51 635.52 1002.01 636.64 1004 635.52 1002.01 634.66 1000.51"/><path class="cls-2" d="M598.28,942c7.58,11.63,15.08,23.32,22.33,35.21-7.25-11.89-14.75-23.58-22.33-35.21"/><path class="cls-2" d="M598.28,942c7.58,11.63,15.08,23.32,22.33,35.21-7.25-11.89-14.75-23.58-22.33-35.21"/><path class="cls-2" d="M693.93,984.38c-1.66,4.51-3.34,9-5,13.41s-3.36,8.69-5,12.78c-.83,2-1.64,4-2.42,6l-2.71,6.47c-1.76,4.17-3.34,7.93-4.87,11.26q-2.15,4.68-4.34,9.51c-1.43,3.1-2.88,6.26-4.36,9.45s-2.91,6.26-4.39,9.46c-.74,1.57-1.47,3.15-2.21,4.74-.37.79-.74,1.58-1.1,2.37,0,.09-.05,0-.07,0l-.06-.12-.12-.25-.25-.5-.49-1c-2.44-7.37-5-14.65-7.72-21.7-1.36-3.53-2.69-7-4.14-10.43l-2.13-5.09c-.71-1.7-1.48-3.34-2.21-5s-1.49-3.3-2.23-5-1.51-3.19-2.27-4.79c-1.48-3.18-3-6.33-4.63-9.5-3.16-6.33-6.52-12.64-10-18.95,3.44,6.31,6.8,12.62,10,18.95,1.58,3.17,3.15,6.32,4.63,9.5.76,1.6,1.51,3.2,2.27,4.79s1.48,3.31,2.23,5,1.5,3.31,2.21,5l2.13,5.09c1.45,3.39,2.78,6.9,4.14,10.43,2.71,7,5.28,14.33,7.72,21.7l.49,1,.25.5.12.25.06.12s0,.11.07,0c.36-.79.73-1.58,1.1-2.37.74-1.59,1.47-3.17,2.21-4.74q2.22-4.8,4.39-9.46c1.48-3.19,2.93-6.35,4.36-9.45s2.91-6.39,4.34-9.51c1.53-3.33,3.11-7.09,4.87-11.26l2.71-6.47c.78-1.94,1.59-3.94,2.42-6,1.66-4.09,3.34-8.38,5-12.78s3.39-8.9,5-13.41"/><path class="cls-2" d="M563.64,893.84c11.68,18,23.63,36.65,35.29,55.58-11.66-18.93-23.6-37.6-35.29-55.58"/><path class="cls-2" d="M576.84,904.45,573.46,899c4.27,6.81,8.71,13.74,13.28,20.73l-2.12-3.18-4.32-6.75-3.46-5.36"/><path class="cls-2" d="M574.63,900.45l2.47,3.84,2.32,3.73-4.79-7.57"/><path class="cls-2" d="M583.42,914.33l1.37,2.12,4.3,6.72,2.44,3.79c-2.61-4-5.33-8.25-8.11-12.63"/><path class="cls-2" d="M592.48,928.44l0,.07,0,0-.08-.12"/><polyline class="cls-2" points="546.78 853.49 548.55 856.16 546.78 853.49"/><path class="cls-2" d="M552.51,865c-20.77-34.14-40-67.34-60.89-101.43l13.86,19.62-1.86-2.6c2.76,4.56,6.32,10.3,10.23,16.57l6.07,9.75c6.23,10,12.75,20.54,18.08,29.47l6.08,11.28-.09.06.34,1.67-5.59-7.84,8,12,1.77,2.67,22.22,33.24L552.51,865"/><path class="cls-2" d="M513.85,797.14c-3.91-6.27-7.47-12-10.23-16.57,2.76,4.56,6.31,10.28,10.22,16.56l6.08,9.76-6.07-9.75"/><polyline class="cls-2" points="503.62 780.57 505.48 783.17 503.62 780.57"/><polyline class="cls-2" points="544.33 849.37 543.99 847.7 544.08 847.64 544.33 849.37"/><polyline class="cls-2" points="552.51 864.98 570.77 889.4 552.51 864.98"/><path class="cls-2" d="M543.43,862.61c-12.63-20.31-28.06-46.37-40.94-68.16,12.68,16.59,33.38,47,50,70.53l13.35,21.82-8-11.95c-1.26-1.68-5.84-8.53-6.49-9.1-.41-.35.81,1.88,5.57,9.74S570,896.83,583.76,919l14.52,23c-16.7-25.4-31.85-48-44.94-66.18l10.3,18.07-7-10.71C553.8,879,550.56,874,547,868.36c-1.17-1.86-2.36-3.77-3.61-5.75"/><path class="cls-2" d="M553.34,875.77C566.43,894,581.58,916.55,598.28,942c-16.7-25.4-31.85-48-44.94-66.18"/><path class="cls-2" d="M551.35,865.75c.65.57,5.23,7.42,6.49,9.1l8,11.95-8-11.95c-1.26-1.68-5.84-8.53-6.49-9.1"/><path class="cls-2" d="M585.38,933.29q-10.47-16.83-20.92-33.66L502,798.54q-9.23-15.46-18.72-30.72l-6.37-10.15c-4.72-12.13-8.6-22.91-10.61-31.06l25.35,36.94c20.86,34.09,40.12,67.29,60.89,101.43-16.64-23.52-37.34-53.94-50-70.53,12.88,21.79,28.31,47.85,40.94,68.16h0l3.6,5.74c3.52,5.59,6.76,10.59,9.59,14.77l7,10.71c6.86,11.95,14.48,24.67,22.55,37.9s16.64,27,25,41.23c1.38,2.37,2.81,4.75,4.18,7.15,4.44,7.67,8.77,15.49,13,23.37,2.11,4.09,4.27,8.15,6.27,12.28l1.52,3.09.8,1.62.8,1.68,3.14,6.77c.55,1.81,1,3.75,1.6,5.74-.56-1.24-1.1-2.49-1.67-3.71l-1.74-3.64c-1.17-2.43-2.28-4.87-3.52-7.29l-3.22-6.38-3.32-6.33q-6.69-12.63-13.88-25c-9.55-16.52-19.64-32.76-29.74-49"/><path class="cls-2" d="M585.38,933.29c10.1,16.26,20.19,32.5,29.74,49q7.2,12.38,13.88,25l3.32,6.33,3.22,6.38c1.24,2.42,2.35,4.86,3.52,7.29l1.74,3.64c.57,1.22,1.11,2.47,1.67,3.71-.56-1.24-1.1-2.49-1.67-3.71l-1.74-3.64c-1.17-2.43-2.28-4.87-3.52-7.3l-3.22-6.37-3.32-6.33q-6.69-12.63-13.88-25c-9.55-16.52-19.64-32.76-29.74-49"/><path class="cls-2" d="M564.46,899.63,502,798.54l62.49,101.09"/><path class="cls-2" d="M628.34,1003.49c-4.2-7.88-8.53-15.7-13-23.37-1.37-2.4-2.8-4.78-4.18-7.15-8.36-14.22-16.91-28-25-41.23,8.09,13.26,16.64,27,25,41.23,1.38,2.37,2.8,4.74,4.18,7.15q6.66,11.5,13,23.37"/><path class="cls-2" d="M543.44,862.62h0c1.25,2,2.44,3.89,3.61,5.75l-3.6-5.74"/><path class="cls-2" d="M502.49,794.45c12.68,16.59,33.38,47,50,70.53-16.64-23.52-37.34-53.94-50-70.53"/><path class="cls-2" d="M502,798.54l-25.09-40.87,6.37,10.15q9.5,15.25,18.72,30.72"/><polyline class="cls-2" points="501.97 798.54 476.88 757.67 501.97 798.54"/></g><text class="cls-4" transform="translate(213.76 1336.05)">Budapest</text><g class="cls-1"><path class="cls-2" d="M186.71,1390.73a28.17,28.17,0,0,1-8.82-5.37l-6.18-.37,12.86-1.19,8.86-1.13,9.22-1.09,9.4-1.13c3.14-.35,6.29-.65,9.4-1,12.43-1.31,24.38-2,33.8-2.12-5.52.48-12.06,1.35-18.29,2.16-2.07.26-4.12.54-6.07.84-3.9.58-7.45,1.1-10.27,1.45l1.65-.45c-4.15,1.11-8.3,2.13-12.42,3.33l-12.62,2,12.62-2c-7.73,2-15.47,3.84-23.14,6"/><path class="cls-2" d="M555.82,1357.71l-.54,0,3-.62c11.82-1,23.64-1.92,34.61-3.16q20.05-1.86,41.9-2.52l8.82-.22-17.72,2.14-1.74,0c-25.08.76-45.55,3.43-68.33,4.37"/><path class="cls-2" d="M641.78,1346.71c13.5-1.12,27.87-2,42.24-3l0,.9c-8,.4-16.43,1.12-25,1.38-2.36.07-4.74.11-7.11.1l1.7.15-11.84.46"/><polyline class="cls-2" points="672.24 1346.48 684.92 1345.49 686.62 1345.64 672.24 1346.48"/><polyline class="cls-2" points="552.91 1375.52 549.52 1375.32 553.75 1375.39 552.91 1375.52"/><polyline class="cls-2" points="683.41 1379.56 677.48 1379.23 683.41 1379.56"/><polyline class="cls-2" points="677.48 1379.23 676.63 1379.26 677.48 1379.23"/><polyline class="cls-2" points="759.76 1348.8 755.49 1348.37 759.76 1348.8"/><polyline class="cls-2" points="708.72 1376.59 707.02 1376.44 708.72 1376.59"/><polyline class="cls-2" points="393.12 1358.18 383.52 1357.48 393.12 1358.18"/><polyline class="cls-2" points="549.52 1375.32 542.73 1374.73 549.52 1375.32"/><polyline class="cls-2" points="748.61 1346.79 742.64 1346.62 747.77 1346.7 748.61 1346.79"/><polyline class="cls-2" points="767.47 1349.32 759.76 1348.8 764.9 1349.04 767.47 1349.32"/><polyline class="cls-2" points="712.9 1346.94 722.21 1346.16 723.91 1346.21 722.21 1346.16 723.91 1346.21 723.91 1346.32 712.9 1346.94"/><path class="cls-2" d="M759.75,1347.6l-11.14-.82-6-.16,5.12.08c-11.12-.67-23-1.11-35.76-1.23l-1.67.55,17-.2-5.09.35,1.7,0h3.4l-3.4.09,17,.55-6.83-.53,8.53.49-1.7,0,7.68.62,11.12.12m-17.1-.78,1.71,0-1.71,0"/><polyline class="cls-2" points="747.77 1346.7 742.64 1346.62 747.77 1346.7"/><polyline class="cls-2" points="723.91 1346.21 722.21 1346.16 723.91 1346.21"/><path class="cls-2" d="M780.32,1349.5l-4.29-.22-6-.28c-6-.45-12-.81-18-1.18l-3.43-.34,11.12.12c3.42.26,6.85.6,10.28.9s6.85.63,10.29,1"/><polyline class="cls-2" points="727.31 1346.22 723.91 1346.32 723.91 1346.21 727.31 1346.22"/><polyline class="cls-2" points="727.31 1346.22 723.91 1346.32 727.31 1346.22"/><polyline class="cls-2" points="782.03 1349.61 778.67 1349.52 776.03 1349.28 780.32 1349.5 782.03 1349.61"/><polyline class="cls-2" points="779.46 1349.59 778.67 1349.52 779.46 1349.59"/><path class="cls-2" d="M777.17,1349.48c-3.24-.09-6.47-.1-9.7-.16l5.13,0c1.52,0,3,.11,4.57.19"/><polyline class="cls-2" points="723.91 1346.21 722.21 1346.16 723.91 1346.21"/><polyline class="cls-2" points="779.46 1349.59 777.17 1349.48 779.46 1349.59"/><path class="cls-2" d="M778.67,1349.52l-1.5,0c-1.53-.08-3-.14-4.57-.19L770,1349l6,.28-6-.28,6,.28,2.64.24"/><polyline class="cls-2" points="779.46 1349.59 777.17 1349.48 778.67 1349.52 779.46 1349.59"/><path class="cls-2" d="M777.17,1349.48c-1.53-.08-3-.14-4.57-.19,1.52,0,3,.11,4.57.19"/><polyline class="cls-2" points="776.03 1349.28 770.03 1349.01 776.03 1349.28"/><polyline class="cls-2" points="772.6 1349.29 767.47 1349.32 764.9 1349.04 772.6 1349.29"/><polyline class="cls-2" points="767.47 1349.32 764.9 1349.04 767.47 1349.32"/><polyline class="cls-2" points="772.6 1349.29 767.47 1349.32 772.6 1349.29"/><path class="cls-2" d="M772.6,1349.29l-7.7-.25-4.29-.56c2.85.15,5.72.36,8.57.53H770l2.57.29"/><polyline class="cls-2" points="772.6 1349.29 764.9 1349.04 772.6 1349.29"/><polyline class="cls-2" points="744.36 1346.78 742.65 1346.82 744.36 1346.78"/><polyline class="cls-2" points="742.65 1346.82 740.95 1346.86 734.12 1346.33 742.65 1346.82"/><polyline class="cls-2" points="742.65 1346.82 740.95 1346.86 742.65 1346.82"/><polyline class="cls-2" points="740.95 1346.86 734.12 1346.33 740.95 1346.86"/><polyline class="cls-2" points="752.06 1347.82 746.93 1347.62 748.63 1347.48 752.06 1347.82"/><path class="cls-2" d="M770,1349h-.85c-5.72-.45-11.42-.81-17.12-1.19,6,.37,12,.73,18,1.18"/><polyline class="cls-2" points="770.03 1349.01 769.18 1349.01 770.03 1349.01 769.18 1349.01 770.03 1349.01"/><polyline class="cls-2" points="770.03 1349.01 769.18 1349.01 770.03 1349.01"/><polyline class="cls-2" points="700.92 1370.42 688.2 1369.81 702.61 1370.27 700.92 1370.42"/><polyline class="cls-2" points="695.01 1371 683.12 1369.76 698.38 1370.7 695.01 1371"/><path class="cls-2" d="M685.8,1374.38c-11.85.26-22.85.49-32.18-.12l16.09-.09-.85,0,16.94.19"/><polyline class="cls-2" points="685.8 1374.38 668.86 1374.19 669.71 1374.17 685.8 1374.38"/><polyline class="cls-2" points="685.8 1374.38 668.86 1374.19 685.8 1374.38"/><polyline class="cls-2" points="691.63 1371.2 687.38 1370.83 695.01 1371 691.63 1371.2"/><polyline class="cls-2" points="726.29 1369.75 721.21 1369.71 726.29 1369.75"/><path class="cls-2" d="M897.21,1377.45l4.14.74,5.91.66-6.65-2.13c-2.24-.7-4.5-1.49-6.85-2.08-4.69-1.25-9.59-2.61-15-3.63l3.25,1c-2.91-.55-5.59-1.12-8.15-1.69s-5-1-7.38-1.54-4.71-1-7.08-1.47-4.78-.83-7.29-1.21c7.08,1.42,15.19,3,23.1,4.93a200.37,200.37,0,0,1,22,6.42"/><polyline class="cls-2" points="834.34 1365.21 830.97 1364.86 834.34 1365.21"/><polyline class="cls-2" points="878.77 1371.02 873.79 1370.01 878.77 1371.02"/><path class="cls-2" d="M839.37,1366c-1.68-.26-3.35-.54-5-.75,1.68.21,3.35.49,5,.75"/><polyline class="cls-2" points="724.52 1367.11 719.44 1367.06 714.35 1366.61 724.51 1366.91 724.52 1367.11"/><polyline class="cls-2" points="724.53 1367.31 719.44 1367.06 724.52 1367.11 724.53 1367.31"/><polyline class="cls-2" points="726.25 1368.55 722.01 1368.28 711.84 1367.49 724.54 1367.81 726.25 1368.55"/><polyline class="cls-2" points="726.26 1368.65 722.01 1368.28 726.25 1368.55 726.26 1368.65"/><polyline class="cls-2" points="727.11 1368.93 715.24 1368.18 722.01 1368.28 726.26 1368.65 727.11 1368.93"/><path class="cls-2" d="M724.51,1366.91l-10.16-.3,5.09.45c-9.31,0-20.31.21-29.64,0,5-.33,10-.54,14.94-.69,8.55-.26,17.11-.35,25.66-.52l-5.89,1.07"/><polyline class="cls-2" points="724.51 1366.91 714.35 1366.61 724.51 1366.91"/><path class="cls-2" d="M734.63,1365.52c-12.7-.26-27.09-.1-36.44-1.12l2.74-.1c17.48-.52,29.75.78,47.49.4l1.41,0c-8.47-.72-22-1.07-30.51-1.7,13.56.4,26.28,1,39,1.86-7.89.18-15.78.43-23.66.7"/><polyline class="cls-2" points="714.25 1363.21 696.42 1361.85 704.05 1362.02 714.25 1363.21"/><polyline class="cls-2" points="672.69 1361.27 670.16 1361.25 669.31 1361.17 672.69 1361.27"/><path class="cls-2" d="M688,1361.81l-4.24-.17-11-.37-2.53,0,17.8.56m-4.24-.17-11-.37,11,.37"/><path class="cls-2" d="M704.05,1362l-7.63-.17-12.7-.21-11-.37-3.38-.09.85.07L654,1360l18.61-.27c9.35.92,21.22,1.46,31.4,2.25"/><polyline class="cls-2" points="704.05 1362.02 696.42 1361.85 704.05 1362.02"/><polyline class="cls-2" points="672.69 1361.27 669.31 1361.17 672.69 1361.27"/><polyline class="cls-2" points="683.72 1361.64 672.69 1361.27 683.72 1361.64"/><polyline class="cls-2" points="683.72 1361.64 672.69 1361.27 683.72 1361.64"/><path class="cls-2" d="M667.56,1359.23c-9.32,0-17.79-.16-24.58-.76l20.29-.91-2.51.67,6.8,1"/><polyline class="cls-2" points="476.94 1382.54 469.31 1381.98 471.83 1381.7 476.94 1382.54"/><path class="cls-2" d="M246.93,1399c-4.25-.24-8.32-.55-12.18-.82s-7.54-.54-11.05-.86-6.84-.72-10-1.07-6.16-.74-9-1.18c4.18-.62,8.34-1.33,12.53-1.89l12.55-1.72c27.18-3.24,54.61-3.61,54.57-.17,0,.49-.57,1-1.77,1.7-6.26.75-12.48,1.8-18.49,2.81-3,.52-5.95,1-8.82,1.56l-8.32,1.64"/><path class="cls-2" d="M346.29,1388.12l-3.39-.18c5.86-.78,6.63-1.86,16.72-2.59-1.63,1.07-7.49,1.89-13.33,2.77"/><path class="cls-2" d="M314.51,1391.71a85.34,85.34,0,0,0-11.61-.37c-2.13.05-4.34.15-6.59.3s-4.55.38-6.88.61-4.57.49-6.87.76c1.2-.65,1.76-1.21,1.77-1.7,0-3.44-27.39-3.07-54.57.17,20.75-2.77,41.54-5.19,62.39-7.11,6.94-.7,13.9-1.23,20.86-1.87q30.25-2.49,60.56-4.47l-2.58-.75q-7.29.3-14.6.69l-14.14.92-4.38.29L312.41,1381c-8.18.61-16,1-23.31,1.27,5.62-.82,11.35-1.48,17.14-2.09l8.73-.9c2.92-.27,5.85-.49,8.78-.72l11.67-.84c3.89-.23,7.77-.41,11.63-.59,23.18-1,45.63-.89,64.57.13,6.78.28,16.93.22,27.07,0l-14.36.36-1.66,1,19.5,1.36H437.1l-18.6.11-16.9.24c-3.49,0-7,.15-10.47.33h0c-10.94.51-22.08,1.65-34.17,2.74l14.35-.33c2.39.16,3.55.4,3.79.68.51.62-3.38,1.46-8.84,2.28-2.73.41-5.85.8-9,1.17s-6.36.73-9.26,1l-1.69-.09c5.84-.88,11.7-1.7,13.33-2.77-10.09.73-10.86,1.81-16.72,2.59l-3.44-1c-3.95-.08-7.89-.07-11.83-.11,5.76-2-14.39-.12-12.82-1.61l-20.25.82-10.76,2.6,11.32.08c3.64.08,7.07.24,10,.45,5.85.44,9.71,1.17,9.4,2.51"/><path class="cls-2" d="M284.33,1391.31c0-3.44-27.39-3.07-54.57.17,27.18-3.24,54.61-3.61,54.57-.17"/><path class="cls-2" d="M342.9,1387.94c5.86-.78,6.63-1.86,16.72-2.59-10.09.73-10.86,1.81-16.72,2.59"/><path class="cls-2" d="M454,1380.79l-11.87-.8H437.1l-18.6.11-.83.24,16.07.18-17.73.59c6.78.42,15.22.21,23.67.08l14.36-.39M437.1,1380l-18.6.11,18.6-.11"/><polyline class="cls-2" points="437.1 1379.98 418.5 1380.09 437.1 1379.98"/><polyline class="cls-2" points="343.78 1388.49 342.9 1387.94 346.29 1388.12 343.78 1388.49"/><polyline class="cls-2" points="263.04 1377.97 262.12 1377.38 263.04 1377.97"/><path class="cls-3" d="M353.67,1397.85c-21.94-1.34-7.16-6.24-9.89-9.36l2.51-.37,1.69.09c2.9-.28,6.1-.63,9.26-1s6.29-.76,9-1.17c5.46-.82,9.35-1.66,8.84-2.28-.24-.28-1.4-.52-3.79-.68l-14.35.33c12.09-1.09,23.23-2.23,34.17-2.74,3.5-.18,7-.31,10.47-.33l16.9-.24-.83.24-15.22.26c4.25.32,9.32.37,14.71.3s11.09-.22,16.58-.38l-17.73.59c6.78.42,15.22.21,23.67.08l-2.51.6,10.2,1.64-19.47-.69-6.71,1.26a190.15,190.15,0,0,0,28.88,4.14c-17.77-1-31.36-3-55.83-2.45l-1.63,1-5.08-.35a104.27,104.27,0,0,0,12.2,1.51c4.55.42,9,.85,11.56,1.59l-15.22-.92c.89,1,8.5,1.52,11.07,2.31-12.5-.86-14.47-4-29-3.32l-.66,0-1,.06c-25.89,1.48-25.47,5.27-14.55,7.35l-5.06-.2c-9.17,1.22-.71,2-3.16,3.12"/><path class="cls-2" d="M375.1,1383.75c-.24-.28-1.4-.52-3.79-.68l-14.35.33,14.35-.33c2.39.16,3.55.4,3.79.68"/><path class="cls-2" d="M357,1383.4c12.09-1.09,23.23-2.23,34.17-2.74-10.94.51-22.08,1.65-34.17,2.74"/><polyline class="cls-2" points="433.74 1380.51 416.01 1381.1 433.74 1380.51"/><polyline class="cls-2" points="417.67 1380.33 418.5 1380.09 417.67 1380.33"/><path class="cls-3" d="M466.6,1376.77l3.37-.31,4.21-.73-5.08,0,5.08,0,.82-.83-11.87-.72,6.77.08-10.18-.77,12.71.29,0-.5-4.24-.26c-10.16-.09-21.15.31-30.48,0,4.33-.29,8.68-.48,13.05-.63,9.24-.33,18.63-.41,28.4-.65l3.38-.31c-12.72-.2-27.1,0-36.45-1l2.73-.1c17.49-.61,29.76.74,47.51.19l1.41,0c-8.48-.64-22-.92-30.53-1.54,13.57.36,26.28,1,39,1.59l1.69,0,47.41-.15-19.49-.7,19.49.7c24.55.06,47.42.16,71.14.54l-18.67-1.33c11.81-1.36,25.35-1.47,36.34-2.21-17.78-.16-33.05-.89-50-.78,16.93-.11,32.2.62,50,.78l3.37-.2c-14.42-1.16-33-1.19-47.46-2,10.16,0,18.64.64,30.48.38l-3.39-.3-5.08,0,5.08,0c11-.13,20.32.18,29.65.5A288.19,288.19,0,0,1,690.5,1362l5.92-.18-12.7-.21,4.24.17-17.8-.56L654,1360l18.61-.27-5.09-.54c-9.32,0-17.79-.16-24.58-.76l20.29-.91,11.81-1.66-1.74-1.65c-7.23-1.1-19-1.53-33.07-1.1l-2.53.08.89,1.47-4.25-.87-7.58,1.33-7.63,0a80.74,80.74,0,0,1-15.61,1.62c-5.92.18-12.27.12-18.2.2l5.1.35a42.07,42.07,0,0,1-9.35,1.13c-5.12.16-10.6-.14-15.18-.18l-10.11-.61-.91,0,.37-.08-.37,0-14.39.14-7.63-.37-4.26-.37,4.26.37,5.08.15-4.25-.48,8.48.25-17-.79-5.93-.12,1.69-.15-7.64-.57-16.11-.61-11,.64,9.3-.69,5.07-.35-16.94.22.84-.53c-6.79-.1-15.27,0-23.75.15l-.84,0-14.4.89,12.7-1-.87-.87c-8.17.38-16.86,1.17-25.69,1.53-2.17.08-4.36.13-6.54.14l1.7.13-12.72.61c-7.21.72-14.19,1.42-21,2.23l5.79.43-5.79-.43c-24.47,2.79-46.08,6.33-61.79,10.23,5.91-.79,11.83-1.42,17.54-2.16s11.2-1.43,16.26-2.17q5.72-.66,11.45-1.24t11.52-1c7.72-.62,15.52-1.06,23.48-1.4l5.26-.22-17.74,2.38.84,0-4.21.8,3.37-.76c-27.16,1.27-47.4,4.68-72,6.62l4.21-.82c-14.38,1.67-28.74,3.48-43.06,5.52-5.28,1.42-10.55,2.78-15.8,4.25,4.51-.46,9-.8,13.54-1.21l-7.55,1.27c-1.09.28-5.41,1-5.82,1.32-.25.21,1.1.16,6-.21,2.43-.19,5.73-.48,10.15-.9l7.5-.71,9.35-.82c4.78-.47,9.56-1,14.34-1.42-8,1-15.56,2.18-22.58,3.3s-13.48,2.47-19.3,3.8l11-.31c5.61-.82,11.35-1.48,17.14-2.09l8.73-.9c2.92-.27,5.85-.49,8.78-.72l11.67-.84c3.89-.23,7.77-.41,11.63-.59,23.18-1,45.63-.89,64.57.13,6.78.28,16.93.22,27.07,0l1.7-.06-5.09-.31,7.62.13L431,1375.91l15.26.84,2.53-.29-12.72-.55,14.4.4,3.37-.52,12.73,1m120.76-10c12.71.31,23.74,1.18,39.82,1.09-16.08.09-27.11-.78-39.82-1.09l-5.09-.15h0l5.09.15-.84.32-13.55.12,13.55-.12.84-.32m-70.2,2.53c11.84-.26,19.5,1,30.5.78-11,.23-18.66-1-30.5-.78m-10.15.31-.85,0-8.46.06,8.46-.06.85,0c10.17.09,17.8.66,28,.65-10.16,0-17.79-.56-28-.65m71.06-2.06L573,1368l5.07-.46m-236.21,5.33c-7.31.79-14.61,1.76-21.91,2.63,7.3-.87,14.6-1.84,21.91-2.63m0,0c-7.31.79-14.61,1.76-21.91,2.63,7.3-.87,14.6-1.84,21.91-2.63m0,0,3.38-.33,3.37-.42,3.38-.33,3.2-.4.33,0,3.23-.29,3.37-.39,3.38-.3,3.38-.39,3.37-.4,2.54-.24,3.37-.39,3.38-.37,3.37-.37,2.54-.32,3.38-.37,2.52-.43c-6.52.47-12.55,1-18.33,1.62s-11.31,1.32-16.8,2l-1.19.14-.9.13-4,.54-1,.12-3.37.43-1.87.27-4,.52M286,1377l4.48-.43,3.12-.34c1.12-.12,2.25-.22,3.38-.32l3.37-.4,4.22-.47,2-.3,5.49-.77h.07l3.37-.49-3.37.49,3.37-.49-3.37.49h0l3.4-.5c-1.37.21-2.86.42-4.37.61l-2.38.28-4.21.48-1.33.16-3.95.41-2.32.2-2.41.3c-3,.35-5.87.71-8.55,1.09m352.62-22.28v.3l3.4.2-3.41-.5"/><path class="cls-2" d="M341.86,1372.88l13.33-1.48-3.2.4-3.38.33-3.37.42-3.38.33"/><path class="cls-2" d="M345.89,1372.36l1.87-.27,3.37-.43,1-.12-6.2.82"/><path class="cls-2" d="M355.52,1371.36c6.66-.7,13.29-1.37,19.67-2.1s12.5-1.39,18.16-2.16l-2.52.43-3.38.37-2.54.32-3.37.37-3.38.37-3.37.39-2.54.24-3.37.4-3.38.39-3.38.3-3.37.39-3.23.29"/><polyline class="cls-2" points="356.13 1371 357.03 1370.87 358.22 1370.73 356.13 1371"/><path class="cls-2" d="M554.91,1357.75l.37-.08.54,0-.91,0"/><polyline class="cls-2" points="398.91 1358.62 393.12 1358.18 398.91 1358.62"/><polyline class="cls-2" points="687.96 1361.81 683.72 1361.64 687.96 1361.81"/><polyline class="cls-2" points="672.65 1359.77 654.04 1360.04 672.65 1359.77"/><polyline class="cls-2" points="642.98 1358.47 663.27 1357.56 642.98 1358.47"/><polyline class="cls-2" points="341.87 1372.88 345.24 1372.56 348.61 1372.13 352 1371.8 355.19 1371.4 352 1371.8 348.61 1372.13 345.24 1372.56 341.87 1372.88"/><polyline class="cls-2" points="345.89 1372.36 347.76 1372.09 351.13 1371.66 352.09 1371.54 351.13 1371.66 347.76 1372.09 345.89 1372.36"/><polyline class="cls-2" points="355.52 1371.36 358.75 1371.07 362.12 1370.68 365.5 1370.38 368.88 1369.99 372.25 1369.59 374.79 1369.35 378.16 1368.96 381.55 1368.59 384.91 1368.22 387.45 1367.89 390.83 1367.53 393.35 1367.1 390.83 1367.53 387.45 1367.89 384.91 1368.22 381.55 1368.59 378.16 1368.96 374.79 1369.35 372.25 1369.59 368.88 1369.99 365.5 1370.38 362.12 1370.68 358.75 1371.07 355.52 1371.36"/><polyline class="cls-2" points="356.13 1371 357.03 1370.87 358.22 1370.73 357.03 1370.87 356.13 1371"/><path class="cls-2" d="M320,1375.51c7.3-.87,14.6-1.84,21.91-2.63-7.31.79-14.61,1.76-21.91,2.63"/><path class="cls-2" d="M320,1375.51c7.3-.87,14.6-1.84,21.91-2.63-7.31.79-14.61,1.76-21.91,2.63"/><path class="cls-2" d="M438.69,1377.31c-10.14.2-20.29.26-27.07,0-18.94-1-41.39-1.14-64.57-.13,23.18-1,45.63-.89,64.57.13,6.78.28,16.93.22,27.07,0"/><path class="cls-2" d="M289.1,1382.3c5.61-.82,11.35-1.48,17.14-2.09l8.73-.9c2.92-.27,5.85-.49,8.78-.72-2.93.23-5.86.45-8.78.72l-8.73.9c-5.79.61-11.52,1.27-17.14,2.09"/><path class="cls-2" d="M297,1375.89c-1.13.1-2.26.2-3.38.32,4.24-.45,8.59-.91,13-1.49l-2,.3-4.22.47-3.37.4"/><path class="cls-2" d="M294.56,1375.89l2.41-.3,2.32-.2-4.73.5"/><path class="cls-2" d="M303.24,1375l1.33-.16,4.21-.48,2.38-.28c-2.52.33-5.18.63-7.92.92"/><path class="cls-2" d="M312.09,1374h0"/><polyline class="cls-2" points="265.59 1377.78 267.26 1377.48 265.59 1377.78"/><path class="cls-2" d="M272.47,1378.19c-21.14,1.92-41.53,3.48-62.62,6.51,4.12-1.2,8.27-2.22,12.42-3.33l-1.65.45c2.82-.35,6.38-.87,10.28-1.45,1.94-.3,4-.58,6.06-.84,6.23-.81,12.77-1.68,18.29-2.16h6.86l0,.1.91.49-5,1.19,7.55-1.38,1.68-.3c7-1.28,14-2.39,21-3.54-5.28,1.42-10.55,2.78-15.8,4.25"/><path class="cls-2" d="M230.9,1380.37c-3.9.58-7.46,1.1-10.28,1.45,2.82-.35,6.37-.87,10.27-1.45,2-.3,4-.58,6.07-.84-2.07.26-4.12.54-6.06.84"/><polyline class="cls-2" points="220.62 1381.82 222.27 1381.37 220.62 1381.82"/><polyline class="cls-2" points="263.04 1377.97 262.13 1377.48 262.12 1377.38 263.04 1377.97"/><path class="cls-2" d="M272.47,1378.19c5.25-1.47,10.52-2.83,15.8-4.25-5.28,1.42-10.55,2.78-15.8,4.25"/><path class="cls-2" d="M269.6,1385c-6.28.75-13.43,1.32-20.65,2.08s-14.57,1.31-21.24,2.06c10.59-3.65,29.75-7.58,44.76-11,4.51-.46,9-.8,13.54-1.21l-7.55,1.27c-1.09.28-5.41,1-5.82,1.32-.25.21,1.1.16,6-.21,2.43-.19,5.73-.48,10.15-.9l7.5-.71,9.35-.82c4.78-.47,9.56-1,14.34-1.42-8,1-15.56,2.18-22.58,3.3s-13.48,2.47-19.3,3.8l11-.31-6.71,1c-2.63.47-5.76.85-9.23,1.31l-3.56.43"/><path class="cls-2" d="M278.07,1382.61c5.82-1.33,12.28-2.63,19.3-3.8s14.58-2.29,22.58-3.3c-8,1-15.56,2.18-22.58,3.3s-13.48,2.47-19.3,3.8"/><path class="cls-2" d="M272.64,1379.57c.41-.31,4.73-1,5.82-1.32L286,1377l-7.55,1.27c-1.09.28-5.41,1-5.82,1.32"/><path class="cls-2" d="M313,1382.5c-7,.64-13.92,1.17-20.86,1.87-20.85,1.92-41.64,4.34-62.39,7.11q-4.72.54-9.44,1.15c-3.14.4-6.28.84-9.4,1.38l-6.24,1.08c-3.53-.62-6.86-1.28-9.9-2a61.77,61.77,0,0,1-8.07-2.34c7.67-2.19,15.41-4,23.14-6,21.09-3,41.48-4.59,62.62-6.51-15,3.39-34.17,7.32-44.76,11,6.67-.75,14-1.35,21.24-2.06s14.37-1.33,20.65-2.08h0l3.55-.43c3.47-.46,6.6-.84,9.23-1.31l6.71-1c7.29-.29,15.13-.66,23.31-1.27l25.46-1.85,4.38-.29,14.14-.92q7.31-.39,14.6-.69l2.58.75q-30.31,2-60.56,4.47"/><path class="cls-2" d="M313,1382.5q30.25-2.49,60.56-4.47-30.31,2-60.56,4.47"/><path class="cls-2" d="M292.15,1384.37c-20.85,1.92-41.64,4.34-62.39,7.11,20.75-2.77,41.54-5.19,62.39-7.11"/><path class="cls-2" d="M356.39,1378l-14.14.92-4.38.29L312.41,1381l25.46-1.85,4.38-.29,14.14-.92"/><path class="cls-2" d="M269.61,1385h0l3.56-.43-3.55.43"/><path class="cls-2" d="M227.71,1389.16c10.59-3.65,29.75-7.58,44.76-11-15,3.39-34.17,7.32-44.76,11"/><path class="cls-2" d="M229.76,1391.48l-12.55,1.72c-4.19.56-8.35,1.27-12.53,1.89l6.24-1.08c3.12-.54,6.26-1,9.4-1.38s6.29-.79,9.44-1.15"/><path class="cls-2" d="M229.76,1391.48l-12.55,1.72c-4.19.56-8.35,1.27-12.53,1.89,4.18-.62,8.34-1.33,12.53-1.89l12.55-1.72"/></g></g></g></svg>